SplineFontDB: 3.2
FontName: ChessTepoztlan
FullName: ChessTepoztlan
FamilyName: ChessTepoztlan
Weight: Regular
Copyright: Donated to the public domain 2022 by Sam Trenholme
UComments: "2022-4-14: Created with FontForge (http://fontforge.org)"
Version: 001.000
ItalicAngle: 0
UnderlinePosition: -100
UnderlineWidth: 50
Ascent: 800
Descent: 200
InvalidEm: 0
LayerCount: 2
Layer: 0 0 "Back" 1
Layer: 1 0 "Fore" 0
XUID: [1021 900 -2068765213 18787]
FSType: 0
OS2Version: 0
OS2_WeightWidthSlopeOnly: 0
OS2_UseTypoMetrics: 1
CreationTime: 1650005861
ModificationTime: 1650007659
PfmFamily: 17
TTFWeight: 400
TTFWidth: 5
LineGap: 90
VLineGap: 0
OS2TypoAscent: 0
OS2TypoAOffset: 1
OS2TypoDescent: 0
OS2TypoDOffset: 1
OS2TypoLinegap: 90
OS2WinAscent: 0
OS2WinAOffset: 1
OS2WinDescent: 0
OS2WinDOffset: 1
HheadAscent: 0
HheadAOffset: 1
HheadDescent: 0
HheadDOffset: 1
OS2Vendor: 'PfEd'
MarkAttachClasses: 1
DEI: 91125
LangName: 1033
Encoding: ISO8859-1
UnicodeInterp: none
NameList: AGL For New Fonts
DisplaySize: -48
AntiAlias: 1
FitToEm: 0
WinInfo: 0 26 12
BeginPrivate: 0
EndPrivate
TeXData: 1 0 0 1048576 524288 349525 682885 1048576 349525 783286 444596 497025 792723 393216 433062 380633 303038 157286 324010 404750 52429 2506097 1059062 262144
BeginChars: 256 36

StartChar: space
Encoding: 32 32 0
Width: 1000
Flags: HW
LayerCount: 2
Fore
SplineSet
0 0 m 1024
EndSplineSet
EndChar

StartChar: exclam
Encoding: 33 33 1
Width: 1000
Flags: HW
LayerCount: 2
Fore
SplineSet
950 -450 m 1
 1000 -450 l 1
 1000 -500 l 1
 950 -500 l 1
 950 -450 l 1
EndSplineSet
EndChar

StartChar: quotedbl
Encoding: 34 34 2
Width: 1000
Flags: HW
LayerCount: 2
Fore
SplineSet
0 -450 m 1
 1000 -450 l 1
 1000 -500 l 1
 0 -500 l 5
 0 -450 l 1
EndSplineSet
EndChar

StartChar: numbersign
Encoding: 35 35 3
Width: 1000
Flags: HW
LayerCount: 2
Fore
SplineSet
0 -450 m 1
 50 -450 l 1
 50 -500 l 1
 0 -500 l 5
 0 -450 l 1
EndSplineSet
EndChar

StartChar: dollar
Encoding: 36 36 4
Width: 1000
Flags: HW
LayerCount: 2
Fore
SplineSet
950 500 m 5
 1000 500 l 5
 1000 -500 l 5
 950 -500 l 5
 950 500 l 5
0 0 m 1024
EndSplineSet
EndChar

StartChar: percent
Encoding: 37 37 5
Width: 1000
Flags: HW
LayerCount: 2
Fore
SplineSet
0 500 m 5
 50 500 l 5
 50 -500 l 5
 0 -500 l 5
 0 500 l 5
0 0 m 1024
EndSplineSet
EndChar

StartChar: parenleft
Encoding: 40 40 6
Width: 1000
Flags: HW
LayerCount: 2
Fore
SplineSet
0 450 m 1
 0 500 l 5
 1000 500 l 1
 1000 450 l 1
 0 450 l 1
EndSplineSet
EndChar

StartChar: parenright
Encoding: 41 41 7
Width: 1000
Flags: HW
LayerCount: 2
Fore
SplineSet
0 450 m 1
 0 500 l 5
 50 500 l 1
 50 450 l 1
 0 450 l 1
EndSplineSet
EndChar

StartChar: B
Encoding: 66 66 8
Width: 1000
Flags: H
LayerCount: 2
Fore
SplineSet
74.0498046875 724.150390625 m 1
 148.099609375 800 l 1
 158.150390625 800 l 1
 168.150390625 800 l 1
 159.200195312 790.849609375 l 2
 154.299804688 785.849609375 119.099609375 749.849609375 81.0498046875 710.849609375 c 2
 11.900390625 640 l 1
 5.9501953125 640 l 1
 0 640 l 1
 0 644.150390625 l 1
 0 648.299804688 l 1
 74.0498046875 724.150390625 l 1
308.75 799.200195312 m 2
 313.450195312 799.549804688 317.799804688 799.900390625 318.5 799.950195312 c 0
 319.650390625 800 319.5 799.799804688 317.25 797.549804688 c 0
 315.849609375 796.25 246.400390625 728.75 162.900390625 647.549804688 c 2
 11 500 l 1
 5.5 500 l 1
 0 500 l 1
 0 505.5 l 1
 0 510.950195312 l 1
 77.400390625 585.599609375 l 2
 119.950195312 626.650390625 186.25 690.150390625 224.75 726.700195312 c 0
 263.25 763.25 296 794.349609375 297.5 795.799804688 c 2
 300.299804688 798.5 l 1
 308.75 799.200195312 l 2
214.75 584.799804688 m 1
 429.25 800 l 1
 439.25 800 l 1
 449.25 800 l 1
 427.700195312 778.400390625 l 2
 415.799804688 766.5 317.200195312 667.549804688 208.549804688 558.5 c 2
 10.9501953125 360.25 l 1
 5.4501953125 360.099609375 l 1
 -0.0498046875 359.950195312 l 1
 0.099609375 364.75 l 1
 0.25 369.549804688 l 1
 214.75 584.799804688 l 1
547.349609375 777.75 m 2
 569.25 799.950195312 l 1
 579.200195312 800 l 1
 589.200195312 800 l 1
 584.450195312 795.099609375 l 2
 581.900390625 792.400390625 570.400390625 780.799804688 558.950195312 769.299804688 c 2
 538.150390625 748.349609375 l 1
 542.049804688 744.450195312 l 2
 556.700195312 729.599609375 562.599609375 706.700195312 556.450195312 688.25 c 0
 554.650390625 682.799804688 552.200195312 678.650390625 547.349609375 672.400390625 c 0
 545.299804688 669.849609375 543.099609375 666.75 542.5 665.5 c 0
 541.049804688 662.700195312 540.650390625 657.25 541.450195312 652.900390625 c 0
 542.049804688 649.799804688 547.049804688 638.5 547.849609375 638.5 c 0
 548.049804688 638.5 584.599609375 674.849609375 629 719.25 c 2
 709.75 800 l 1
 719.75 800 l 1
 729.75 800 l 1
 643.049804688 713.299804688 l 2
 557.099609375 627.349609375 556.349609375 626.599609375 557.150390625 625.450195312 c 0
 557.599609375 624.849609375 560.599609375 621.400390625 563.849609375 617.849609375 c 0
 569.849609375 611.299804688 577.5 603.849609375 594.799804688 587.900390625 c 0
 600.099609375 583 607.049804688 576.200195312 610.299804688 572.75 c 2
 616.200195312 566.450195312 l 1
 733 683.25 l 1
 849.75 800 l 1
 859.75 800 l 1
 869.75 800 l 1
 747.549804688 677.799804688 l 1
 625.349609375 555.599609375 l 1
 630.900390625 548.099609375 l 2
 644.099609375 530.349609375 657.5 508.5 667.75 488.049804688 c 2
 671.099609375 481.349609375 l 1
 830.400390625 640.650390625 l 1
 989.75 800 l 1
 994.900390625 800 l 1
 1000 800 l 1
 1000 795.099609375 l 1
 1000 790.25 l 1
 838.799804688 629.049804688 l 1
 677.549804688 467.799804688 l 1
 678.25 466.299804688 l 1
 690.799804688 437.549804688 698.349609375 417.349609375 706.299804688 391 c 0
 708.099609375 385.099609375 709.599609375 380.200195312 709.700195312 380.150390625 c 0
 709.75 380.099609375 772.799804688 443.049804688 849.75 520 c 2
 989.75 660 l 1
 994.849609375 660 l 1
 1000 660 l 1
 1000 655.150390625 l 1
 1000 650.25 l 1
 856.900390625 507.150390625 l 1
 713.799804688 364.049804688 l 1
 715.599609375 356.400390625 l 2
 723.299804688 324.150390625 728.5 287.950195312 728.5 266.799804688 c 2
 728.5 258.75 l 1
 859.150390625 389.400390625 l 1
 989.75 520 l 1
 994.900390625 520 l 1
 1000 520 l 1
 1000 515.150390625 l 1
 1000 510.25 l 1
 864.299804688 374.5 l 1
 728.599609375 238.75 l 1
 728.299804688 232 l 2
 727.450195312 212.650390625 721.950195312 189.849609375 714.75 175.849609375 c 0
 710.5 167.599609375 707.849609375 164.200195312 697.099609375 153.5 c 0
 686.5 142.900390625 683 138.5 681.049804688 133.200195312 c 0
 680.200195312 130.950195312 680 129.299804688 680 124.200195312 c 0
 680 118.549804688 680.150390625 117.450195312 681.5 113.5 c 0
 683.849609375 106.5 694.599609375 85.849609375 695.75 86.150390625 c 0
 696.049804688 86.2001953125 762.200195312 152.299804688 842.75 233 c 2
 989.25 379.75 l 1
 994.650390625 379.900390625 l 1
 1000 380.049804688 l 1
 1000 375.150390625 l 1
 1000 370.25 l 1
 860.099609375 230.25 l 2
 714.849609375 84.849609375 702.75 72.7001953125 702.75 72.099609375 c 0
 702.799804688 71.900390625 703.450195312 69.849609375 704.25 67.5 c 0
 705.549804688 63.7001953125 705.700195312 62.599609375 705.75 57 c 0
 705.75 51.75 705.549804688 50.25 704.650390625 47.7998046875 c 0
 702.200195312 41.349609375 695.900390625 33.25 687.25 25.4501953125 c 0
 679.849609375 18.75 670.450195312 11.400390625 630.5 -18.900390625 c 0
 622.400390625 -25.0498046875 615.700195312 -30.25 615.599609375 -30.4501953125 c 0
 615.549804688 -30.650390625 620.25 -31.099609375 626.099609375 -31.400390625 c 0
 631.950195312 -31.75 654.099609375 -33 675.25 -34.2001953125 c 2
 713.75 -36.400390625 l 1
 821.950195312 72.150390625 l 2
 881.5 131.900390625 943.450195312 194.099609375 959.700195312 210.349609375 c 2
 989.25 240 l 1
 994.599609375 240 l 1
 1000 240 l 1
 1000 235.349609375 l 1
 1000 230.700195312 l 1
 866.5 96.75 l 2
 793.099609375 23.099609375 733.099609375 -37.25 733.200195312 -37.349609375 c 0
 733.25 -37.4501953125 740.049804688 -37.9501953125 748.299804688 -38.5 c 0
 799 -41.849609375 822.5 -46.650390625 832.900390625 -55.7998046875 c 2
 835.5 -58.099609375 l 1
 838.650390625 -55.150390625 l 2
 842.450195312 -51.650390625 985.700195312 86.2001953125 994.150390625 94.4501953125 c 2
 1000 100.200195312 l 1
 1000 91.2001953125 l 1
 1000 82.150390625 l 1
 921.25 5.2998046875 l 1
 842.5 -71.599609375 l 1
 842.849609375 -73.4501953125 l 2
 843.400390625 -76.2998046875 843.200195312 -95.4501953125 842.549804688 -98.75 c 0
 842.25 -100.400390625 841.099609375 -103.650390625 840 -105.950195312 c 0
 834.400390625 -117.650390625 822.150390625 -123.349609375 793.549804688 -127.5 c 2
 783.849609375 -128.900390625 l 1
 779.299804688 -133.349609375 l 2
 776.799804688 -135.799804688 760.450195312 -151.799804688 742.900390625 -168.900390625 c 2
 711.099609375 -200 l 1
 705.549804688 -200 l 1
 700 -200 l 1
 700 -194.549804688 l 1
 700 -189.049804688 l 1
 728.400390625 -161.700195312 l 2
 744 -146.650390625 757.549804688 -133.549804688 758.5 -132.599609375 c 2
 760.25 -130.900390625 l 1
 757.25 -131.200195312 l 2
 745.700195312 -132.349609375 702.599609375 -134.400390625 680.5 -134.799804688 c 0
 665.400390625 -135.099609375 640.400390625 -134.450195312 637.900390625 -133.700195312 c 0
 637.299804688 -133.549804688 627.650390625 -142.900390625 603.950195312 -166.75 c 2
 570.849609375 -200 l 1
 560.849609375 -200 l 1
 550.849609375 -200 l 1
 584.700195312 -166 l 2
 603.299804688 -147.299804688 618.5 -131.75 618.5 -131.5 c 0
 618.5 -131.200195312 618.099609375 -131 617.599609375 -131 c 0
 616.099609375 -131 605.049804688 -128.150390625 600 -126.5 c 0
 593.5 -124.349609375 580.299804688 -117.799804688 574.25 -113.75 c 0
 571.5 -111.900390625 567.200195312 -108.75 564.700195312 -106.75 c 0
 560.700195312 -103.549804688 557.950195312 -101.099609375 545.799804688 -90 c 2
 542.900390625 -87.2998046875 l 1
 486.650390625 -143.650390625 l 1
 430.400390625 -200 l 1
 420.549804688 -199.900390625 l 1
 410.75 -199.75 l 1
 471.700195312 -138.650390625 l 2
 505.25 -105 532.599609375 -77.4501953125 532.450195312 -77.349609375 c 0
 531.950195312 -77 513.950195312 -60 510.700195312 -56.900390625 c 2
 507.150390625 -53.4501953125 l 1
 490.450195312 -71.849609375 l 2
 470 -94.400390625 462.650390625 -101.849609375 456.950195312 -105.599609375 c 0
 436.950195312 -118.799804688 403.700195312 -129.25 362.25 -135.299804688 c 2
 353.75 -136.5 l 1
 322 -168.25 l 1
 290.25 -200 l 1
 280.25 -200 l 1
 270.25 -200 l 1
 300.75 -169.450195312 l 1
 331.25 -138.900390625 l 1
 326.75 -139.150390625 l 2
 324.299804688 -139.349609375 315.200195312 -139.75 306.650390625 -140.049804688 c 0
 277.700195312 -141.200195312 248.400390625 -139.200195312 224.75 -134.450195312 c 2
 217.299804688 -132.950195312 l 1
 183.75 -166.5 l 1
 150.25 -200 l 1
 140.25 -200 l 1
 130.25 -200 l 1
 166.099609375 -164.099609375 l 1
 202 -128.25 l 1
 198.349609375 -126.799804688 l 2
 190.700195312 -123.799804688 182.150390625 -118.049804688 178.25 -113.299804688 c 0
 174.450195312 -108.650390625 170.349609375 -96.150390625 169.450195312 -86.4501953125 c 0
 168.799804688 -79.2998046875 169.450195312 -72.2998046875 171.200195312 -68 c 0
 174.900390625 -58.9501953125 184 -50.7998046875 196 -45.849609375 c 0
 214.849609375 -38.0498046875 241.450195312 -34.2001953125 283.049804688 -33.2001953125 c 2
 297.400390625 -32.849609375 l 1
 321.299804688 -8.9501953125 l 2
 336.099609375 5.849609375 345.049804688 15.150390625 344.75 15.400390625 c 0
 344.450195312 15.650390625 342.700195312 17.2001953125 340.75 18.7998046875 c 0
 326.650390625 30.5 318.900390625 39.849609375 316 48.5 c 0
 315.049804688 51.349609375 314.950195312 52.5498046875 315.099609375 58 c 0
 315.299804688 62.75 315.599609375 65.0498046875 316.450195312 67.4501953125 c 0
 318.099609375 72.2001953125 321.849609375 79.75 326.799804688 88.25 c 0
 332.049804688 97.2998046875 337.849609375 109.049804688 339.450195312 113.799804688 c 0
 340.400390625 116.450195312 340.700195312 118.700195312 340.900390625 123.650390625 c 0
 341 127.150390625 340.900390625 130 340.700195312 130 c 0
 340.450195312 130 266 55.75 175.25 -35 c 2
 10.25 -200 l 1
 5.150390625 -200 l 1
 0 -200 l 1
 0 -195.150390625 l 1
 0 -190.25 l 1
 166.849609375 -23.400390625 l 1
 333.700195312 143.5 l 1
 322.950195312 154.349609375 l 2
 311.25 166.200195312 309.700195312 168.200195312 304.799804688 178.5 c 0
 300 188.599609375 296.049804688 202.400390625 294.200195312 215.799804688 c 0
 293.700195312 219.349609375 293.25 222.349609375 293.150390625 222.5 c 0
 293.049804688 222.599609375 229.349609375 159.099609375 151.599609375 81.349609375 c 2
 10.25 -60 l 1
 5.099609375 -60 l 1
 0 -60 l 1
 0 -55.150390625 l 1
 0 -50.25 l 1
 145.849609375 95.599609375 l 1
 291.700195312 241.450195312 l 1
 291.599609375 248.849609375 l 2
 291.150390625 272.900390625 294.950195312 307.549804688 301.5 339.75 c 0
 304.25 353.25 307.150390625 365.099609375 311.299804688 380.25 c 0
 311.450195312 380.799804688 243.799804688 313.450195312 160.900390625 230.599609375 c 2
 10.25 80 l 1
 5.099609375 80 l 1
 0 80 l 1
 0 84.849609375 l 1
 0 89.75 l 1
 160.25 250 l 1
 320.5 410.25 l 1
 323.5 418.75 l 2
 341.849609375 470.450195312 364.349609375 514.049804688 390.900390625 549.25 c 0
 403.450195312 565.950195312 410.799804688 573.900390625 430.5 592 c 0
 469.549804688 627.900390625 483.650390625 648.599609375 479.049804688 663.299804688 c 0
 478.450195312 665.200195312 477.349609375 667.549804688 476.599609375 668.549804688 c 0
 474.049804688 671.950195312 468.849609375 678.25 468.549804688 678.400390625 c 0
 468.400390625 678.450195312 430.099609375 640.299804688 383.5 593.650390625 c 0
 336.900390625 546.950195312 233.849609375 443.799804688 154.549804688 364.400390625 c 2
 10.2998046875 220 l 1
 5.150390625 220 l 1
 0 220 l 1
 0 224.799804688 l 1
 0 229.599609375 l 1
 231.099609375 461.049804688 l 1
 462.25 692.549804688 l 1
 462.549804688 703.900390625 l 2
 462.799804688 713.5 463 715.75 463.849609375 718.5 c 0
 467.049804688 728.400390625 470.799804688 735.349609375 476.650390625 742.150390625 c 0
 482.400390625 748.849609375 492.049804688 754.900390625 500.25 757 c 0
 506.75 758.700195312 518.5 758.200195312 524.25 756 c 0
 525.349609375 755.599609375 527.25 757.349609375 547.349609375 777.75 c 2
517.049804688 727.75 m 0
 515.799804688 727.799804688 513.299804688 728 511.5 728.150390625 c 0
 509.700195312 728.299804688 507.25 728.25 506 728 c 0
 499.799804688 726.700195312 493.349609375 721.599609375 490.5 715.849609375 c 0
 489.099609375 712.849609375 489 712.5 488.950195312 705.200195312 c 0
 488.849609375 697.799804688 488.900390625 697.599609375 490.25 695.049804688 c 0
 494.5 687.25 504.799804688 682.049804688 513.299804688 683.450195312 c 0
 527.200195312 685.700195312 535.799804688 698.099609375 532.799804688 711.599609375 c 0
 531.849609375 715.849609375 530.049804688 719 526.599609375 722.400390625 c 0
 523.349609375 725.650390625 519.900390625 727.599609375 517.049804688 727.75 c 0
517.849609375 611.400390625 m 0
 508.5 613.400390625 501.799804688 612.200195312 491 606.700195312 c 0
 478.299804688 600.25 465.349609375 590 450.5 574.700195312 c 0
 425.049804688 548.5 398.650390625 512.049804688 377.650390625 474 c 0
 372.5 464.650390625 370.799804688 461.299804688 371.450195312 461.75 c 0
 372.299804688 462.25 372.150390625 461.900390625 369.799804688 457.450195312 c 0
 367.049804688 452.299804688 360.5 438.349609375 357.049804688 430.299804688 c 0
 355.650390625 427 354.150390625 423.950195312 353.75 423.5 c 0
 352.200195312 421.75 345.599609375 403.099609375 339.799804688 383.950195312 c 0
 327.349609375 342.700195312 317.650390625 299.599609375 315.549804688 276 c 0
 314.75 267.349609375 314.700195312 264.950195312 315.25 265.200195312 c 0
 315.599609375 265.299804688 315.700195312 261.900390625 315.549804688 255.299804688 c 0
 315.450195312 249.799804688 315.400390625 243.099609375 315.400390625 240.5 c 0
 315.5 234.299804688 317.450195312 223.700195312 320 215.900390625 c 0
 324 203.75 332.549804688 188.599609375 341.400390625 178 c 0
 346.299804688 172.150390625 353.75 165 354.950195312 165 c 0
 355.450195312 165 357.349609375 164 359.150390625 162.799804688 c 0
 360.950195312 161.599609375 363.549804688 160 364.950195312 159.200195312 c 0
 366.349609375 158.450195312 367.5 157.549804688 367.5 157.25 c 0
 367.5 156.049804688 382.549804688 149.700195312 392.75 146.599609375 c 0
 413.049804688 140.400390625 447.650390625 134.200195312 464.5 133.75 c 0
 473.650390625 133.549804688 482.25 132.849609375 482.549804688 132.400390625 c 0
 483 131.700195312 535.599609375 131.799804688 546.450195312 132.5 c 0
 569.950195312 134 606.450195312 139.599609375 612.75 142.700195312 c 0
 614.150390625 143.400390625 618.650390625 144.900390625 622.75 146 c 0
 628.950195312 147.75 636.950195312 150.400390625 641.75 152.299804688 c 0
 642.650390625 152.650390625 642.650390625 152.599609375 642.049804688 151.849609375 c 0
 641.400390625 151.049804688 641.5 151.049804688 643.299804688 151.799804688 c 0
 647.200195312 153.400390625 655.349609375 157.450195312 658.75 159.549804688 c 0
 669.25 165.900390625 681.75 178.299804688 689.650390625 190.25 c 0
 693.349609375 195.799804688 699.099609375 207.450195312 698.799804688 208.650390625 c 0
 698.700195312 209.150390625 699 210.849609375 699.549804688 212.400390625 c 0
 701.049804688 216.75 702.900390625 224.25 703.75 229.75 c 0
 704.200195312 232.5 704.799804688 235 705.049804688 235.299804688 c 0
 705.950195312 236.400390625 706.599609375 248.5 706.299804688 257.75 c 0
 705.849609375 271.900390625 704.299804688 285.5 701.200195312 302.75 c 0
 698.450195312 317.849609375 692.700195312 342.700195312 692 342.25 c 0
 691.5 341.950195312 687.700195312 356.849609375 687.900390625 358.299804688 c 0
 688.200195312 360.599609375 677.099609375 397.75 671.900390625 412 c 0
 666.799804688 425.849609375 657.349609375 447.5 656.650390625 446.799804688 c 0
 656.299804688 446.450195312 650 459.25 650 460.400390625 c 0
 650 462.150390625 637.400390625 484.75 628.799804688 498.5 c 0
 619.700195312 513 604.700195312 534.650390625 604 534.25 c 0
 603.450195312 533.900390625 594.900390625 544.950195312 595.25 545.549804688 c 0
 596.150390625 546.950195312 571.950195312 573.900390625 560.5 584.299804688 c 0
 549.549804688 594.25 534.950195312 605.150390625 533.900390625 604.099609375 c 0
 533.650390625 603.849609375 531.349609375 604.75 528.75 606.099609375 c 0
 526.150390625 607.400390625 523.099609375 608.75 521.950195312 609.049804688 c 0
 520.799804688 609.400390625 520.049804688 609.900390625 520.200195312 610.25 c 0
 520.349609375 610.650390625 519.450195312 611.049804688 517.849609375 611.400390625 c 0
554.25 112.049804688 m 0
 547.700195312 112.549804688 486.400390625 113.099609375 479.75 112.700195312 c 0
 466.700195312 111.900390625 461.950195312 111.5 461.150390625 111.049804688 c 0
 460.650390625 110.75 456.200195312 110.200195312 451.25 109.75 c 0
 446.299804688 109.299804688 441.5 108.849609375 440.549804688 108.650390625 c 0
 439.299804688 108.450195312 438.950195312 108.5 439.25 108.950195312 c 0
 439.5 109.400390625 439.150390625 109.5 437.900390625 109.299804688 c 0
 437 109.150390625 433.549804688 108.650390625 430.25 108.25 c 0
 395.650390625 103.75 369.25 95.5 358.75 85.900390625 c 0
 350.700195312 78.5498046875 342.5 64.849609375 342.5 58.7998046875 c 0
 342.5 51.25 350.799804688 45.099609375 366.400390625 41 c 0
 368.5 40.4501953125 370.400390625 40.2001953125 370.599609375 40.400390625 c 0
 370.849609375 40.650390625 373.799804688 40.349609375 377.150390625 39.7001953125 c 0
 380.5 39.099609375 384.299804688 38.4501953125 385.650390625 38.2998046875 c 0
 386.950195312 38.099609375 387.900390625 37.75 387.75 37.5498046875 c 0
 387.150390625 36.5498046875 421.349609375 33.7001953125 448.25 32.5 c 0
 467.450195312 31.650390625 501.200195312 31.0498046875 501.75 31.5498046875 c 0
 502.400390625 32.2001953125 522.150390625 32.150390625 521.75 31.5 c 0
 521.450195312 31 533.900390625 31.150390625 562.5 32.0498046875 c 0
 606.049804688 33.349609375 645.650390625 37.5498046875 651.5 41.400390625 c 0
 652.200195312 41.849609375 654.799804688 43.0498046875 657.299804688 44 c 0
 663.5 46.5 667.049804688 48.599609375 670.75 52.0498046875 c 0
 675 56.0498046875 676.200195312 58.849609375 675.75 63.7001953125 c 0
 675.299804688 67.7998046875 673.5 71.900390625 669.700195312 77 c 0
 666.799804688 81 661 87.0498046875 658 89.25 c 0
 652.150390625 93.5498046875 639.049804688 98.7001953125 625 102.150390625 c 0
 615.5 104.549804688 598.75 107.599609375 597.25 107.200195312 c 0
 595.849609375 106.849609375 579.849609375 108.900390625 579.5 109.5 c 0
 579.25 109.849609375 569.599609375 110.849609375 554.25 112.049804688 c 0
527.25 7.5 m 0
 516.900390625 8.25 498.5 8.150390625 497.400390625 7.2998046875 c 0
 496.849609375 6.900390625 494.299804688 6.5 491.150390625 6.2998046875 c 0
 488.150390625 6.099609375 483.450195312 5.650390625 480.650390625 5.25 c 0
 477.799804688 4.849609375 475.200195312 4.650390625 474.799804688 4.7998046875 c 0
 473 5.5 457.950195312 1.4501953125 449.5 -2 c 0
 439.950195312 -5.849609375 433 -10.5 428.799804688 -15.7998046875 c 0
 427.599609375 -17.349609375 425.299804688 -21 423.700195312 -23.9501953125 c 0
 418.049804688 -34.400390625 410.299804688 -40.25 396.049804688 -45 c 0
 385.650390625 -48.4501953125 373.349609375 -50.75 357.5 -52.2001953125 c 0
 346.5 -53.2001953125 340.5 -53.4501953125 316.299804688 -54 c 0
 303 -54.2998046875 295.650390625 -54.650390625 295.25 -55 c 0
 294.849609375 -55.2998046875 290.700195312 -55.75 285.900390625 -56 c 0
 274.400390625 -56.650390625 273.849609375 -56.599609375 274.299804688 -55.9501953125 c 0
 274.950195312 -54.849609375 257.150390625 -56.5498046875 242.25 -59 c 0
 206.299804688 -64.9501953125 189.349609375 -76.099609375 193.75 -90.900390625 c 0
 195.299804688 -96.150390625 201.049804688 -103.200195312 205.650390625 -105.549804688 c 0
 208.5 -107.049804688 218.900390625 -109.650390625 220.599609375 -109.299804688 c 0
 221.400390625 -109.150390625 223.549804688 -109.349609375 225.400390625 -109.700195312 c 0
 227.25 -110.099609375 230.799804688 -110.700195312 233.25 -111.049804688 c 0
 235.75 -111.400390625 237.849609375 -111.849609375 238 -112.049804688 c 0
 238.349609375 -112.549804688 249.25 -113.75 262 -114.700195312 c 0
 281.299804688 -116.200195312 297.25 -116.650390625 319.25 -116.299804688 c 0
 343 -115.950195312 354.5 -115.349609375 356.150390625 -114.299804688 c 0
 356.75 -113.900390625 359.349609375 -113.450195312 361.900390625 -113.299804688 c 0
 365.849609375 -113 374.5 -111.650390625 378.400390625 -110.75 c 0
 379.200195312 -110.549804688 379.450195312 -110.650390625 379.25 -111 c 0
 378.849609375 -111.599609375 378.650390625 -111.650390625 387.5 -109.549804688 c 0
 399.599609375 -106.700195312 410.549804688 -102.549804688 419.650390625 -97.4501953125 c 0
 430.75 -91.2001953125 436.099609375 -86.7998046875 452 -70.650390625 c 0
 459 -63.5498046875 467.099609375 -55.849609375 470 -53.5498046875 c 0
 480.799804688 -44.849609375 490.5 -39.4501953125 499.5 -37.150390625 c 0
 503.799804688 -36.0498046875 505 -35.9501953125 511.75 -36.150390625 c 0
 519.599609375 -36.400390625 522.25 -36.9501953125 529.25 -39.849609375 c 0
 535.549804688 -42.4501953125 545.049804688 -48.7001953125 553 -55.400390625 c 0
 559.25 -60.7001953125 564.099609375 -65.25 564.450195312 -66.099609375 c 0
 564.599609375 -66.599609375 570.599609375 -72.599609375 577.700195312 -79.5 c 0
 593.75 -95.0498046875 599.650390625 -99.25 613.349609375 -104.75 c 0
 621.400390625 -108 637.950195312 -112.049804688 639.200195312 -111.049804688 c 0
 639.5 -110.799804688 642.400390625 -110.900390625 646 -111.299804688 c 0
 649.450195312 -111.650390625 653.549804688 -111.950195312 655.150390625 -112 c 0
 656.75 -112 657.950195312 -112.200195312 657.799804688 -112.450195312 c 0
 657.25 -113.349609375 674.450195312 -113.650390625 693.25 -113.099609375 c 0
 713.5 -112.450195312 719.799804688 -112.049804688 736 -110.450195312 c 0
 760.099609375 -108.049804688 788.099609375 -102.849609375 792.049804688 -100 c 0
 792.75 -99.5 795.650390625 -98.150390625 798.5 -97 c 0
 811.049804688 -91.7998046875 815.349609375 -87.7001953125 813.299804688 -82.75 c 0
 812.900390625 -81.7998046875 812.650390625 -80.650390625 812.799804688 -80.2998046875 c 0
 812.950195312 -79.849609375 812.049804688 -78.7998046875 810.450195312 -77.5 c 0
 800.700195312 -69.7998046875 778.349609375 -64 744.25 -60.2998046875 c 0
 732.900390625 -59.0498046875 713.099609375 -57.5 712.400390625 -57.75 c 0
 711.75 -58 698.349609375 -56.5498046875 691.75 -55.5 c 0
 690.099609375 -55.25 685.400390625 -54.599609375 681.25 -54 c 0
 646.650390625 -49.2001953125 619.900390625 -40.5498046875 605 -29.400390625 c 0
 600.75 -26.2001953125 592.900390625 -17.5 593.549804688 -16.7001953125 c 0
 594.099609375 -16 590.099609375 -12.099609375 585.75 -9.150390625 c 0
 573.150390625 -0.650390625 550.75 5.75 527.25 7.5 c 0
360.75 2.849609375 m 0
 358.549804688 4.5498046875 356.650390625 6 356.5 6 c 0
 356.349609375 6 347.450195312 -2.7998046875 336.75 -13.5498046875 c 2
 317.25 -33.099609375 l 1
 322.25 -32.7998046875 l 2
 325 -32.650390625 344.900390625 -32.5 366.400390625 -32.5 c 0
 389.450195312 -32.5 405.5 -32.2998046875 405.400390625 -32.0498046875 c 0
 405.349609375 -31.7998046875 396.150390625 -24.5498046875 385 -15.9501953125 c 0
 373.849609375 -7.349609375 362.950195312 1.099609375 360.75 2.849609375 c 0
504.900390625 466 m 0
 508.799804688 466.75 517.5 466.150390625 520.549804688 465 c 0
 523.650390625 463.849609375 527.799804688 460.849609375 528.950195312 458.950195312 c 0
 529.400390625 458.25 530.799804688 456.099609375 532.099609375 454.200195312 c 0
 538.5 444.599609375 540.5 435.900390625 541.75 412.150390625 c 0
 542.650390625 394.349609375 543.799804688 388.049804688 547.599609375 380.200195312 c 0
 550.299804688 374.650390625 555.599609375 368.900390625 558.200195312 368.75 c 0
 558.75 368.700195312 560.400390625 368.150390625 561.75 367.549804688 c 0
 564.349609375 366.349609375 571 364.5 572.599609375 364.5 c 0
 573.099609375 364.5 573.5 364.150390625 573.5 363.75 c 0
 573.5 363.299804688 573.950195312 363 574.650390625 363 c 0
 579.099609375 363 591.099609375 361.799804688 595.200195312 360.950195312 c 0
 604.099609375 359.150390625 611 355.549804688 616.75 349.799804688 c 0
 626.200195312 340.25 627.450195312 327 619.849609375 316.349609375 c 0
 618.599609375 314.599609375 616.700195312 312.400390625 615.650390625 311.5 c 0
 612.650390625 308.849609375 606.700195312 305.150390625 603.599609375 304 c 0
 596.950195312 301.5 594.150390625 301 576.549804688 299.450195312 c 0
 565.049804688 298.450195312 559.400390625 296.25 553.599609375 290.5 c 0
 545.450195312 282.5 542.950195312 274 541.75 250.450195312 c 0
 541.349609375 242.849609375 540.650390625 234.200195312 540.200195312 231.200195312 c 0
 537.200195312 211.099609375 527.799804688 198.299804688 514.5 196.400390625 c 0
 497.549804688 193.900390625 484.950195312 206.049804688 481.049804688 228.650390625 c 0
 479.799804688 235.650390625 479.599609375 237.799804688 479 250.5 c 0
 478.299804688 264.599609375 478 267.450195312 477.25 267.200195312 c 0
 476.849609375 267.049804688 476.400390625 268.349609375 475.799804688 271.299804688 c 0
 475.349609375 273.700195312 474.5 276.900390625 473.950195312 278.450195312 c 0
 473.349609375 280 472.849609375 281.849609375 472.799804688 282.599609375 c 0
 472.650390625 284.150390625 470.799804688 287.099609375 468.200195312 290 c 0
 464.349609375 294.25 456.950195312 297.849609375 449.75 298.950195312 c 0
 447.849609375 299.200195312 442.75 299.700195312 438.5 300 c 0
 421.650390625 301.150390625 413.75 303.950195312 405.549804688 311.75 c 0
 400.900390625 316.200195312 398.5 319.549804688 397.25 323.400390625 c 0
 396.75 324.849609375 396.200195312 326 396 326 c 0
 395.25 326 394.900390625 331.799804688 395.450195312 334.799804688 c 0
 395.75 336.400390625 396.900390625 339.650390625 398.049804688 341.950195312 c 0
 399.700195312 345.299804688 401 347 404.450195312 350.450195312 c 0
 406.849609375 352.799804688 410.25 355.599609375 412 356.650390625 c 0
 418.150390625 360.25 427.849609375 362.5 437 362.5 c 0
 451.299804688 362.5 460.950195312 365.549804688 467.599609375 372.25 c 0
 474.049804688 378.700195312 477.400390625 387.900390625 478.450195312 402.049804688 c 0
 478.75 406.200195312 478.75 408.349609375 478.400390625 408.549804688 c 0
 478.049804688 408.799804688 478.150390625 411.799804688 478.75 417.799804688 c 0
 480.799804688 439.400390625 484.849609375 451.450195312 492.75 459.25 c 0
 496.150390625 462.549804688 501.049804688 465.299804688 504.900390625 466 c 0
515.950195312 432.5 m 0
 515.599609375 438.700195312 515.099609375 444.349609375 514.75 445.099609375 c 2
 514.200195312 446.450195312 l 1
 513.349609375 444.099609375 l 2
 512.900390625 442.799804688 510.900390625 431.5 508.950195312 419 c 0
 504.650390625 391.200195312 503.549804688 385.599609375 500.75 377.150390625 c 0
 497.049804688 366.049804688 493.400390625 359.450195312 487.549804688 353.299804688 c 0
 480.349609375 345.799804688 471.349609375 341.5 459.200195312 339.799804688 c 0
 456.200195312 339.349609375 447.349609375 338.549804688 439.5 338 c 0
 424.849609375 336.950195312 419.200195312 336.25 418.700195312 335.450195312 c 0
 418.049804688 334.349609375 422.150390625 333.299804688 449.75 327.450195312 c 0
 456.349609375 326.099609375 463.400390625 324.400390625 465.400390625 323.700195312 c 0
 470.099609375 322.150390625 476.450195312 318.950195312 480.25 316.25 c 0
 483.700195312 313.799804688 489.200195312 308.25 491.25 305.150390625 c 0
 492 303.950195312 492.799804688 303 493.049804688 303 c 0
 493.650390625 303 497.25 295.299804688 498.200195312 292 c 0
 500.75 283.099609375 502.150390625 273.599609375 503.25 257.5 c 0
 504.150390625 243.950195312 506 212 506 209.549804688 c 0
 506 208.599609375 506.099609375 207.950195312 506.200195312 208.049804688 c 0
 506.349609375 208.150390625 508.5 221.450195312 510.950195312 237.549804688 c 0
 516.150390625 271.200195312 517.349609375 277.5 520.049804688 285.650390625 c 0
 526.950195312 306.799804688 538.900390625 318.25 558 322.200195312 c 0
 560.049804688 322.599609375 569.200195312 323.549804688 578.25 324.25 c 0
 599.400390625 325.900390625 603.650390625 326.5 602.400390625 327.799804688 c 0
 601.799804688 328.349609375 592.75 330.5 580.5 333.049804688 c 0
 560.25 337.150390625 549.799804688 340.099609375 544.049804688 343.349609375 c 0
 540.200195312 345.5 533.150390625 352.299804688 530.150390625 356.75 c 0
 524.049804688 365.849609375 520.25 376.799804688 518.75 389.799804688 c 0
 518.049804688 396.099609375 517.150390625 409.700195312 515.950195312 432.5 c 0
918.700195312 -111.099609375 m 2
 988.099609375 -40 l 1
 994.049804688 -40 l 1
 1000 -40 l 1
 1000 -44.150390625 l 1
 1000 -48.2998046875 l 1
 925.950195312 -124.150390625 l 1
 851.900390625 -200 l 1
 841.849609375 -200 l 1
 831.849609375 -200 l 1
 840.549804688 -191.099609375 l 2
 845.349609375 -186.25 880.5 -150.25 918.700195312 -111.099609375 c 2
EndSplineSet
EndChar

StartChar: b
Encoding: 98 98 9
Width: 1000
Flags: H
LayerCount: 2
Fore
SplineSet
505.049804688 758 m 0
 509.349609375 758.599609375 516.349609375 758.099609375 520.950195312 756.950195312 c 0
 543.200195312 751.299804688 559.950195312 726.650390625 558.849609375 701.25 c 0
 558.349609375 689.950195312 554.799804688 681.099609375 547.25 672.299804688 c 0
 542.150390625 666.349609375 540.900390625 663.549804688 540.900390625 658 c 0
 540.950195312 653.400390625 541.900390625 649.650390625 544.450195312 644.349609375 c 0
 550.900390625 630.849609375 565.299804688 614.549804688 591.849609375 590.650390625 c 0
 608.049804688 576 618.599609375 564.599609375 630.549804688 548.650390625 c 0
 673.099609375 492.099609375 708.349609375 405.400390625 722.700195312 322 c 0
 724.700195312 310.599609375 726.549804688 296.75 727.849609375 283.5 c 0
 728.950195312 272.349609375 729.099609375 236.099609375 728.099609375 226.75 c 0
 725.25 200.75 719.549804688 181.900390625 710.150390625 167.849609375 c 0
 706.700195312 162.650390625 703.25 158.950195312 693.5 149.950195312 c 0
 687.099609375 144.049804688 683.25 138.950195312 681.150390625 133.650390625 c 0
 679.900390625 130.599609375 679.799804688 129.599609375 679.799804688 124.25 c 0
 679.799804688 119.099609375 680 117.650390625 681.200195312 114 c 0
 683.200195312 107.950195312 687.099609375 100 692.75 90.5 c 0
 701.599609375 75.599609375 705.049804688 67.7998046875 706 60.349609375 c 0
 707.700195312 46.7001953125 700 35.150390625 676.700195312 16.4501953125 c 0
 673.450195312 13.849609375 658.200195312 2.150390625 642.799804688 -9.5498046875 c 2
 614.849609375 -30.75 l 1
 620.799804688 -31.099609375 l 2
 624.099609375 -31.349609375 650.849609375 -32.849609375 680.25 -34.5 c 0
 759.650390625 -38.9501953125 771.75 -39.7998046875 791.5 -42.5498046875 c 0
 824.599609375 -47.0498046875 837.799804688 -54.349609375 842.349609375 -70.5 c 0
 843.650390625 -75.25 843.650390625 -95.2001953125 842.349609375 -100 c 0
 840.450195312 -107 836.75 -112.549804688 831.75 -116 c 0
 817.849609375 -125.549804688 792.299804688 -129.650390625 724 -133.25 c 0
 636.799804688 -137.849609375 604.150390625 -133.599609375 574.150390625 -113.700195312 c 0
 566.599609375 -108.700195312 559.599609375 -102.900390625 548.5 -92.4501953125 c 0
 543.400390625 -87.7001953125 532 -76.9501953125 523.150390625 -68.650390625 c 2
 507.049804688 -53.5 l 1
 486.599609375 -76.099609375 l 2
 465.349609375 -99.5498046875 462.75 -102.099609375 454.099609375 -107.450195312 c 0
 429.099609375 -122.900390625 384.099609375 -134.450195312 332.25 -138.700195312 c 0
 275.5 -143.400390625 222.799804688 -138.25 194.849609375 -125.349609375 c 0
 187 -121.700195312 179.950195312 -116.25 176.700195312 -111.200195312 c 0
 174.849609375 -108.299804688 172.200195312 -100.950195312 170.450195312 -94 c 0
 168.799804688 -87.2001953125 168.75 -75.349609375 170.349609375 -70.25 c 0
 174.450195312 -57.400390625 186.349609375 -48 205.900390625 -42.2998046875 c 0
 217.25 -38.9501953125 229.049804688 -36.7998046875 244.5 -35.2998046875 c 0
 264.849609375 -33.2998046875 275.150390625 -33 351.150390625 -32.5498046875 c 2
 406.099609375 -32.25 l 1
 392.150390625 -21.5 l 2
 362.549804688 1.2998046875 346.549804688 13.849609375 341.25 18.2998046875 c 0
 326.299804688 30.7998046875 319.25 39.150390625 315.950195312 48.2998046875 c 0
 314.349609375 52.599609375 314.349609375 60.2998046875 315.950195312 65.7998046875 c 0
 317.400390625 70.9501953125 321.599609375 79.650390625 327.200195312 89 c 0
 333 98.650390625 338.150390625 109.25 339.799804688 114.75 c 0
 341.599609375 120.900390625 341.700195312 127.75 340.049804688 132.599609375 c 0
 338.25 137.950195312 334.549804688 143.099609375 328.349609375 149 c 0
 316.299804688 160.450195312 313.599609375 163.299804688 310.5 168 c 0
 292.599609375 195.25 287.200195312 243.200195312 295.299804688 303.5 c 0
 307.049804688 391.599609375 344.349609375 487.75 390.450195312 548.849609375 c 0
 403.75 566.5 411.950195312 575.349609375 430.25 591.75 c 0
 459.549804688 618.049804688 475.650390625 637.799804688 479.25 652 c 0
 481.099609375 659.200195312 479.549804688 665.75 474.799804688 670.950195312 c 0
 469.049804688 677.25 465.900390625 682.599609375 463.700195312 689.75 c 0
 462.400390625 694 462.299804688 694.799804688 462.299804688 703.5 c 0
 462.299804688 711.950195312 462.400390625 713.200195312 463.650390625 717.650390625 c 0
 469.549804688 739.450195312 485.799804688 755.349609375 505.049804688 758 c 0
514.549804688 729 m 0
 504.25 730.900390625 494.200195312 725.75 489.599609375 716.150390625 c 0
 487.799804688 712.299804688 487.75 712.150390625 487.75 706.25 c 0
 487.75 700.400390625 487.799804688 700.150390625 489.549804688 696.450195312 c 0
 496.450195312 682 514.849609375 678.700195312 526.450195312 689.75 c 0
 532.450195312 695.450195312 534.849609375 704.049804688 532.75 712.150390625 c 0
 531.700195312 716.25 530.400390625 718.5 527.200195312 721.950195312 c 0
 524.049804688 725.400390625 519.049804688 728.150390625 514.549804688 729 c 0
520.5 610.75 m 0
 517.599609375 611.650390625 514.849609375 612.150390625 511.75 612.25 c 0
 506.849609375 612.450195312 506.450195312 612.400390625 501.150390625 611 c 0
 491.849609375 608.5 478.150390625 600.099609375 465.900390625 589.450195312 c 0
 423.299804688 552.200195312 376.349609375 482.25 351.650390625 419.25 c 0
 340.799804688 391.599609375 325 334.099609375 319.049804688 300.75 c 0
 315.349609375 280.099609375 314.25 267.599609375 314.650390625 251.049804688 c 0
 315 234.849609375 316.849609375 224.150390625 321.25 212.200195312 c 0
 328.450195312 192.700195312 344.049804688 171.549804688 358.099609375 162.200195312 c 0
 381.549804688 146.599609375 419.75 136.950195312 476.25 132.400390625 c 0
 488.849609375 131.400390625 536.400390625 131.549804688 549.75 132.650390625 c 0
 601.200195312 136.950195312 639.650390625 146.799804688 661.849609375 161.450195312 c 0
 671.150390625 167.599609375 682.5 179.299804688 689.5 189.900390625 c 0
 713.950195312 226.849609375 712.150390625 276.299804688 682.700195312 378.25 c 0
 673.75 409.25 667.049804688 426.75 654.25 452.75 c 0
 644.349609375 472.799804688 634.200195312 490.599609375 622.150390625 508.950195312 c 0
 586.349609375 563.450195312 547.700195312 602.150390625 520.5 610.75 c 0
545.25 112.5 m 0
 530.950195312 113.200195312 503.349609375 113.450195312 489.150390625 113 c 0
 441.950195312 111.450195312 400.650390625 105.299804688 377.450195312 96.349609375 c 0
 364 91.150390625 358.799804688 87.4501953125 351.900390625 78.25 c 0
 343.5 67.099609375 340.900390625 59.7001953125 343.450195312 54.25 c 0
 346 48.75 354.849609375 43.7001953125 367.150390625 40.75 c 0
 416 28.900390625 585.150390625 27.7001953125 642.599609375 38.7998046875 c 0
 650.950195312 40.400390625 655.450195312 41.900390625 662.799804688 45.5 c 0
 675.400390625 51.650390625 679.099609375 58.150390625 675.299804688 67.4501953125 c 0
 671.700195312 76.2998046875 662.099609375 87.400390625 654.5 91.599609375 c 0
 634.5 102.549804688 595.900390625 109.900390625 545.25 112.5 c 0
523.200195312 7.75 m 0
 509.599609375 8.2998046875 507.5 8.349609375 499.5 7.9501953125 c 0
 473.349609375 6.7001953125 449.900390625 0.5498046875 436.75 -8.5 c 0
 430.700195312 -12.7001953125 427.150390625 -16.900390625 423.799804688 -23.7001953125 c 0
 421.349609375 -28.650390625 420.400390625 -30.099609375 417.299804688 -33.150390625 c 0
 406.150390625 -44.150390625 385.450195312 -50.25 350 -53 c 0
 346.299804688 -53.2998046875 331 -53.75 316 -54 c 0
 289.799804688 -54.4501953125 277.049804688 -54.9501953125 265.25 -56.0498046875 c 0
 208.650390625 -61.099609375 183.25 -75.9501953125 196.349609375 -96.400390625 c 0
 198.849609375 -100.349609375 202.400390625 -103.950195312 205.150390625 -105.349609375 c 0
 214.650390625 -110.150390625 245.549804688 -114.349609375 283.450195312 -116.049804688 c 0
 300.799804688 -116.799804688 339.049804688 -116.400390625 351 -115.299804688 c 0
 386.049804688 -112.099609375 408.5 -105.450195312 427.599609375 -92.650390625 c 0
 434.75 -87.900390625 442.299804688 -81.150390625 450.5 -72.25 c 0
 469.099609375 -52.0498046875 484.450195312 -41.0498046875 499.849609375 -36.9501953125 c 0
 505.349609375 -35.4501953125 514.650390625 -35.400390625 520.5 -36.849609375 c 0
 530.25 -39.2998046875 539.049804688 -44.150390625 551 -53.650390625 c 0
 553.049804688 -55.2998046875 562.049804688 -64 571 -73 c 0
 580.049804688 -82.099609375 589.049804688 -90.7001953125 591.349609375 -92.4501953125 c 0
 606.200195312 -103.549804688 621.799804688 -109.400390625 644.5 -112.299804688 c 0
 648.900390625 -112.849609375 656.650390625 -113.150390625 670.75 -113.349609375 c 0
 716.650390625 -113.900390625 764.049804688 -108.950195312 791.25 -100.75 c 0
 809 -95.349609375 817.700195312 -88.150390625 814.25 -81.5498046875 c 0
 813.049804688 -79.2001953125 808.75 -75.7001953125 804.400390625 -73.599609375 c 0
 788.75 -66.0498046875 762 -61.150390625 718.75 -58 c 0
 673.950195312 -54.75 640.299804688 -47.849609375 618.849609375 -37.599609375 c 0
 607.599609375 -32.25 602.349609375 -28.150390625 597.849609375 -21.349609375 c 0
 592.950195312 -13.9501953125 586.799804688 -8.849609375 577 -4.150390625 c 0
 563.849609375 2.150390625 542.200195312 6.9501953125 523.200195312 7.75 c 0
502.900390625 465.549804688 m 0
 506.150390625 466.549804688 512.900390625 466.799804688 516.5 465.950195312 c 0
 524.400390625 464.150390625 530.700195312 458.349609375 535.349609375 448.650390625 c 0
 539.450195312 440.049804688 541.200195312 430.150390625 541.700195312 412.75 c 0
 542.049804688 400.950195312 542.650390625 395.450195312 544.299804688 389 c 0
 546.700195312 379.599609375 551.200195312 372.599609375 557.700195312 368.450195312 c 0
 563.599609375 364.599609375 569.650390625 363.150390625 582.75 362.5 c 0
 596.25 361.799804688 604.349609375 359.400390625 612.299804688 353.75 c 0
 629.099609375 341.75 629.099609375 320.75 612.25 308.75 c 0
 604.400390625 303.150390625 596.150390625 300.700195312 582.75 300 c 0
 566.25 299.150390625 560 297.099609375 553.150390625 290.25 c 0
 548.849609375 285.950195312 546.150390625 280.900390625 544.299804688 273.5 c 0
 542.650390625 267.049804688 542.049804688 261.549804688 541.700195312 249.75 c 0
 541.200195312 232.349609375 539.450195312 222.450195312 535.349609375 213.849609375 c 0
 531.599609375 205.950195312 527.5 201.400390625 521.549804688 198.450195312 c 0
 517.849609375 196.599609375 515.150390625 196.049804688 510.200195312 196 c 0
 494.450195312 195.950195312 483.700195312 209 480.25 232.25 c 0
 479.849609375 235 479.299804688 243.099609375 479.049804688 250.25 c 0
 478.5 264.450195312 477.700195312 270.299804688 475.450195312 277.25 c 0
 472.200195312 287 466.900390625 293.049804688 458.599609375 296.5 c 0
 453.700195312 298.599609375 448.349609375 299.5 438.5 300 c 0
 426.25 300.599609375 421.049804688 301.849609375 412.900390625 306.099609375 c 0
 409.75 307.700195312 407.700195312 309.25 404.5 312.5 c 0
 398.299804688 318.650390625 396 323.75 396 331.25 c 0
 396 338.75 398.299804688 343.849609375 404.5 350 c 0
 407.700195312 353.25 409.75 354.799804688 412.900390625 356.450195312 c 0
 420.799804688 360.5 428.900390625 362.5 437.75 362.5 c 0
 451.450195312 362.5 461 365.549804688 467.450195312 371.900390625 c 0
 471.450195312 375.849609375 473.400390625 379.150390625 475.450195312 385.25 c 0
 477.700195312 392.200195312 478.5 398.049804688 479.049804688 412.25 c 0
 479.299804688 419.400390625 479.849609375 427.5 480.25 430.25 c 0
 483.099609375 449.599609375 490.900390625 461.700195312 502.900390625 465.549804688 c 0
516.200195312 427.75 m 0
 515.450195312 441.799804688 514.700195312 453.400390625 514.549804688 453.599609375 c 0
 514.349609375 453.799804688 512.25 440.75 509.799804688 424.599609375 c 0
 504.75 391.049804688 503.75 385.75 500.75 376.75 c 0
 493.25 353.849609375 480.549804688 342.650390625 458.5 339.549804688 c 0
 456.450195312 339.25 449.349609375 338.650390625 442.75 338.25 c 0
 424.5 337.099609375 418.700195312 336.349609375 418.400390625 335.25 c 0
 418.099609375 334.299804688 423.5 332.900390625 441.450195312 329.25 c 0
 451.5 327.200195312 461.299804688 325.099609375 463.150390625 324.5 c 0
 487.099609375 317.099609375 498.950195312 300.950195312 502.25 271.299804688 c 0
 502.900390625 265.650390625 506 214.049804688 506 209.099609375 c 0
 506 208.150390625 506.099609375 207.450195312 506.25 207.549804688 c 0
 506.349609375 207.700195312 508.400390625 220.5 510.75 236.049804688 c 0
 516.700195312 275.25 517.150390625 277.599609375 520.75 287.950195312 c 0
 527.599609375 307.5 539.25 318.299804688 557.75 322.200195312 c 0
 561.5 323 567.150390625 323.5 584.75 324.75 c 0
 600.349609375 325.849609375 604.599609375 326.599609375 602.150390625 327.900390625 c 0
 600.450195312 328.799804688 591.700195312 330.849609375 577 333.75 c 0
 554.049804688 338.25 546.049804688 341.299804688 537.049804688 348.900390625 c 0
 528.349609375 356.299804688 521.75 369.849609375 519.299804688 385.299804688 c 0
 518.200195312 392.299804688 517.75 398.849609375 516.200195312 427.75 c 0
EndSplineSet
EndChar

StartChar: f
Encoding: 102 102 10
Width: 1000
Flags: H
LayerCount: 2
Fore
SplineSet
253 716.200195312 m 0
 254.5 716.299804688 268.150390625 716.299804688 283.25 716.25 c 0
 304.950195312 716.150390625 312.049804688 715.950195312 316.950195312 715.299804688 c 0
 337.549804688 712.650390625 346.25 707.450195312 350.650390625 695.150390625 c 0
 352.849609375 689.150390625 353.5 683.75 354.049804688 668.25 c 0
 354.700195312 648.849609375 355.950195312 641 359.950195312 631.450195312 c 0
 365.900390625 617.349609375 378.299804688 610.150390625 391.400390625 613.25 c 0
 396.099609375 614.349609375 399.400390625 616.25 403.299804688 620.200195312 c 0
 407.599609375 624.5 410.400390625 629.349609375 412.700195312 636.5 c 0
 415.299804688 644.549804688 416 649.700195312 416.5 665 c 0
 417.200195312 685.75 418.150390625 691.799804688 421.599609375 698.650390625 c 0
 423.400390625 702.25 427.700195312 706.650390625 431.25 708.599609375 c 0
 439.299804688 712.900390625 450.700195312 714.950195312 472.5 716.049804688 c 0
 486.299804688 716.700195312 549.799804688 716.349609375 558.75 715.549804688 c 0
 589.25 712.799804688 599.349609375 706.400390625 602.75 687.849609375 c 0
 603.200195312 685.400390625 603.700195312 677.75 604 668.799804688 c 0
 604.650390625 648.900390625 605.900390625 641.049804688 609.950195312 631.450195312 c 0
 615.900390625 617.349609375 628.299804688 610.150390625 641.400390625 613.25 c 0
 646.099609375 614.349609375 649.400390625 616.25 653.299804688 620.200195312 c 0
 657.599609375 624.5 660.400390625 629.349609375 662.700195312 636.5 c 0
 665.25 644.349609375 666 649.75 666.5 664 c 0
 667.049804688 679.950195312 667.349609375 683 668.549804688 689.25 c 0
 671.650390625 704.799804688 680.5 711.950195312 700 714.700195312 c 0
 709.900390625 716.099609375 719.049804688 716.5 741.25 716.5 c 0
 769.650390625 716.5 781 715.650390625 789.75 712.950195312 c 0
 802.75 708.950195312 808.75 700.75 811 683.75 c 0
 812.450195312 672.799804688 812.950195312 644.799804688 812 629.75 c 0
 809.700195312 593.650390625 800.799804688 564.799804688 790.400390625 559.799804688 c 0
 774.299804688 552.049804688 698.400390625 546.650390625 575.25 544.450195312 c 0
 538.650390625 543.799804688 418.299804688 544.099609375 389.5 544.950195312 c 0
 296.75 547.599609375 245 551.799804688 230.950195312 557.700195312 c 0
 221.900390625 561.5 213.099609375 588.650390625 209.400390625 624 c 0
 208.349609375 633.950195312 208.549804688 675 209.650390625 682.75 c 0
 210.75 690.5 211.75 694.400390625 213.75 698.849609375 c 0
 218.849609375 710 229.349609375 714.650390625 253 716.200195312 c 0
274.299804688 527.650390625 m 2
 274.599609375 529 l 1
 512.25 529 l 1
 749.950195312 529 l 1
 750.150390625 448.650390625 l 2
 750.349609375 366.200195312 750.400390625 363.25 752.549804688 340 c 0
 757.549804688 284.25 770.75 235.599609375 799.900390625 165.5 c 0
 807.75 146.5 813.450195312 133.599609375 832.599609375 91 c 0
 851.900390625 48.099609375 860.650390625 28.150390625 868.75 8.75 c 0
 892.599609375 -48.5498046875 899.549804688 -78.25 893.950195312 -98.5 c 0
 887.950195312 -120.200195312 865.549804688 -130.650390625 816.25 -134.75 c 0
 787 -137.150390625 761.5 -137.5 599.549804688 -137.5 c 2
 456.900390625 -137.5 l 1
 457.200195312 -134.099609375 l 2
 458.099609375 -124.700195312 462.099609375 -61.9501953125 462.549804688 -50.099609375 c 0
 463.849609375 -18.5498046875 460.5 13 455.400390625 18.099609375 c 0
 451.599609375 21.900390625 437.099609375 13.599609375 413.75 -5.7001953125 c 0
 400.049804688 -17.0498046875 391.150390625 -25.349609375 365.5 -50.75 c 0
 343.549804688 -72.4501953125 333.25 -81.9501953125 321 -91.7998046875 c 0
 275.25 -128.400390625 234.400390625 -143.200195312 198.849609375 -135.950195312 c 0
 191.349609375 -134.450195312 185.599609375 -132.400390625 177.75 -128.5 c 0
 170 -124.650390625 164.049804688 -120.549804688 157 -114.349609375 c 0
 138.150390625 -97.7998046875 119.549804688 -67.7001953125 111.349609375 -40.5 c 0
 102.099609375 -9.900390625 103.950195312 19.150390625 116.799804688 45 c 0
 121.099609375 53.650390625 124.549804688 58.849609375 132.049804688 68.25 c 0
 140.849609375 79.2001953125 145.650390625 87.099609375 155.200195312 106.450195312 c 0
 191.099609375 178.950195312 237.200195312 320.200195312 255.950195312 415 c 0
 259.099609375 431.049804688 259.099609375 431.049804688 267.25 483 c 0
 270.950195312 506.799804688 274.150390625 526.849609375 274.299804688 527.650390625 c 2
418 478.200195312 m 0
 405.75 481 395.25 478.25 387.25 470.25 c 0
 379.25 462.150390625 375.849609375 452.200195312 375 434.25 c 0
 374.650390625 427.75 374.200195312 423.549804688 373.549804688 420.900390625 c 0
 370.900390625 410.650390625 365.400390625 405.5 357.049804688 405.5 c 0
 352.150390625 405.5 348.400390625 406.5 342.75 409.200195312 c 0
 335.299804688 412.849609375 328.049804688 418.349609375 316.799804688 429 c 0
 307 438.25 301.5 441.950195312 297.599609375 442 c 0
 295.200195312 442 294.049804688 441.200195312 293 438.849609375 c 0
 290.200195312 432.349609375 291.950195312 423.700195312 298.200195312 413.099609375 c 0
 311.5 390.599609375 340.299804688 366.25 350.400390625 369 c 0
 352.849609375 369.650390625 353.950195312 371.25 354.299804688 374.650390625 c 0
 354.849609375 379.950195312 356.349609375 381.400390625 359.549804688 379.700195312 c 0
 363.549804688 377.650390625 368.450195312 372.200195312 375.049804688 362.400390625 c 0
 379.599609375 355.650390625 384.099609375 350.75 386.200195312 350.200195312 c 0
 388.349609375 349.650390625 389.950195312 350.75 391.25 353.650390625 c 0
 393.950195312 359.549804688 394.849609375 368.700195312 395.5 396 c 0
 396.200195312 425.299804688 397.950195312 439.099609375 402.549804688 451 c 0
 408.599609375 466.75 417.950195312 468.799804688 427.5 456.549804688 c 0
 434.299804688 447.849609375 441.400390625 430.549804688 446.200195312 410.950195312 c 0
 447.150390625 407 449.200195312 398.700195312 450.700195312 392.5 c 0
 455.400390625 373.299804688 459.349609375 363 463.849609375 358 c 0
 469 352.25 473.299804688 353.950195312 480.5 364.450195312 c 0
 484.950195312 371 490.299804688 374.950195312 497.099609375 376.700195312 c 0
 522.400390625 383.25 565.650390625 360.900390625 620.25 313.049804688 c 0
 631.900390625 302.849609375 645.400390625 289.950195312 663.5 271.799804688 c 0
 687.450195312 247.700195312 700.700195312 235.400390625 714.450195312 224.400390625 c 0
 733.650390625 209.049804688 746.450195312 202.799804688 747.75 208.150390625 c 0
 748.25 210 746 215.75 742.700195312 221.299804688 c 0
 731.5 240.150390625 701.900390625 275.150390625 671.75 305.25 c 0
 635.200195312 341.799804688 591.450195312 375 559.75 390.299804688 c 0
 551.650390625 394.200195312 548.299804688 395.450195312 538.25 398.25 c 0
 523.099609375 402.450195312 505.450195312 411 489.200195312 422.049804688 c 0
 476.049804688 431 464.700195312 441.099609375 455.5 452 c 0
 443.150390625 466.650390625 430.75 475.299804688 418 478.200195312 c 0
327.75 245.450195312 m 0
 312.75 249.099609375 298.650390625 240.650390625 295.549804688 226.099609375 c 0
 295.25 224.650390625 295 221.349609375 295 218.799804688 c 0
 295 201.900390625 307.75 183.450195312 323.349609375 177.700195312 c 0
 326.950195312 176.349609375 327.75 176.25 334.25 176.25 c 0
 340.599609375 176.299804688 341.549804688 176.400390625 344.599609375 177.599609375 c 0
 351.099609375 180.200195312 357.099609375 184.900390625 361.299804688 190.799804688 c 0
 364.25 194.900390625 365.099609375 197.450195312 365.049804688 202 c 0
 365.049804688 206.849609375 364.049804688 210.650390625 361.25 216.349609375 c 0
 354.599609375 229.900390625 340.150390625 242.400390625 327.75 245.450195312 c 0
734.650390625 157.849609375 m 0
 730.849609375 161.700195312 729.700195312 160.400390625 730.200195312 152.799804688 c 0
 731.349609375 134.200195312 742.950195312 94.25 762 43.5 c 0
 785.599609375 -19.4501953125 811.849609375 -75.400390625 823.099609375 -86.599609375 c 0
 826.150390625 -89.7001953125 827.700195312 -89.7998046875 828.849609375 -87.099609375 c 0
 829.5 -85.599609375 829.549804688 -84.0498046875 829.349609375 -79 c 0
 828.25 -56.349609375 808.950195312 3.5 783.5 63 c 0
 763.5 109.799804688 743.099609375 149.450195312 734.650390625 157.849609375 c 0
552.650390625 150.099609375 m 0
 551.599609375 151.25 549.150390625 151.25 547.25 150.099609375 c 0
 535.349609375 142.799804688 513.599609375 89.0498046875 505.049804688 45.75 c 0
 502.5 32.849609375 501.849609375 26.9501953125 501.799804688 17 c 0
 501.75 8.900390625 501.849609375 7.5498046875 502.650390625 6.349609375 c 0
 503.849609375 4.5498046875 505.099609375 4.650390625 507.450195312 6.7998046875 c 0
 512.950195312 11.75 522.25 30.5 531.5 55.2998046875 c 0
 548.700195312 101.299804688 558.200195312 143.950195312 552.650390625 150.099609375 c 0
492.299804688 132.799804688 m 0
 491.099609375 133.650390625 491.150390625 133.650390625 489.099609375 132.75 c 0
 486.799804688 131.75 482.049804688 127.099609375 477.549804688 121.5 c 0
 457.75 96.7998046875 437.900390625 51.7001953125 446.099609375 50.099609375 c 0
 453.299804688 48.7001953125 477.650390625 84.150390625 488.650390625 112 c 0
 492.900390625 122.75 494.400390625 131.25 492.299804688 132.799804688 c 0
241.150390625 24.099609375 m 0
 239.549804688 25.5498046875 237.400390625 25.75 235.950195312 24.5498046875 c 0
 234.150390625 23.150390625 232.049804688 18.25 230.950195312 12.849609375 c 0
 229.950195312 7.7998046875 229 -2.849609375 229 -9.599609375 c 0
 229 -27.9501953125 217.700195312 -57.349609375 203.549804688 -75.75 c 0
 202.299804688 -77.400390625 197.900390625 -82.25 193.799804688 -86.5 c 0
 177.150390625 -103.75 173.25 -109.5 175.650390625 -113.200195312 c 0
 177.200195312 -115.5 180.700195312 -116.25 190.799804688 -116.25 c 2
 199.799804688 -116.25 l 1
 204.049804688 -114.150390625 l 2
 215 -108.700195312 225.349609375 -94.75 233.200195312 -74.900390625 c 0
 238.400390625 -61.7001953125 242.299804688 -44.150390625 245.099609375 -21 c 0
 245.5 -17.849609375 245.75 -10.0498046875 245.75 -1.5 c 0
 245.75 10.349609375 245.599609375 13.2998046875 244.849609375 16.150390625 c 0
 243.900390625 20 242.549804688 22.849609375 241.150390625 24.099609375 c 0
182.349609375 18.5 m 0
 181.75 19.75 180.849609375 20.7998046875 180.400390625 20.900390625 c 0
 178.549804688 21.25 175.700195312 16.7998046875 172.450195312 8.650390625 c 0
 165.450195312 -9 151.5 -27.7998046875 138 -37.849609375 c 0
 132.599609375 -41.900390625 130.799804688 -43.650390625 130.049804688 -45.650390625 c 0
 129.299804688 -47.599609375 129.349609375 -47.7001953125 130.799804688 -49.4501953125 c 0
 132.549804688 -51.5498046875 137.200195312 -52.900390625 145.099609375 -53.5498046875 c 0
 163.25 -55.099609375 174.950195312 -49.7998046875 181 -37.2998046875 c 0
 185.099609375 -28.849609375 186.5 -18.2001953125 185.599609375 -2.5498046875 c 0
 184.900390625 8.7998046875 183.950195312 15.2998046875 182.349609375 18.5 c 0
EndSplineSet
EndChar

StartChar: d
Encoding: 100 100 11
Width: 1000
Flags: H
LayerCount: 2
Fore
SplineSet
250.25 716 m 0
 253.299804688 716.200195312 268.150390625 716.349609375 283.25 716.25 c 0
 304.849609375 716.150390625 312.099609375 715.900390625 316.950195312 715.299804688 c 0
 337.549804688 712.650390625 346.25 707.450195312 350.650390625 695.150390625 c 0
 352.849609375 689.150390625 353.5 683.75 354.049804688 668.25 c 0
 354.700195312 648.849609375 355.950195312 641 359.950195312 631.450195312 c 0
 365.900390625 617.349609375 378.299804688 610.150390625 391.400390625 613.25 c 0
 396.099609375 614.349609375 399.400390625 616.25 403.299804688 620.200195312 c 0
 407.599609375 624.5 410.400390625 629.349609375 412.700195312 636.5 c 0
 415.299804688 644.549804688 416 649.700195312 416.5 665 c 0
 417.200195312 685.75 418.150390625 691.799804688 421.599609375 698.650390625 c 0
 423.400390625 702.25 427.700195312 706.650390625 431.25 708.599609375 c 0
 439.299804688 712.900390625 450.700195312 714.950195312 472.5 716.049804688 c 0
 486.299804688 716.700195312 549.799804688 716.349609375 558.75 715.549804688 c 0
 589.25 712.799804688 599.349609375 706.400390625 602.75 687.849609375 c 0
 603.200195312 685.400390625 603.700195312 677.75 604 668.799804688 c 0
 604.650390625 648.900390625 605.900390625 641.049804688 609.950195312 631.450195312 c 0
 615.900390625 617.349609375 628.299804688 610.150390625 641.400390625 613.25 c 0
 646.099609375 614.349609375 649.400390625 616.25 653.299804688 620.200195312 c 0
 657.599609375 624.5 660.400390625 629.349609375 662.700195312 636.5 c 0
 665.25 644.349609375 666 649.75 666.5 664 c 0
 667.049804688 679.950195312 667.349609375 683 668.549804688 689.25 c 0
 672.200195312 707.650390625 682.799804688 713.950195312 713.650390625 716.049804688 c 0
 726.049804688 716.900390625 769.849609375 716.400390625 777.75 715.299804688 c 0
 799.799804688 712.349609375 807.549804688 705.400390625 810.700195312 685.75 c 0
 812.349609375 675.25 813.049804688 647.099609375 812 633.700195312 c 0
 809.599609375 604 800.400390625 574.400390625 788.5 558.099609375 c 0
 787.200195312 556.25 783.400390625 552.150390625 780.150390625 549 c 0
 771.900390625 541.049804688 767.450195312 534.799804688 762.5 524.400390625 c 0
 754 506.299804688 748.799804688 482.349609375 746.950195312 452.5 c 0
 746.200195312 440.349609375 746.650390625 405.549804688 747.700195312 392.25 c 0
 752.950195312 328.349609375 767.900390625 260 792 190.25 c 0
 802.900390625 158.650390625 811.150390625 138.599609375 834.700195312 86.2998046875 c 0
 867.950195312 12.5 880.799804688 -18.75 888.5 -44.5 c 0
 907.5 -108 891.099609375 -128.5 816.25 -134.75 c 0
 787 -137.150390625 761.5 -137.5 599.549804688 -137.5 c 2
 456.900390625 -137.5 l 1
 457.200195312 -134.150390625 l 2
 458.099609375 -124.700195312 462.099609375 -61.9501953125 462.549804688 -50.099609375 c 0
 463.849609375 -18.5498046875 460.5 13 455.400390625 18.099609375 c 0
 451.5 22 436.849609375 13.5 412.5 -6.7998046875 c 0
 399.700195312 -17.4501953125 389.75 -26.75 366.25 -50 c 0
 343.549804688 -72.4501953125 333.25 -81.9501953125 321 -91.7998046875 c 0
 275.25 -128.400390625 234.400390625 -143.200195312 198.849609375 -135.950195312 c 0
 191.349609375 -134.450195312 185.599609375 -132.400390625 177.75 -128.5 c 0
 170 -124.650390625 164.049804688 -120.549804688 157 -114.349609375 c 0
 138.150390625 -97.7998046875 119.549804688 -67.7001953125 111.349609375 -40.5 c 0
 102.099609375 -9.900390625 103.950195312 19.150390625 116.799804688 45 c 0
 121.150390625 53.75 124.5 58.849609375 132.450195312 68.75 c 0
 140.049804688 78.25 146.099609375 88.25 154.75 105.75 c 0
 195.400390625 187.900390625 246.349609375 348.849609375 260.200195312 438.75 c 0
 268.150390625 490.400390625 266.049804688 517.099609375 252.450195312 536.5 c 0
 251.049804688 538.549804688 246.299804688 543.75 242 548 c 0
 237.099609375 552.799804688 233.150390625 557.200195312 231.599609375 559.549804688 c 0
 220.150390625 576.75 211.450195312 604.599609375 208.950195312 632.099609375 c 0
 208.150390625 641.150390625 208.650390625 675.299804688 209.700195312 683 c 0
 211.25 693.900390625 213.700195312 700.650390625 217.900390625 705.150390625 c 0
 224.049804688 711.75 232.700195312 714.650390625 250.25 716 c 0
298.75 694.950195312 m 0
 292.25 695.700195312 277.75 696 270.450195312 695.5 c 0
 248.650390625 694.099609375 237.650390625 687.900390625 232.700195312 674.299804688 c 0
 228.799804688 663.599609375 228.099609375 644.700195312 231 628.5 c 0
 235.799804688 601.849609375 247.650390625 577.75 258.849609375 571.849609375 c 0
 280.700195312 560.450195312 347.150390625 552.849609375 450 549.950195312 c 0
 474.799804688 549.25 546.150390625 549.25 571 549.950195312 c 0
 675.349609375 552.900390625 744 560.950195312 763.25 572.549804688 c 0
 774.049804688 579.049804688 786.25 605.299804688 790.299804688 630.75 c 0
 791.349609375 637.549804688 791.799804688 654.450195312 791.049804688 661 c 0
 788.700195312 681.099609375 780.799804688 690.25 762.650390625 693.950195312 c 0
 748.5 696.849609375 723.349609375 696.25 711.25 692.75 c 0
 700.549804688 689.650390625 693.75 682.950195312 690.549804688 672.25 c 0
 688.700195312 666.150390625 688 659.25 687.5 644 c 0
 686.900390625 623.400390625 685.5 615.349609375 681.25 607.75 c 0
 679.5 604.599609375 675.049804688 600 671.950195312 598.099609375 c 0
 669.049804688 596.349609375 663.599609375 594.450195312 658.349609375 593.450195312 c 0
 648.549804688 591.549804688 630.75 591.150390625 618.25 592.549804688 c 0
 600.549804688 594.549804688 591.200195312 600.900390625 586.799804688 614.049804688 c 0
 584.650390625 620.450195312 584 626.200195312 583.5 642.5 c 0
 583.200195312 650.900390625 582.75 659.799804688 582.450195312 662.25 c 0
 579.900390625 683.400390625 571.5 691.049804688 547.5 694.200195312 c 0
 536.849609375 695.599609375 512.700195312 696.25 494.849609375 695.549804688 c 0
 486.299804688 695.25 477.349609375 694.75 475 694.5 c 0
 457.25 692.400390625 447.549804688 687.599609375 442.799804688 678.549804688 c 0
 439.099609375 671.400390625 438.099609375 665.150390625 437.5 644.75 c 0
 436.900390625 623.400390625 435.549804688 615.450195312 431.25 607.75 c 0
 429.5 604.599609375 425.049804688 600 421.950195312 598.099609375 c 0
 419.049804688 596.349609375 413.599609375 594.450195312 408.349609375 593.450195312 c 0
 398.549804688 591.549804688 380.75 591.150390625 368.25 592.549804688 c 0
 350.549804688 594.549804688 341.200195312 600.900390625 336.799804688 614.049804688 c 0
 334.700195312 620.299804688 334 626.25 333.5 641.5 c 0
 332.950195312 657.849609375 332.400390625 663.799804688 330.75 670.25 c 0
 326.900390625 685.400390625 317.400390625 692.75 298.75 694.950195312 c 0
729 391.450195312 m 2
 729 529 l 1
 511.5 529 l 2
 329.5 529 294 528.900390625 294 528.349609375 c 0
 294 527.25 280.650390625 433.049804688 278.700195312 420.25 c 0
 261.450195312 307.950195312 210.599609375 141.25 173 73.75 c 0
 166.349609375 61.7998046875 161.900390625 55.849609375 153.200195312 47.25 c 0
 148.799804688 42.849609375 144.25 38.150390625 143.150390625 36.75 c 0
 137.700195312 30 131.799804688 19.0498046875 129.049804688 10.75 c 0
 122.650390625 -8.75 125.150390625 -25.599609375 135.349609375 -31.099609375 c 0
 138.200195312 -32.650390625 143.25 -33.7001953125 145.900390625 -33.2001953125 c 0
 154.099609375 -31.75 163.400390625 -21.7001953125 169.299804688 -7.900390625 c 0
 170.299804688 -5.599609375 172.299804688 0.5498046875 173.849609375 5.75 c 0
 179.599609375 25.599609375 181.799804688 26.5 183.799804688 10 c 0
 184.900390625 0.9501953125 185.299804688 -17.150390625 184.5 -23.2998046875 c 0
 182.700195312 -37.75 177.200195312 -49.400390625 170.549804688 -52.7001953125 c 0
 169.150390625 -53.400390625 166.849609375 -54 164.549804688 -54.2001953125 c 0
 160 -54.599609375 157.25 -55.75 155.150390625 -58.150390625 c 0
 151 -62.849609375 152.650390625 -70.599609375 159.849609375 -80.25 c 0
 165.349609375 -87.650390625 171.150390625 -92.4501953125 176.599609375 -94.2998046875 c 0
 179.849609375 -95.349609375 186.349609375 -95.0498046875 189.25 -93.7001953125 c 0
 198.25 -89.5 205.900390625 -80.5 213.950195312 -64.5 c 0
 221.200195312 -50.099609375 223.400390625 -44.0498046875 238.299804688 3.650390625 c 0
 244.049804688 22.0498046875 248.799804688 36.849609375 248.900390625 36.599609375 c 0
 249 36.2998046875 246.450195312 17.900390625 243.299804688 -4.2998046875 c 0
 240.150390625 -26.5498046875 237.200195312 -48 236.75 -52 c 0
 232.849609375 -89.2998046875 235.599609375 -116.5 243.25 -116.5 c 0
 252.049804688 -116.5 310.849609375 -61.9501953125 381.25 11.5 c 0
 439.349609375 72.150390625 477.549804688 107.5 485 107.5 c 0
 486.75 107.5 486.200195312 105.25 482.299804688 97.0498046875 c 0
 478.150390625 88.349609375 475.599609375 81.150390625 473.900390625 73.4501953125 c 0
 472.950195312 69 472.799804688 66.75 472.75 58 c 0
 472.75 48.7998046875 472.849609375 47.2998046875 473.950195312 43.2998046875 c 0
 475.700195312 36.599609375 478 31.5498046875 482.200195312 25.25 c 0
 488 16.5498046875 493.150390625 11.900390625 496.099609375 12.650390625 c 0
 498.400390625 13.25 499.099609375 15.5 499.799804688 24.5 c 0
 501 40.099609375 503.900390625 53.0498046875 511.099609375 75 c 0
 522.25 108.950195312 538.599609375 141.849609375 547.650390625 148.5 c 0
 550.200195312 150.349609375 552.650390625 150.5 553.700195312 148.849609375 c 0
 557.75 142.75 550 108.150390625 534.099609375 61 c 0
 529.549804688 47.5498046875 527.75 42.650390625 517.349609375 14.75 c 0
 493.75 -48.5498046875 477.75 -97.599609375 479.349609375 -101.75 c 0
 479.5 -102.200195312 480.700195312 -103.099609375 482.049804688 -103.799804688 c 0
 492.299804688 -109 526 -112.950195312 582.5 -115.549804688 c 0
 600.099609375 -116.349609375 696.349609375 -116.700195312 717.900390625 -116.049804688 c 0
 749.150390625 -115.049804688 765.549804688 -113.450195312 778.650390625 -110.200195312 c 0
 808.75 -102.650390625 814.75 -87.2998046875 802.25 -49.75 c 0
 797.200195312 -34.5 791.349609375 -20.400390625 776 13.75 c 0
 760.900390625 47.349609375 755.549804688 60.2998046875 746.450195312 85.900390625 c 0
 733.200195312 123.099609375 726.650390625 154.75 731.799804688 156.700195312 c 0
 738.099609375 159.099609375 761.599609375 116.299804688 788 54.5 c 0
 814.349609375 -7.150390625 832.450195312 -62.150390625 832.5 -80.5 c 0
 832.5 -82 832.849609375 -85.400390625 833.25 -88 c 0
 835.299804688 -101.700195312 841.349609375 -112.049804688 849.349609375 -115.599609375 c 0
 851.25 -116.450195312 852.400390625 -116.599609375 855.700195312 -116.400390625 c 0
 864.400390625 -115.950195312 869.400390625 -111.650390625 872.349609375 -102.25 c 0
 873.75 -97.650390625 873.599609375 -83 872.049804688 -74.349609375 c 0
 869.450195312 -59.5 863.400390625 -39.7001953125 855.349609375 -19.75 c 0
 829 45.9501953125 780.549804688 127.650390625 727.299804688 196.25 c 0
 697.950195312 234.049804688 670.799804688 263.450195312 639.5 291.25 c 0
 568.450195312 354.400390625 527.200195312 381.450195312 501.900390625 381.5 c 0
 489.349609375 381.5 480.299804688 374.299804688 474.5 359.549804688 c 0
 472.650390625 354.900390625 470.900390625 352.5 469.400390625 352.5 c 0
 464.049804688 352.5 456.799804688 368.650390625 450.5 394.549804688 c 0
 444.150390625 420.700195312 438.25 437.599609375 431.099609375 450.25 c 0
 418.200195312 473.099609375 408.700195312 471.849609375 401.25 446.25 c 0
 397.650390625 433.799804688 396.150390625 420.25 395.5 395.200195312 c 0
 394.849609375 368.549804688 393.900390625 359.5 391.25 353.650390625 c 0
 389.950195312 350.75 388.349609375 349.650390625 386.200195312 350.200195312 c 0
 384.099609375 350.75 379.599609375 355.650390625 375.049804688 362.400390625 c 0
 368.450195312 372.200195312 363.549804688 377.650390625 359.549804688 379.700195312 c 0
 356.349609375 381.400390625 354.849609375 379.950195312 354.299804688 374.650390625 c 0
 353.950195312 371.25 352.849609375 369.650390625 350.400390625 369 c 0
 340.299804688 366.25 311.5 390.599609375 298.200195312 413.099609375 c 0
 293.450195312 421.150390625 291.049804688 428.950195312 291.75 434.200195312 c 0
 292.200195312 437.450195312 293.650390625 440.75 294.900390625 441.450195312 c 0
 298.849609375 443.549804688 305.549804688 439.849609375 316.25 429.5 c 0
 334.549804688 411.900390625 343.950195312 406 353.700195312 406 c 0
 358 406 361.299804688 407.400390625 364.799804688 410.599609375 c 0
 370.700195312 416.049804688 375.099609375 425.200195312 380.200195312 442.799804688 c 0
 381.700195312 448 383.599609375 454 384.450195312 456.150390625 c 0
 391.650390625 474.25 404.150390625 487.5 414.049804688 487.5 c 0
 420.400390625 487.5 429.599609375 481.849609375 439.049804688 472.150390625 c 0
 446.650390625 464.349609375 452.450195312 456.349609375 459.5 443.799804688 c 0
 466.75 431.049804688 481.25 418 496.25 410.75 c 0
 505.349609375 406.349609375 510.900390625 404.900390625 522 404.049804688 c 0
 525.849609375 403.700195312 529.950195312 403.049804688 532.599609375 402.299804688 c 0
 557.599609375 395.049804688 599.700195312 368.5 636.75 336.700195312 c 0
 640.349609375 333.650390625 662.299804688 313.900390625 685.599609375 292.849609375 c 0
 708.900390625 271.799804688 728.200195312 254.450195312 728.5 254.25 c 0
 728.849609375 254.049804688 729 298.799804688 729 391.450195312 c 2
316.150390625 246 m 0
 319 246.5 324.599609375 246.200195312 327.75 245.450195312 c 0
 342.75 241.799804688 360.25 224.200195312 364.25 208.75 c 0
 365.299804688 204.799804688 365.299804688 198.849609375 364.299804688 196.049804688 c 0
 361.799804688 189.150390625 353.049804688 180.950195312 344.599609375 177.599609375 c 0
 341.549804688 176.400390625 340.599609375 176.299804688 334.25 176.25 c 0
 327.75 176.25 326.950195312 176.349609375 323.349609375 177.700195312 c 0
 310.799804688 182.299804688 299.700195312 195.450195312 296.049804688 209.950195312 c 0
 294.799804688 214.900390625 294.650390625 222.849609375 295.700195312 226.75 c 0
 298.450195312 237.150390625 305.900390625 244.150390625 316.150390625 246 c 0
EndSplineSet
EndChar

StartChar: k
Encoding: 107 107 12
Width: 1000
Flags: H
LayerCount: 2
Fore
SplineSet
497 778.5 m 0
 499.049804688 778.75 506.150390625 778.849609375 512.75 778.75 c 0
 522.150390625 778.650390625 526 778.400390625 530.5 777.599609375 c 0
 547.099609375 774.599609375 558.200195312 768 562.799804688 758.349609375 c 0
 564.349609375 755.049804688 564.650390625 753.799804688 565.049804688 748.900390625 c 0
 565.650390625 741.799804688 566.549804688 738.299804688 568.799804688 734 c 0
 572.900390625 726.200195312 580.700195312 720.049804688 589.25 717.799804688 c 0
 590.900390625 717.400390625 594.950195312 716.799804688 598.25 716.549804688 c 0
 607.700195312 715.75 612.75 713.450195312 618.25 707.400390625 c 0
 626.549804688 698.200195312 631.200195312 680.099609375 630.299804688 660.200195312 c 0
 629.549804688 642.299804688 625 628.650390625 617.25 620.799804688 c 0
 611.849609375 615.299804688 606.950195312 613.200195312 598 612.5 c 0
 588.5 611.799804688 583.400390625 609.5 577.700195312 603.400390625 c 0
 572.599609375 597.950195312 568.5 588.700195312 566.75 578.599609375 c 0
 564.299804688 564.950195312 565.150390625 543.650390625 568.549804688 532.650390625 c 0
 571.849609375 521.950195312 578.400390625 514.950195312 587.5 512.299804688 c 0
 603.150390625 507.700195312 630.299804688 516.049804688 671.049804688 538.049804688 c 0
 680.75 543.299804688 688.200195312 546.450195312 700.5 550.549804688 c 0
 727.950195312 559.650390625 759 565.700195312 795.75 569.099609375 c 0
 805.200195312 569.950195312 838.200195312 569.950195312 846.5 569.099609375 c 0
 875.599609375 566.049804688 898.349609375 559.599609375 917.599609375 548.950195312 c 0
 964.75 522.900390625 991.099609375 475.099609375 998.200195312 402.75 c 0
 1000.09960938 383.450195312 1000.45019531 351.049804688 999 332.5 c 0
 995.25 285.299804688 983.700195312 253 955.349609375 210.549804688 c 0
 948.25 199.900390625 943.549804688 193.400390625 928.299804688 173 c 0
 910.299804688 149 901.849609375 136.450195312 892.400390625 120 c 0
 876.950195312 93.0498046875 868.849609375 69.650390625 866.450195312 44.75 c 0
 865.799804688 38.25 866.049804688 22.349609375 867 8.25 c 0
 867.950195312 -5.7001953125 866.5 -22.2001953125 863.25 -35 c 0
 857.849609375 -56.349609375 846.650390625 -75.2998046875 829.349609375 -92.5498046875 c 0
 802.549804688 -119.25 779 -128.200195312 723.5 -132.950195312 c 0
 682.099609375 -136.5 645.299804688 -137.25 510.5 -137.25 c 0
 404.150390625 -137.25 376.349609375 -136.950195312 340.25 -135.5 c 0
 266.049804688 -132.5 234.049804688 -125.650390625 209.5 -107.450195312 c 0
 200.200195312 -100.599609375 188.400390625 -89.2998046875 181.349609375 -80.5 c 0
 167.450195312 -63.150390625 158.900390625 -43.0498046875 155.650390625 -20.25 c 0
 154.599609375 -13.0498046875 154.5 7.2001953125 155.450195312 21.5 c 0
 158 61.0498046875 146.450195312 95.900390625 115.349609375 142.450195312 c 0
 108.25 153.099609375 103.299804688 160 89.75 178 c 0
 66.7998046875 208.450195312 54.599609375 227.349609375 44.7001953125 247.75 c 0
 29.5 279 23.150390625 307.650390625 22.0498046875 349.5 c 0
 20.5498046875 408.299804688 28.349609375 452.950195312 46.25 488.349609375 c 0
 57.900390625 511.299804688 73.2998046875 528.950195312 93.5 542.400390625 c 0
 115.299804688 556.950195312 139.900390625 565.150390625 173 568.849609375 c 0
 184 570.099609375 215.900390625 570.049804688 229 568.849609375 c 0
 263.549804688 565.549804688 295.849609375 559.099609375 322.5 550.150390625 c 0
 333.700195312 546.400390625 340.75 543.299804688 354.25 536.150390625 c 0
 404.049804688 509.849609375 431.349609375 504.599609375 445.25 518.700195312 c 0
 450.299804688 523.849609375 453.5 531.299804688 455.299804688 542.25 c 0
 456.700195312 550.5 456.599609375 570.049804688 455.099609375 578 c 0
 451 600.200195312 440 612.450195312 424 612.5 c 0
 416.5 612.549804688 410.099609375 615.25 404.75 620.700195312 c 0
 395.75 629.849609375 391.549804688 643.650390625 391.5 664.150390625 c 0
 391.5 674.450195312 392.150390625 680.450195312 394.049804688 687.950195312 c 0
 397.200195312 700.599609375 403.450195312 709.700195312 411.700195312 713.75 c 0
 415.400390625 715.599609375 417.849609375 716.099609375 426.549804688 716.950195312 c 0
 435.25 717.75 441.5 720.599609375 447.299804688 726.400390625 c 0
 453 732.049804688 455.799804688 738.400390625 456.5 747.5 c 0
 457.049804688 754.400390625 458.200195312 757.950195312 461.200195312 762.150390625 c 0
 467.200195312 770.599609375 479.950195312 776.400390625 497 778.5 c 0
519.400390625 757.200195312 m 0
 507.700195312 760.200195312 495.950195312 756.950195312 487.5 748.5 c 0
 483.700195312 744.700195312 480.75 739.950195312 479.549804688 735.75 c 0
 479.200195312 734.650390625 478.650390625 730.700195312 478.299804688 727 c 0
 477.25 716.700195312 475.049804688 711.549804688 469 705.5 c 0
 462.799804688 699.349609375 456.650390625 696.700195312 446.549804688 695.950195312 c 0
 439.200195312 695.400390625 435.400390625 694.549804688 431.200195312 692.5 c 0
 418 686.049804688 410.849609375 672.049804688 413.75 658.299804688 c 0
 416 647.650390625 425.099609375 638.049804688 436 634.75 c 0
 437.5 634.299804688 441.450195312 633.75 444.75 633.5 c 0
 453.900390625 632.75 458.200195312 631.25 462.599609375 627.099609375 c 0
 467.5 622.5 470.900390625 615.950195312 473.5 605.849609375 c 0
 476.700195312 593.549804688 477.700195312 581.599609375 478.5 547 c 0
 479 523.900390625 479.75 512.950195312 481.75 497.900390625 c 0
 483.950195312 481.5 486.5 470.799804688 489.75 464.25 c 0
 491.799804688 460.049804688 495.700195312 456.549804688 501.5 453.650390625 c 0
 504.950195312 451.900390625 505.599609375 451.75 509.5 451.75 c 0
 515.099609375 451.75 518.349609375 453.200195312 522.700195312 457.650390625 c 0
 533 468.25 539.799804688 491.099609375 542.5 524 c 0
 542.799804688 527.700195312 543.25 540.549804688 543.5 552.5 c 0
 543.950195312 573.5 544.450195312 582.799804688 545.549804688 591.25 c 0
 547.700195312 607.75 552 619.700195312 558 626 c 0
 562.799804688 630.950195312 567.349609375 632.75 576.849609375 633.450195312 c 0
 584.150390625 634 588.099609375 635.099609375 593 638 c 0
 602.25 643.400390625 607.849609375 652.400390625 608.400390625 662.599609375 c 0
 608.700195312 668.900390625 607.950195312 672.700195312 605.349609375 678 c 0
 602.349609375 684.200195312 597.349609375 689.099609375 590.950195312 692.150390625 c 0
 585.349609375 694.849609375 583.150390625 695.400390625 575.25 696 c 0
 568.400390625 696.5 565.200195312 697.349609375 560.25 699.900390625 c 0
 555.799804688 702.200195312 549.450195312 708.450195312 547.099609375 712.849609375 c 0
 545.049804688 716.700195312 543.5 722.700195312 543.5 726.700195312 c 0
 543.450195312 740.799804688 533.25 753.700195312 519.400390625 757.200195312 c 0
208.200195312 549.25 m 0
 183.349609375 551.650390625 161.950195312 547.700195312 139.900390625 536.700195312 c 0
 88.099609375 510.900390625 51.400390625 452 44.400390625 383.5 c 0
 43.400390625 374 43.5498046875 348.950195312 44.650390625 340 c 0
 50.5 291.599609375 70.2001953125 252.349609375 121.400390625 187.349609375 c 0
 161.599609375 136.25 180.400390625 103.849609375 185.799804688 76.25 c 0
 187.150390625 69.4501953125 187 58.0498046875 185.5 52.75 c 0
 180.700195312 35.599609375 180.25 32.2001953125 180.25 12 c 0
 180.299804688 -0.599609375 180.450195312 -5.599609375 181.150390625 -10.349609375 c 0
 183.25 -25.150390625 185.849609375 -34.650390625 193.200195312 -54.099609375 c 0
 197.400390625 -65.349609375 200.200195312 -70.900390625 202.150390625 -72 c 0
 203.349609375 -72.650390625 203.549804688 -72.650390625 204.75 -71.5 c 0
 206.299804688 -70 208.25 -64.099609375 210.700195312 -53.25 c 0
 214.299804688 -37.400390625 215.650390625 -32.099609375 218.349609375 -24.2998046875 c 0
 224.200195312 -7.25 231.400390625 6.7998046875 238.349609375 14.75 c 0
 240.950195312 17.75 241.5 19.4501953125 241.5 24.650390625 c 0
 241.5 43.5 223 84.0498046875 194.049804688 128.650390625 c 0
 161.450195312 178.900390625 135.900390625 236.099609375 131.200195312 269.450195312 c 0
 129.75 279.75 130.799804688 296.400390625 133.75 310.5 c 0
 147.5 375.400390625 198.849609375 425.049804688 252.349609375 425 c 0
 273.700195312 425 302.099609375 412.099609375 334 387.950195312 c 0
 389.950195312 345.650390625 447.049804688 276.549804688 476.200195312 216 c 0
 485.049804688 197.5 487.150390625 191.700195312 502.099609375 143.349609375 c 0
 509 120.900390625 514.75 102.599609375 514.849609375 102.700195312 c 0
 514.950195312 102.75 518.599609375 120.700195312 522.950195312 142.549804688 c 0
 531.299804688 184.049804688 532.599609375 189.349609375 537.700195312 202.450195312 c 0
 569.849609375 284.650390625 670.299804688 391.599609375 741 418.900390625 c 0
 758.049804688 425.5 771.950195312 426.549804688 789.450195312 422.700195312 c 0
 811.799804688 417.75 833.349609375 404.299804688 851.299804688 384.099609375 c 0
 876 356.400390625 890.950195312 317.650390625 891.099609375 281 c 0
 891.150390625 275.450195312 890.849609375 271.099609375 890.299804688 267.75 c 0
 886.799804688 246.849609375 875.700195312 216.950195312 859 183.400390625 c 0
 848.75 162.849609375 840.849609375 149.150390625 825.75 125.75 c 0
 797.700195312 82.2001953125 780.5 45 780.349609375 27.5 c 0
 780.299804688 22.099609375 781.099609375 20.25 784.599609375 17.5 c 0
 786.049804688 16.349609375 788.099609375 14.400390625 789.099609375 13.150390625 c 0
 798.400390625 2 805 -20.7998046875 805 -41.9501953125 c 0
 805 -49.5498046875 805.849609375 -63.5498046875 806.5 -66.900390625 c 0
 808.099609375 -75.5 811.400390625 -74.25 819.549804688 -61.9501953125 c 0
 830.700195312 -45.150390625 834.349609375 -37.7001953125 837.5 -25 c 0
 840.700195312 -12.099609375 841.700195312 -3.7998046875 841.700195312 11 c 0
 841.700195312 23.9501953125 841.049804688 29.9501953125 838.5 41 c 0
 836.049804688 51.650390625 835.75 53.849609375 835.799804688 63.25 c 0
 835.799804688 79.099609375 838.849609375 90.7998046875 847.700195312 109.299804688 c 0
 857.75 130.150390625 872.200195312 151.549804688 901.25 188.5 c 0
 906.950195312 195.75 914.150390625 205.099609375 917.200195312 209.25 c 0
 958.549804688 264.799804688 976.25 306.75 977.900390625 353.25 c 0
 978.599609375 372.599609375 977.25 390 973.700195312 407.450195312 c 0
 965.900390625 445.799804688 948.349609375 480.099609375 923.299804688 505.900390625 c 0
 903.150390625 526.650390625 879.049804688 540.75 853.5 546.700195312 c 0
 842.950195312 549.200195312 837.599609375 549.75 824.5 549.700195312 c 0
 811.950195312 549.700195312 805.049804688 549.099609375 791.5 546.950195312 c 0
 734.349609375 537.75 657.950195312 508.450195312 598.25 472.849609375 c 0
 580.849609375 462.5 566.049804688 452.049804688 548.5 437.799804688 c 0
 528.200195312 421.299804688 518.900390625 415.549804688 510.849609375 414.599609375 c 0
 501.349609375 413.5 494.549804688 417.400390625 481.799804688 431.450195312 c 0
 473.349609375 440.75 469.400390625 444.400390625 461.25 450.5 c 0
 443.150390625 464.049804688 419.200195312 477.799804688 389.5 491.75 c 0
 324.650390625 522.25 253.049804688 544.950195312 208.200195312 549.25 c 0
260 399.799804688 m 0
 254.799804688 400.900390625 244.650390625 401.150390625 240.150390625 400.299804688 c 0
 220.599609375 396.549804688 203.950195312 382.950195312 183.099609375 353.75 c 0
 170.900390625 336.599609375 162.450195312 320.75 158.5 307.549804688 c 0
 155.299804688 296.75 154.200195312 283.25 155.700195312 272.25 c 0
 159.150390625 246.299804688 172.650390625 217 203.650390625 168.25 c 0
 213.150390625 153.299804688 236.099609375 119.049804688 243.900390625 108.099609375 c 0
 272.099609375 68.650390625 289.599609375 56.5498046875 324.75 52.2998046875 c 0
 337.650390625 50.7001953125 345.849609375 50.400390625 384.25 50.150390625 c 0
 464.799804688 49.599609375 482.799804688 51.650390625 489.849609375 62.2001953125 c 0
 492.099609375 65.5 492.700195312 67.9501953125 492.650390625 73.75 c 0
 492.599609375 80.4501953125 491.299804688 87.25 486.200195312 107.700195312 c 0
 460.450195312 210.200195312 437.549804688 249.400390625 355.75 331.299804688 c 0
 334.450195312 352.650390625 323.799804688 362.400390625 309.75 373.299804688 c 0
 290.950195312 387.950195312 274.549804688 396.650390625 260 399.799804688 c 0
785.75 399.299804688 m 0
 774.549804688 402.200195312 762.450195312 401.099609375 749.75 396.150390625 c 0
 722.650390625 385.450195312 688.849609375 357.150390625 637.75 302.25 c 0
 603.5 265.5 582.450195312 236 567.25 203.5 c 0
 555.599609375 178.5 546.349609375 150.549804688 535.049804688 106 c 0
 530.099609375 86.2998046875 529.349609375 82.25 529.299804688 74.25 c 0
 529.25 67.7001953125 529.349609375 67.0498046875 530.549804688 64.4501953125 c 0
 534.5 56.099609375 543.799804688 52.75 568.25 50.900390625 c 0
 580.349609375 50 669.799804688 50 682.200195312 50.900390625 c 0
 730.75 54.400390625 746.700195312 64.2998046875 780.25 111.5 c 0
 786.099609375 119.75 806.049804688 149.5 814.549804688 162.75 c 0
 863.400390625 238.549804688 874.5 273.450195312 861.900390625 311.450195312 c 0
 855.049804688 332.049804688 833.450195312 364.400390625 814.5 382.299804688 c 0
 805.849609375 390.5 795 396.900390625 785.75 399.299804688 c 0
564.25 21.5 m 0
 547.700195312 22 502.650390625 22.400390625 486.25 22.2001953125 c 0
 424.75 21.349609375 364 16.75 323.400390625 9.9501953125 c 0
 297.549804688 5.650390625 279.799804688 0.849609375 267.75 -5 c 0
 258.049804688 -9.75 255.049804688 -12.599609375 250.799804688 -21.25 c 0
 243.049804688 -37 240.049804688 -58.349609375 243.450195312 -74.25 c 0
 244.900390625 -81.150390625 246.25 -84.2001953125 249.049804688 -87 c 0
 263 -100.950195312 316.099609375 -111.75 398 -117.25 c 0
 478.25 -122.599609375 579.25 -121.700195312 652.75 -115 c 0
 718.349609375 -108.950195312 760.049804688 -99.2998046875 772.25 -87.2998046875 c 0
 775 -84.599609375 775.5 -83.7998046875 776.650390625 -80.25 c 0
 778.700195312 -73.849609375 779.099609375 -71.25 779.349609375 -62.400390625 c 0
 779.650390625 -52.650390625 779.099609375 -46.849609375 776.950195312 -38.099609375 c 0
 775.200195312 -30.900390625 773.75 -27 770.599609375 -20.5498046875 c 0
 767.75 -14.7998046875 764.25 -10.849609375 759.25 -7.75 c 0
 734.849609375 7.4501953125 662.200195312 18.349609375 564.25 21.5 c 0
EndSplineSet
EndChar

StartChar: n
Encoding: 110 110 13
Width: 1000
Flags: H
LayerCount: 2
Fore
SplineSet
410.450195312 735.5 m 0
 413.5 736.049804688 418.5 735.599609375 421.700195312 734.5 c 0
 434.349609375 730.150390625 445.5 718.549804688 457.5 697.299804688 c 0
 463.650390625 686.450195312 470.349609375 678.549804688 479.5 671.450195312 c 0
 493.700195312 660.400390625 506.599609375 655.200195312 522.75 654.049804688 c 0
 530.75 653.450195312 535.349609375 652.400390625 543.5 649.150390625 c 0
 569.650390625 638.849609375 607.349609375 611.650390625 652 570.849609375 c 0
 664.200195312 559.650390625 700.799804688 522.950195312 712.849609375 509.75 c 0
 766 451.549804688 806.200195312 396.549804688 827.75 352.75 c 0
 860.599609375 285.849609375 901.150390625 143.5 923.700195312 15.75 c 0
 928.650390625 -12.2998046875 932.049804688 -36.349609375 935.25 -66.75 c 0
 936.849609375 -81.599609375 937.150390625 -89.4501953125 937.349609375 -123.200195312 c 2
 937.599609375 -158.599609375 l 1
 720.650390625 -158.349609375 l 2
 486.450195312 -158.049804688 449.549804688 -157.700195312 395.75 -155.25 c 0
 331.549804688 -152.299804688 301 -146.549804688 293.900390625 -136.150390625 c 0
 291.650390625 -132.950195312 291.25 -130.25 292.25 -125.400390625 c 0
 296.450195312 -104.700195312 326.049804688 -51.400390625 367 9 c 0
 374.349609375 19.849609375 383.299804688 33.25 386.849609375 38.75 c 0
 431.799804688 108.150390625 461.700195312 169.700195312 470.049804688 210 c 0
 471.849609375 218.650390625 472.5 230.150390625 471.549804688 235.799804688 c 0
 468.099609375 255.799804688 449.049804688 254.549804688 419.25 232.400390625 c 0
 399.099609375 217.400390625 378.349609375 197.450195312 348 163.75 c 0
 268.700195312 75.7998046875 208.299804688 38.849609375 159.349609375 48.5 c 0
 132.400390625 53.7998046875 109.200195312 72.900390625 87.2998046875 107.900390625 c 0
 69.900390625 135.650390625 62.599609375 161.349609375 65.0498046875 186.299804688 c 0
 66.599609375 202.450195312 71.25 217.25 80.5498046875 236 c 0
 87.849609375 250.599609375 96.4501953125 264.400390625 109.5 282.25 c 0
 120.349609375 297.099609375 124.549804688 303.599609375 133.599609375 319.5 c 0
 176.299804688 394.400390625 227.200195312 526.25 244.200195312 606 c 0
 248.099609375 624.349609375 249.400390625 634.200195312 250 650.049804688 c 0
 250.5 663.349609375 251.349609375 670.599609375 253.25 677.849609375 c 0
 255.75 687.299804688 259.150390625 694.150390625 263.650390625 698.900390625 c 0
 265.950195312 701.299804688 269.599609375 704 270.5 704 c 0
 270.950195312 704 271.049804688 695.200195312 270.849609375 668.400390625 c 0
 270.650390625 630.299804688 270.5 628.450195312 267.700195312 610 c 0
 256.849609375 538.5 217.349609375 422.25 174.700195312 336.25 c 0
 158.900390625 304.299804688 147.150390625 284.5 130.549804688 261.75 c 0
 108.75 231.799804688 91.0498046875 201.75 85.2998046875 184.950195312 c 0
 83.7998046875 180.5 83.5 179 83.5 175.349609375 c 0
 83.5 167.450195312 85.7001953125 161.150390625 89.75 157.599609375 c 0
 97.400390625 150.900390625 110.400390625 155.200195312 120.299804688 167.700195312 c 0
 125.299804688 173.950195312 128.950195312 181.849609375 132.25 193.400390625 c 0
 136.599609375 208.700195312 138.700195312 211.900390625 140.599609375 206.150390625 c 0
 143.049804688 198.799804688 144.150390625 169.349609375 142.349609375 160.25 c 0
 140.5 150.950195312 138.049804688 144.650390625 134.299804688 139.549804688 c 0
 132.200195312 136.75 128.599609375 134.150390625 126.299804688 133.799804688 c 0
 125.450195312 133.650390625 123.200195312 133.349609375 121.349609375 133.049804688 c 0
 114.450195312 132.049804688 111.25 128.650390625 111.349609375 122.5 c 0
 111.349609375 120 111.700195312 118.450195312 112.900390625 115.849609375 c 0
 116.599609375 107.700195312 125 98.2001953125 131.5 94.75 c 0
 135.150390625 92.7998046875 135.400390625 92.75 140.25 92.75 c 0
 145.049804688 92.75 145.450195312 92.849609375 149 94.599609375 c 0
 151.049804688 95.650390625 154.150390625 97.7001953125 155.849609375 99.25 c 0
 162.25 105 169.900390625 116.849609375 175.700195312 129.950195312 c 0
 181.700195312 143.650390625 183.150390625 147.950195312 201.5 206.849609375 c 0
 204.650390625 216.849609375 207.25 224.900390625 207.349609375 224.849609375 c 0
 207.400390625 224.75 204.900390625 206.450195312 201.75 184.150390625 c 0
 198.599609375 161.849609375 195.650390625 140.5 195.200195312 136.700195312 c 0
 194.150390625 127.25 193.700195312 102.349609375 194.450195312 94.650390625 c 0
 196.049804688 79.099609375 199.650390625 71 205 71 c 0
 211.75 71 231.599609375 86.599609375 259.75 114.049804688 c 0
 311.799804688 164.75 375.549804688 235.950195312 441.25 316.700195312 c 0
 462.849609375 343.25 477.400390625 359 482.75 361.599609375 c 0
 487.200195312 363.75 487 361.349609375 482 350.25 c 0
 478.099609375 341.599609375 476.700195312 337.900390625 474.950195312 331.150390625 c 0
 470.549804688 314.049804688 471.200195312 298.099609375 476.799804688 284.849609375 c 0
 478.950195312 279.75 485.150390625 270.400390625 488.950195312 266.599609375 c 0
 493.549804688 262 496.349609375 261.400390625 498.200195312 264.549804688 c 0
 498.900390625 265.700195312 499.299804688 268.099609375 499.75 274.200195312 c 0
 500.549804688 283.599609375 501 286.799804688 503.049804688 296.150390625 c 0
 510.75 331.450195312 532.75 384.200195312 545.25 397.299804688 c 0
 548.549804688 400.799804688 550.349609375 401.549804688 552.200195312 400.299804688 c 0
 558.400390625 396.25 551.150390625 361.25 532.150390625 303.75 c 0
 498.700195312 202.450195312 446.75 80.5 416.099609375 31.2001953125 c 0
 413.849609375 27.599609375 409.150390625 20.7001953125 405.599609375 15.9501953125 c 0
 383.150390625 -14.5 355.150390625 -56.5498046875 341.950195312 -79.7001953125 c 0
 339.900390625 -83.25 332.150390625 -97.650390625 324.700195312 -111.700195312 c 2
 311.150390625 -137.25 l 1
 468.200195312 -137.400390625 l 2
 618.450195312 -137.549804688 690.799804688 -137.150390625 727.5 -136 c 0
 814.599609375 -133.25 846.950195312 -127.400390625 853 -113.349609375 c 0
 854.099609375 -110.849609375 854.150390625 -110.349609375 853.849609375 -101.25 c 0
 851.75 -37.75 808.5 163.5 776 261.099609375 c 0
 770.75 276.900390625 765.950195312 288.849609375 760.700195312 299.5 c 0
 741.5 338.400390625 729.150390625 379.200195312 730.200195312 400 c 0
 730.799804688 412.400390625 733.5 415.799804688 738.799804688 410.900390625 c 0
 758.049804688 393.150390625 806.200195312 255.349609375 835.700195312 133.75 c 0
 845.75 92.2001953125 851.400390625 63.7998046875 857.5 24.25 c 0
 869.700195312 -54.849609375 886.700195312 -124.5 896.450195312 -135.650390625 c 0
 898.25 -137.700195312 899.400390625 -137.900390625 903.5 -136.950195312 c 0
 916.799804688 -133.950195312 918.5 -111.900390625 909.950195312 -53.5 c 0
 903.799804688 -11.599609375 887.25 78.2001953125 878.200195312 118.650390625 c 0
 844.450195312 269.650390625 790.400390625 381.25 704.900390625 476.5 c 0
 682.099609375 501.900390625 658.950195312 524.400390625 626.75 552.549804688 c 0
 558.75 611.900390625 518.950195312 635.75 495.900390625 630.950195312 c 0
 486.549804688 629 479.299804688 621.75 474.5 609.549804688 c 0
 472.650390625 604.900390625 470.900390625 602.5 469.400390625 602.5 c 0
 464.150390625 602.5 456.700195312 618.799804688 450.75 643.549804688 c 0
 444.25 670.5 440.150390625 683.150390625 434.150390625 695.200195312 c 0
 425 713.549804688 415.5 718.950195312 407.599609375 710.299804688 c 0
 400.200195312 702.150390625 395.799804688 683.400390625 394.5 654.5 c 0
 393.650390625 635.599609375 393 626.549804688 391.950195312 619.349609375 c 0
 390.450195312 608.950195312 388.099609375 602.5 385.799804688 602.5 c 0
 384.75 602.5 383.75 603.950195312 380.950195312 609.5 c 0
 378.849609375 613.700195312 377.599609375 615.450195312 374.799804688 618.299804688 c 0
 371.099609375 621.950195312 368.200195312 623.650390625 363.950195312 624.549804688 c 0
 360.900390625 625.200195312 358.75 624.849609375 354.400390625 622.950195312 c 0
 350.299804688 621.150390625 347.450195312 621.099609375 343 622.650390625 c 0
 333.799804688 625.900390625 322.450195312 635.049804688 311.799804688 647.849609375 c 0
 307.099609375 653.400390625 272.25 702.5 271.900390625 703.950195312 c 0
 271.450195312 705.849609375 281.049804688 706.650390625 286.049804688 705.200195312 c 0
 295.150390625 702.5 302.900390625 696.450195312 315 682.5 c 0
 339.549804688 654.200195312 355.799804688 648.849609375 368.099609375 665 c 0
 372.799804688 671.150390625 376.599609375 680.25 381.200195312 696.400390625 c 0
 384.549804688 708 387.049804688 714 391.400390625 720.75 c 0
 396.700195312 729.049804688 403.450195312 734.25 410.450195312 735.5 c 0
316.150390625 496 m 0
 319 496.5 324.599609375 496.200195312 327.75 495.450195312 c 0
 342.75 491.799804688 360.25 474.200195312 364.25 458.75 c 0
 365.299804688 454.799804688 365.299804688 448.849609375 364.299804688 446.049804688 c 0
 361.799804688 439.150390625 353.049804688 430.950195312 344.599609375 427.599609375 c 0
 341.5 426.400390625 340.650390625 426.25 334 426.25 c 0
 327 426.25 326.599609375 426.299804688 322.75 427.900390625 c 0
 317.650390625 429.950195312 313.700195312 432.599609375 309.349609375 436.849609375 c 0
 303.150390625 442.950195312 298.099609375 451.700195312 296.049804688 459.950195312 c 0
 294.799804688 464.900390625 294.650390625 472.849609375 295.700195312 476.75 c 0
 298.450195312 487.150390625 305.900390625 494.150390625 316.150390625 496 c 0
EndSplineSet
EndChar

StartChar: l
Encoding: 108 108 14
Width: 1000
Flags: H
LayerCount: 2
Fore
SplineSet
497 778.5 m 0
 499.049804688 778.75 506.150390625 778.849609375 512.75 778.75 c 0
 522.150390625 778.650390625 526 778.400390625 530.5 777.599609375 c 0
 547.099609375 774.599609375 558.200195312 768 562.799804688 758.349609375 c 0
 564.349609375 755.049804688 564.650390625 753.799804688 565.049804688 748.900390625 c 0
 565.650390625 741.799804688 566.549804688 738.299804688 568.799804688 734 c 0
 572.900390625 726.200195312 580.700195312 720.049804688 589.25 717.799804688 c 0
 590.900390625 717.400390625 594.950195312 716.799804688 598.25 716.549804688 c 0
 607.700195312 715.75 612.75 713.450195312 618.25 707.400390625 c 0
 626.549804688 698.200195312 631.200195312 680.099609375 630.299804688 660.200195312 c 0
 629.549804688 642.299804688 625 628.650390625 617.25 620.799804688 c 0
 611.849609375 615.299804688 606.950195312 613.200195312 598 612.5 c 0
 588.5 611.799804688 583.400390625 609.5 577.700195312 603.400390625 c 0
 572.599609375 597.950195312 568.5 588.700195312 566.75 578.599609375 c 0
 564.299804688 564.950195312 565.150390625 543.650390625 568.549804688 532.650390625 c 0
 571.849609375 521.950195312 578.400390625 514.950195312 587.5 512.299804688 c 0
 603.150390625 507.700195312 630.299804688 516.049804688 671.049804688 538.049804688 c 0
 680.650390625 543.25 688.099609375 546.400390625 700.5 550.5 c 0
 727.75 559.599609375 759 565.700195312 795.75 569.099609375 c 0
 805.200195312 569.950195312 838.200195312 569.950195312 846.5 569.099609375 c 0
 880.75 565.5 905.150390625 557.599609375 927.75 542.799804688 c 0
 968.25 516.25 991.650390625 469.75 998.200195312 402.75 c 0
 1000.09960938 383.450195312 1000.45019531 351.049804688 999 332.5 c 0
 995.25 285.299804688 983.700195312 253 955.349609375 210.549804688 c 0
 948.25 199.900390625 943.549804688 193.400390625 928.299804688 173 c 0
 910.299804688 149 901.849609375 136.450195312 892.400390625 120 c 0
 876.950195312 93.0498046875 868.849609375 69.650390625 866.450195312 44.75 c 0
 865.799804688 38.25 866.049804688 22.349609375 867 8.25 c 0
 867.950195312 -5.7001953125 866.5 -22.2001953125 863.25 -35 c 0
 856.849609375 -60.25 841.950195312 -82.7998046875 818.75 -102.349609375 c 0
 796.549804688 -121.049804688 772.450195312 -128.799804688 723.5 -132.950195312 c 0
 682.099609375 -136.5 645.299804688 -137.25 510.5 -137.25 c 0
 404.150390625 -137.25 376.349609375 -136.950195312 340.25 -135.5 c 0
 266.049804688 -132.5 234.049804688 -125.650390625 209.5 -107.450195312 c 0
 200.200195312 -100.599609375 188.400390625 -89.2998046875 181.349609375 -80.5 c 0
 167.450195312 -63.150390625 158.900390625 -43.0498046875 155.650390625 -20.25 c 0
 154.599609375 -13.0498046875 154.5 7.2001953125 155.450195312 21.5 c 0
 158 61.0498046875 146.450195312 95.900390625 115.349609375 142.450195312 c 0
 108.25 153.099609375 103.299804688 160 89.75 178 c 0
 66.7998046875 208.450195312 54.599609375 227.349609375 44.7001953125 247.75 c 0
 29.5 279 23.150390625 307.650390625 22.0498046875 349.5 c 0
 20.5498046875 408.299804688 28.349609375 452.950195312 46.25 488.349609375 c 0
 57.900390625 511.299804688 73.2998046875 528.950195312 93.5 542.400390625 c 0
 115.299804688 556.950195312 139.900390625 565.150390625 173 568.849609375 c 0
 184 570.099609375 215.900390625 570.049804688 229 568.849609375 c 0
 263.549804688 565.549804688 295.799804688 559.150390625 322.349609375 550.200195312 c 0
 333.799804688 546.349609375 340.25 543.549804688 354.400390625 536.099609375 c 0
 385.849609375 519.599609375 406.099609375 512.150390625 422.099609375 511.200195312 c 0
 441.099609375 510.049804688 451.599609375 519.849609375 455.299804688 542.25 c 0
 456.700195312 550.5 456.599609375 570.049804688 455.099609375 578 c 0
 451 600.200195312 440 612.450195312 424 612.5 c 0
 416.5 612.549804688 410.099609375 615.25 404.75 620.700195312 c 0
 395.75 629.849609375 391.549804688 643.650390625 391.5 664.150390625 c 0
 391.5 674.450195312 392.150390625 680.450195312 394.049804688 687.950195312 c 0
 397.200195312 700.599609375 403.450195312 709.700195312 411.700195312 713.75 c 0
 415.400390625 715.599609375 417.849609375 716.099609375 426.549804688 716.950195312 c 0
 435.25 717.75 441.5 720.599609375 447.299804688 726.400390625 c 0
 453 732.049804688 455.799804688 738.400390625 456.5 747.5 c 0
 457.049804688 754.400390625 458.200195312 757.950195312 461.200195312 762.150390625 c 0
 467.200195312 770.599609375 479.950195312 776.400390625 497 778.5 c 0
265.75 423.599609375 m 0
 260.5 424.700195312 248.25 425.200195312 242.5 424.5 c 0
 224.599609375 422.299804688 206.75 414.799804688 190.599609375 402.799804688 c 0
 162.599609375 381.900390625 141.700195312 347.950195312 133.75 310.5 c 0
 130.75 296.150390625 129.75 280 131.25 269.450195312 c 0
 136 236 161.849609375 178.349609375 195.049804688 127.150390625 c 0
 208.650390625 106.25 217.450195312 90.900390625 226 73.2998046875 c 0
 236.75 51.2998046875 242.099609375 34.5 241.400390625 25.349609375 c 0
 241.049804688 21.2998046875 240.099609375 19.5498046875 237.099609375 17.349609375 c 0
 230.150390625 12.349609375 224.400390625 -1.849609375 221.25 -22 c 0
 219.5 -33.0498046875 219.75 -59.75 221.799804688 -76.0498046875 c 0
 222.650390625 -83 223.450195312 -85.7001953125 224.799804688 -85.900390625 c 0
 226.650390625 -86.150390625 228.650390625 -81.0498046875 233.25 -64.2998046875 c 0
 237.099609375 -50.25 241.450195312 -39.0498046875 248.5 -25 c 0
 255.400390625 -11.25 261.599609375 -1.400390625 266.75 3.75 c 0
 281.299804688 18.4501953125 334.799804688 26 443 28.5 c 0
 469.799804688 29.150390625 565.25 29.150390625 594 28.5 c 0
 672 26.7998046875 710.799804688 22 736.599609375 10.849609375 c 0
 747.400390625 6.2001953125 754.950195312 1.099609375 761.849609375 -6.2001953125 c 0
 773.549804688 -18.5498046875 779.549804688 -31.5 788.299804688 -63.4501953125 c 0
 793.25 -81.400390625 794.950195312 -86 796.799804688 -86 c 0
 799.200195312 -86 801 -72.849609375 801.799804688 -49 c 0
 802.549804688 -27.150390625 798.950195312 -6.400390625 791.900390625 8 c 0
 790.200195312 11.400390625 789 13.0498046875 785.650390625 16.2998046875 c 0
 783.400390625 18.5 781.25 21 780.950195312 21.7998046875 c 0
 780 24.150390625 780.25 31.2001953125 781.5 36.5 c 0
 786.5 57.7001953125 801.900390625 88.75 825.75 125.75 c 0
 834.5 139.25 838.150390625 145.200195312 843.349609375 154.25 c 0
 867.549804688 196.400390625 885.700195312 240.25 890.299804688 267.75 c 0
 892 277.950195312 891.099609375 294.700195312 888 310 c 0
 876.799804688 365.650390625 835.950195312 412.349609375 789.450195312 422.700195312 c 0
 770.549804688 426.900390625 755.599609375 425.25 735.799804688 416.75 c 0
 665.549804688 386.700195312 569.599609375 282.950195312 537.849609375 202.700195312 c 0
 532.650390625 189.599609375 531.349609375 184.299804688 522.950195312 142.549804688 c 0
 518.599609375 120.700195312 514.950195312 102.75 514.849609375 102.700195312 c 0
 514.75 102.599609375 509 120.900390625 502.099609375 143.349609375 c 0
 487.150390625 191.700195312 485.049804688 197.5 476.200195312 216 c 0
 462.349609375 244.75 440.450195312 278.200195312 416.25 307.5 c 0
 364.700195312 369.950195312 306.5 414.900390625 265.75 423.599609375 c 0
240.150390625 400.299804688 m 0
 244.650390625 401.150390625 254.799804688 400.900390625 260 399.799804688 c 0
 279.599609375 395.599609375 300.900390625 382.299804688 330.5 355.849609375 c 0
 338.75 348.400390625 370.25 317.099609375 381 305.5 c 0
 442 240 462.75 201 486.200195312 107.700195312 c 0
 488.549804688 98.2998046875 490.950195312 87.9501953125 491.549804688 84.7001953125 c 0
 492.75 78.0498046875 493 69.849609375 492.099609375 66.650390625 c 0
 491.200195312 63.5498046875 488.549804688 60 485.650390625 57.9501953125 c 0
 476.049804688 51.25 455.200195312 49.650390625 384.25 50.150390625 c 0
 345.849609375 50.400390625 337.650390625 50.7001953125 324.75 52.2998046875 c 0
 289.650390625 56.5498046875 272.099609375 68.650390625 243.900390625 108.099609375 c 0
 236.099609375 119.049804688 213.150390625 153.299804688 203.650390625 168.25 c 0
 172.599609375 217.049804688 159.150390625 246.25 155.700195312 272.25 c 0
 154.200195312 283.25 155.299804688 296.75 158.5 307.549804688 c 0
 162.450195312 320.75 170.900390625 336.599609375 183.099609375 353.75 c 0
 203.950195312 383 220.599609375 396.549804688 240.150390625 400.299804688 c 0
764.5 400.299804688 m 0
 770.200195312 401.299804688 779.599609375 400.900390625 785.75 399.299804688 c 0
 803 394.849609375 819.5 380.650390625 838.549804688 353.900390625 c 0
 865.900390625 315.349609375 872.200195312 289.049804688 862.25 254.549804688 c 0
 856.900390625 235.950195312 846 213.650390625 827.599609375 183.5 c 0
 811.75 157.549804688 784.5 116.799804688 771.400390625 99.400390625 c 0
 746.299804688 66.0498046875 728.950195312 55.5498046875 692.75 51.7998046875 c 0
 678.400390625 50.2998046875 656.450195312 49.849609375 614.5 50.150390625 c 0
 592.349609375 50.2998046875 571.099609375 50.7001953125 567.25 50.9501953125 c 0
 534.549804688 53.4501953125 526.75 59.5 529.450195312 80.2998046875 c 0
 531.349609375 94.5498046875 545.150390625 145.799804688 553.5 169.5 c 0
 569.549804688 215 588.299804688 246.25 623.950195312 287 c 0
 644.150390625 310.049804688 674.150390625 340.549804688 694.049804688 358.299804688 c 0
 722.700195312 383.799804688 744.200195312 396.650390625 764.5 400.299804688 c 0
EndSplineSet
EndChar

StartChar: m
Encoding: 109 109 15
Width: 1000
Flags: H
LayerCount: 2
Fore
SplineSet
410.450195312 735.5 m 0
 413.5 736.049804688 418.5 735.599609375 421.700195312 734.5 c 0
 434.349609375 730.150390625 445.5 718.549804688 457.5 697.299804688 c 0
 463.650390625 686.450195312 470.349609375 678.549804688 479.5 671.450195312 c 0
 493.700195312 660.400390625 506.599609375 655.200195312 522.75 654.049804688 c 0
 526.599609375 653.75 531.549804688 653.049804688 533.75 652.5 c 0
 557.099609375 646.349609375 594.599609375 621.599609375 636.75 584.549804688 c 0
 657.849609375 565.950195312 693.650390625 530.799804688 712.849609375 509.75 c 0
 766 451.549804688 806.200195312 396.549804688 827.75 352.75 c 0
 860.599609375 285.849609375 901.150390625 143.5 923.700195312 15.75 c 0
 928.650390625 -12.2998046875 932.049804688 -36.349609375 935.25 -66.75 c 0
 936.849609375 -81.599609375 937.150390625 -89.4501953125 937.349609375 -123.200195312 c 2
 937.599609375 -158.599609375 l 1
 720.650390625 -158.349609375 l 2
 486.450195312 -158.049804688 449.549804688 -157.700195312 395.75 -155.25 c 0
 331.549804688 -152.299804688 301 -146.549804688 293.900390625 -136.150390625 c 0
 291.650390625 -132.950195312 291.25 -130.25 292.25 -125.400390625 c 0
 294.900390625 -112.25 309.349609375 -83 330.950195312 -47 c 0
 341.75 -29.099609375 351.900390625 -13.25 367 9 c 0
 374.349609375 19.849609375 383.299804688 33.25 386.849609375 38.75 c 0
 431.799804688 108.150390625 461.700195312 169.700195312 470.049804688 210 c 0
 471.849609375 218.650390625 472.5 230.150390625 471.549804688 235.799804688 c 0
 468.099609375 255.799804688 449 254.549804688 419.25 232.400390625 c 0
 399.150390625 217.450195312 378.25 197.299804688 348 163.75 c 0
 268.700195312 75.7998046875 208.299804688 38.849609375 159.349609375 48.5 c 0
 132.400390625 53.7998046875 109.200195312 72.900390625 87.2998046875 107.900390625 c 0
 69.900390625 135.650390625 62.599609375 161.349609375 65.0498046875 186.299804688 c 0
 66.599609375 202.450195312 71.25 217.25 80.5498046875 236 c 0
 87.849609375 250.599609375 96.4501953125 264.400390625 109.5 282.25 c 0
 120.349609375 297.099609375 124.549804688 303.599609375 133.599609375 319.5 c 0
 182.700195312 405.650390625 239.599609375 560.150390625 248.799804688 632.200195312 c 0
 249.200195312 635.549804688 249.75 643.700195312 250 650.299804688 c 0
 250.5 663.349609375 251.349609375 670.650390625 253.25 677.849609375 c 0
 258.099609375 696.299804688 267.150390625 706 279.5 706 c 0
 290.5 706 300.150390625 699.599609375 315 682.5 c 0
 339.549804688 654.200195312 355.799804688 648.849609375 368.099609375 665 c 0
 372.799804688 671.150390625 376.599609375 680.25 381.200195312 696.400390625 c 0
 384.549804688 708 387.049804688 714 391.400390625 720.75 c 0
 396.700195312 729.049804688 403.450195312 734.25 410.450195312 735.5 c 0
327.75 495.450195312 m 0
 312.950195312 499.049804688 299.549804688 491.25 295.700195312 476.75 c 0
 294.650390625 472.849609375 294.799804688 464.900390625 296.049804688 459.950195312 c 0
 298.099609375 451.700195312 303.150390625 442.950195312 309.349609375 436.849609375 c 0
 313.700195312 432.599609375 317.650390625 429.950195312 322.75 427.900390625 c 0
 326.599609375 426.299804688 327 426.25 334 426.25 c 0
 340.650390625 426.25 341.5 426.400390625 344.599609375 427.599609375 c 0
 351.150390625 430.200195312 357.099609375 434.900390625 361.299804688 440.799804688 c 0
 364.25 444.900390625 365.099609375 447.450195312 365.049804688 452 c 0
 365.049804688 456.849609375 364.049804688 460.650390625 361.25 466.349609375 c 0
 354.599609375 479.900390625 340.150390625 492.400390625 327.75 495.450195312 c 0
736.349609375 413.549804688 m 0
 734.299804688 414.75 733.900390625 414.75 732.650390625 413.400390625 c 0
 730.900390625 411.5 730.299804688 408.25 730.299804688 401 c 0
 730.299804688 393.25 731.25 387.400390625 734.75 373.450195312 c 0
 741.099609375 348.299804688 752.349609375 315.900390625 766.25 283 c 0
 773.549804688 265.700195312 776.150390625 258.900390625 781.150390625 244.200195312 c 0
 798.849609375 192.049804688 817.25 118.799804688 829.5 51.75 c 0
 830.849609375 44.349609375 833.650390625 27.900390625 835.75 15.25 c 0
 840.150390625 -11.5498046875 843.799804688 -31.900390625 847.950195312 -52.5 c 0
 856.849609375 -96.849609375 864.900390625 -125.650390625 869.150390625 -128.200195312 c 0
 870.200195312 -128.849609375 870.700195312 -128.299804688 871.650390625 -125.25 c 0
 872.5 -122.349609375 872.349609375 -99.7998046875 871.299804688 -86.5 c 0
 868.549804688 -51.0498046875 862.200195312 -0.349609375 854.75 45.25 c 0
 844.25 109.450195312 820.099609375 201.200195312 790.299804688 289.75 c 0
 767 359.099609375 745.799804688 407.75 736.349609375 413.549804688 c 0
552.650390625 400.099609375 m 0
 551.599609375 401.25 549.150390625 401.25 547.25 400.099609375 c 0
 535.349609375 392.799804688 513.599609375 339.049804688 505.049804688 295.75 c 0
 502.5 282.849609375 501.849609375 276.950195312 501.799804688 267 c 0
 501.75 258.900390625 501.849609375 257.549804688 502.650390625 256.349609375 c 0
 503.849609375 254.549804688 505.099609375 254.650390625 507.450195312 256.799804688 c 0
 512.950195312 261.75 522.25 280.5 531.5 305.299804688 c 0
 548.700195312 351.299804688 558.200195312 393.950195312 552.650390625 400.099609375 c 0
492.299804688 382.799804688 m 0
 491.099609375 383.650390625 491.150390625 383.650390625 489.099609375 382.75 c 0
 486.799804688 381.75 482.049804688 377.099609375 477.549804688 371.5 c 0
 457.75 346.799804688 437.900390625 301.700195312 446.099609375 300.099609375 c 0
 453.299804688 298.700195312 477.650390625 334.150390625 488.650390625 362 c 0
 492.900390625 372.75 494.400390625 381.25 492.299804688 382.799804688 c 0
139.900390625 207.450195312 m 0
 138.75 208.75 138.450195312 208.75 136.849609375 207.450195312 c 0
 135.450195312 206.400390625 132.900390625 201.450195312 129.5 193.25 c 0
 122.849609375 177.349609375 108.849609375 158.849609375 96.5 149.799804688 c 0
 91.7001953125 146.25 88.7001953125 143.150390625 88.2001953125 141.25 c 0
 87 136.5 94.25 133.900390625 108.75 133.849609375 c 0
 117.799804688 133.849609375 122.200195312 134.700195312 127.549804688 137.549804688 c 0
 135.349609375 141.700195312 140.450195312 149.400390625 142.849609375 160.5 c 0
 143.599609375 164.049804688 143.75 167.049804688 143.75 178.25 c 0
 143.75 195.299804688 142.5 204.700195312 139.900390625 207.450195312 c 0
205.25 203.349609375 m 0
 202.75 207.099609375 198.099609375 202.150390625 191.799804688 188.900390625 c 0
 187.299804688 179.5 183.650390625 170 177.950195312 153 c 0
 170.75 131.349609375 166.599609375 115.049804688 164.150390625 99 c 0
 163.099609375 91.900390625 162.950195312 78.150390625 163.900390625 75.400390625 c 0
 166.5 68.150390625 171.700195312 69.7998046875 178.25 79.900390625 c 0
 187.299804688 93.9501953125 194.849609375 116.799804688 201.200195312 149.400390625 c 0
 206.849609375 178.099609375 208.349609375 198.599609375 205.25 203.349609375 c 0
EndSplineSet
EndChar

StartChar: o
Encoding: 111 111 16
Width: 1000
Flags: H
LayerCount: 2
Fore
SplineSet
488.75 651.25 m 0
 495.049804688 652.400390625 508.75 651.950195312 515.5 650.349609375 c 0
 534.950195312 645.75 554.349609375 632.849609375 573.5 611.75 c 0
 598.900390625 583.849609375 604.849609375 569.099609375 598.5 549.900390625 c 0
 596.599609375 544.200195312 593.549804688 538.25 586.849609375 527 c 0
 578.549804688 513.150390625 575 504.700195312 575 499 c 0
 575 493.700195312 578.25 488.75 583.950195312 485.299804688 c 0
 587.200195312 483.299804688 595.549804688 479.849609375 602.700195312 477.5 c 0
 621.799804688 471.200195312 652.849609375 449.950195312 672.75 429.450195312 c 0
 681.400390625 420.549804688 694.700195312 405.849609375 697.799804688 401.75 c 0
 705 392.150390625 704.799804688 386.950195312 697 381.75 c 0
 689.200195312 376.549804688 677.700195312 372.400390625 626.25 356.25 c 0
 607.049804688 350.200195312 604.049804688 349 600.700195312 345.950195312 c 0
 595.299804688 340.950195312 595.099609375 335.400390625 599.950195312 325.25 c 0
 605.25 314.150390625 616.150390625 299.849609375 641.5 270.5 c 0
 651.950195312 258.450195312 657.200195312 252.049804688 663.799804688 243.25 c 0
 680.700195312 220.849609375 693.25 198 699.75 177.900390625 c 0
 710.700195312 144.049804688 707.099609375 113.25 689.049804688 86.2001953125 c 0
 681.950195312 75.5498046875 678.599609375 72 653.849609375 48.349609375 c 0
 641.349609375 36.400390625 637.5 31.150390625 636.349609375 24.2998046875 c 0
 635.700195312 20.2998046875 636.450195312 16.7001953125 639.049804688 11.5 c 0
 643.099609375 3.400390625 649.650390625 -4.400390625 672 -28 c 0
 688.849609375 -45.75 695.5 -53.75 703.700195312 -66 c 0
 714.599609375 -82.25 720.599609375 -95.7998046875 721.349609375 -105.75 c 0
 721.700195312 -110.75 721 -113.450195312 718.700195312 -115.950195312 c 0
 709.650390625 -126 659.849609375 -132.950195312 571.75 -136.549804688 c 0
 550.799804688 -137.400390625 473.700195312 -137.700195312 448.5 -137.049804688 c 0
 372 -135.049804688 316.099609375 -129.599609375 292.5 -121.900390625 c 0
 288.5 -120.599609375 283.150390625 -117.950195312 281.650390625 -116.549804688 c 0
 272.849609375 -108.200195312 283.299804688 -81.150390625 306.75 -51.650390625 c 0
 311.400390625 -45.7998046875 316.349609375 -40.2998046875 328 -28 c 0
 350.450195312 -4.2998046875 356.900390625 3.400390625 360.950195312 11.5 c 0
 364.549804688 18.650390625 364.75 23.9501953125 361.799804688 30.0498046875 c 0
 358.849609375 36.0498046875 355.650390625 39.5 332.099609375 61.900390625 c 0
 321.75 71.7998046875 316.599609375 77.7001953125 310.950195312 86.2001953125 c 0
 281.900390625 129.900390625 290.299804688 181.950195312 336.150390625 243.25 c 0
 342.200195312 251.299804688 347.450195312 257.700195312 358.5 270.5 c 0
 384.400390625 300.5 394.900390625 314.349609375 400.25 325.650390625 c 0
 404.900390625 335.450195312 404.650390625 341 399.299804688 345.950195312 c 0
 398 347.099609375 395.5 348.75 393.849609375 349.5 c 0
 392.150390625 350.25 377.849609375 354.950195312 362.099609375 359.950195312 c 0
 346.349609375 364.950195312 329.950195312 370.25 325.599609375 371.799804688 c 0
 303.849609375 379.5 297 384.049804688 297 390.599609375 c 0
 297 395.400390625 300.299804688 400.25 313.049804688 414.25 c 0
 328.700195312 431.450195312 336.349609375 438.849609375 348.400390625 448.400390625 c 0
 366.400390625 462.650390625 384.25 473.099609375 400 478.450195312 c 0
 411.099609375 482.25 416.549804688 485 420.349609375 488.75 c 0
 422.849609375 491.25 423.599609375 492.349609375 424.25 494.75 c 0
 426.299804688 501.700195312 423.599609375 509.5 413.150390625 527 c 0
 410.099609375 532.099609375 406.599609375 538.299804688 405.400390625 540.75 c 0
 393.349609375 564.799804688 397.849609375 580.099609375 426.099609375 611.349609375 c 0
 446.700195312 634.150390625 467.25 647.25 488.75 651.25 c 0
510.75 504.950195312 m 0
 505.549804688 505.599609375 493.849609375 505.549804688 488.75 504.950195312 c 0
 481.299804688 504 471.599609375 500.900390625 469.200195312 498.650390625 c 0
 466.25 495.950195312 469.25 493.650390625 477.75 492.150390625 c 0
 485.200195312 490.849609375 515.049804688 490.849609375 522.25 492.150390625 c 0
 527.799804688 493.200195312 531.349609375 494.5 531.799804688 495.75 c 0
 533.099609375 499.099609375 523.25 503.400390625 510.75 504.950195312 c 0
525 380 m 0
 518.450195312 380.549804688 491.75 381 485.75 380.700195312 c 0
 465.349609375 379.599609375 446.099609375 376.599609375 442.950195312 374.049804688 c 2
 441.799804688 373.150390625 l 1
 443.049804688 372.349609375 l 2
 446.25 370.299804688 457.049804688 369.200195312 481.900390625 368.450195312 c 0
 500.549804688 367.900390625 529.549804688 368.400390625 542 369.5 c 0
 549.200195312 370.150390625 555.400390625 371.349609375 556.950195312 372.349609375 c 2
 558.200195312 373.150390625 l 1
 557.049804688 374.049804688 l 2
 554.450195312 376.150390625 540.900390625 378.700195312 525 380 c 0
526.5 47 m 0
 516.299804688 47.5498046875 482.549804688 47.5498046875 472 46.9501953125 c 0
 454.849609375 46 437.25 43.7001953125 431.650390625 41.7001953125 c 0
 421.299804688 38 448.700195312 35.5 500 35.5 c 0
 556.450195312 35.5 583.150390625 38.4501953125 564.849609375 42.7001953125 c 0
 557.700195312 44.349609375 541.849609375 46.150390625 526.5 47 c 0
EndSplineSet
EndChar

StartChar: p
Encoding: 112 112 17
Width: 1000
Flags: H
LayerCount: 2
Fore
SplineSet
488.75 651.25 m 0
 495.049804688 652.400390625 508.75 651.950195312 515.5 650.349609375 c 0
 534.950195312 645.75 554.349609375 632.849609375 573.599609375 611.650390625 c 0
 598.849609375 583.849609375 604.849609375 569.049804688 598.5 549.900390625 c 0
 596.599609375 544.200195312 593.549804688 538.25 586.849609375 527 c 0
 578.549804688 513.150390625 575 504.700195312 575 499 c 0
 575 493.700195312 578.25 488.75 583.950195312 485.299804688 c 0
 587.150390625 483.349609375 595.549804688 479.849609375 602.5 477.549804688 c 0
 621.950195312 471.150390625 652.599609375 450.150390625 672.75 429.450195312 c 0
 681.400390625 420.549804688 694.700195312 405.849609375 697.799804688 401.75 c 0
 704.700195312 392.549804688 704.799804688 387.549804688 698.049804688 382.450195312 c 0
 691.200195312 377.349609375 681.299804688 373.650390625 636.25 359.400390625 c 0
 621.400390625 354.75 607.849609375 350.25 606.150390625 349.5 c 0
 604.5 348.75 602 347.099609375 600.700195312 345.950195312 c 0
 595.299804688 340.950195312 595.099609375 335.400390625 599.950195312 325.25 c 0
 605.25 314.150390625 616.150390625 299.849609375 641.5 270.5 c 0
 651.950195312 258.450195312 657.200195312 252.049804688 663.799804688 243.25 c 0
 680.700195312 220.849609375 693.25 198 699.75 177.900390625 c 0
 710.700195312 144.049804688 707.099609375 113.25 689.049804688 86.2001953125 c 0
 683.299804688 77.599609375 678.200195312 71.7001953125 667.900390625 61.900390625 c 0
 644.349609375 39.5 641.150390625 36.0498046875 638.200195312 30.0498046875 c 0
 635.25 23.9501953125 635.450195312 18.650390625 639.049804688 11.5 c 0
 643.099609375 3.400390625 649.650390625 -4.400390625 672 -28 c 0
 688.849609375 -45.75 695.5 -53.75 703.700195312 -66 c 0
 714.599609375 -82.25 720.599609375 -95.7998046875 721.349609375 -105.75 c 0
 721.700195312 -110.75 721 -113.450195312 718.700195312 -115.950195312 c 0
 709.650390625 -126 659.849609375 -132.950195312 571.75 -136.549804688 c 0
 550.799804688 -137.400390625 473.700195312 -137.700195312 448.5 -137.049804688 c 0
 372 -135.049804688 316.099609375 -129.599609375 292.5 -121.900390625 c 0
 288.5 -120.599609375 283.150390625 -117.950195312 281.650390625 -116.549804688 c 0
 272.849609375 -108.200195312 283.299804688 -81.150390625 306.75 -51.650390625 c 0
 311.400390625 -45.7998046875 316.349609375 -40.2998046875 328 -28 c 0
 350.450195312 -4.2998046875 356.900390625 3.400390625 360.950195312 11.5 c 0
 364.549804688 18.650390625 364.75 23.9501953125 361.799804688 30.0498046875 c 0
 358.849609375 36.0498046875 355.650390625 39.5 332.099609375 61.900390625 c 0
 321.75 71.7998046875 316.599609375 77.7001953125 310.950195312 86.2001953125 c 0
 281.900390625 129.900390625 290.299804688 181.950195312 336.150390625 243.25 c 0
 342.200195312 251.299804688 347.450195312 257.700195312 358.5 270.5 c 0
 384.400390625 300.5 394.900390625 314.349609375 400.25 325.650390625 c 0
 404.900390625 335.450195312 404.650390625 341 399.299804688 345.950195312 c 0
 398 347.099609375 395.5 348.75 393.849609375 349.5 c 0
 392.150390625 350.25 377.849609375 354.950195312 362.099609375 359.950195312 c 0
 325.25 371.599609375 312.75 376.049804688 306 379.900390625 c 0
 295.25 386.049804688 294.25 391.099609375 301.849609375 401.25 c 0
 307.950195312 409.400390625 329.049804688 431.849609375 338 439.700195312 c 0
 359.150390625 458.299804688 381.150390625 472 400 478.450195312 c 0
 411.099609375 482.25 416.549804688 485 420.349609375 488.75 c 0
 422.849609375 491.25 423.599609375 492.349609375 424.25 494.75 c 0
 426.299804688 501.700195312 423.599609375 509.5 413.150390625 527 c 0
 410.099609375 532.099609375 406.599609375 538.299804688 405.400390625 540.75 c 0
 393.299804688 564.849609375 397.900390625 580.349609375 426.5 611.75 c 0
 447.099609375 634.450195312 467.299804688 647.25 488.75 651.25 c 0
507.700195312 627.799804688 m 0
 504.599609375 628.950195312 499.450195312 629.650390625 497 629.200195312 c 0
 490.349609375 628 482.549804688 623.200195312 470.849609375 613.099609375 c 0
 440.049804688 586.650390625 429.700195312 573 429.849609375 559.200195312 c 0
 429.950195312 551.5 434.099609375 543 442 534.349609375 c 0
 451.950195312 523.450195312 470.900390625 513.299804688 488 509.650390625 c 0
 494 508.400390625 506.700195312 508.400390625 512.25 509.650390625 c 0
 534 514.700195312 552.900390625 526.25 563.099609375 540.75 c 0
 577.5 561.099609375 570.900390625 576.650390625 534.25 608.700195312 c 0
 520.150390625 621.049804688 514.150390625 625.349609375 507.700195312 627.799804688 c 0
511.599609375 478 m 0
 483.75 479.849609375 457.25 475.450195312 433.900390625 465.049804688 c 0
 384.599609375 443.099609375 343.700195312 412.200195312 346.200195312 398.799804688 c 0
 347.5 391.950195312 360.700195312 387.900390625 388.75 385.799804688 c 0
 412.099609375 384 426.700195312 383.75 500 383.75 c 0
 573.299804688 383.75 587.900390625 384 611.25 385.799804688 c 0
 635.049804688 387.599609375 648.599609375 390.900390625 652.349609375 395.849609375 c 0
 655.099609375 399.450195312 654 404.099609375 648.700195312 411.150390625 c 0
 644.950195312 416.049804688 629.299804688 431.349609375 623 436.200195312 c 0
 591.549804688 460.5 552.400390625 475.200195312 511.599609375 478 c 0
505 361.400390625 m 0
 500.150390625 362.900390625 496.650390625 362.349609375 490.349609375 359.200195312 c 0
 451.849609375 339.900390625 346.549804688 221.849609375 319.349609375 167.5 c 0
 312.75 154.400390625 311.599609375 149.299804688 313.400390625 142.200195312 c 0
 318.299804688 123.150390625 342.799804688 88.650390625 359 78.0498046875 c 0
 382.099609375 62.9501953125 418.150390625 53.5498046875 468.5 49.400390625 c 0
 479.099609375 48.5498046875 521.650390625 48.5498046875 532.25 49.400390625 c 0
 582.150390625 53.5 617.950195312 62.900390625 640.799804688 77.9501953125 c 0
 657.950195312 89.25 679.400390625 116.549804688 685.849609375 135.25 c 0
 686.950195312 138.5 687.200195312 140.150390625 687.200195312 144 c 0
 687.200195312 148.150390625 687 149.400390625 685.349609375 154.150390625 c 0
 679 172.700195312 658.349609375 204.450195312 627.700195312 242.75 c 0
 579.25 303.349609375 525.75 355.049804688 505 361.400390625 c 0
518.799804688 28.5 m 0
 511.349609375 29.099609375 487.549804688 29.0498046875 480.349609375 28.4501953125 c 0
 444.650390625 25.5 418.650390625 14.7998046875 390.25 -8.7001953125 c 0
 379.299804688 -17.75 359 -38.75 342.950195312 -57.5498046875 c 0
 325.5 -78.0498046875 312.099609375 -97.650390625 312.599609375 -102 c 0
 313.549804688 -110.299804688 393.5 -116.5 500 -116.5 c 0
 588.099609375 -116.5 661.200195312 -112.150390625 681.450195312 -105.75 c 0
 686 -104.299804688 687.5 -103.299804688 687.5 -101.799804688 c 0
 687.5 -97.0498046875 674 -77.4501953125 657.049804688 -57.5498046875 c 0
 642.549804688 -40.5498046875 622.549804688 -19.650390625 612.25 -10.75 c 0
 583.75 13.849609375 555.700195312 25.650390625 518.799804688 28.5 c 0
EndSplineSet
EndChar

StartChar: q
Encoding: 113 113 18
Width: 1000
Flags: H
LayerCount: 2
Fore
SplineSet
514.950195312 714.099609375 m 0
 518.650390625 715.549804688 524.799804688 715.150390625 529 713.099609375 c 0
 534.700195312 710.349609375 540.900390625 705.150390625 553.799804688 692.25 c 0
 570.950195312 675.150390625 576.900390625 667.400390625 579.799804688 658.25 c 0
 583.700195312 645.950195312 581.049804688 635.650390625 568.5 614.450195312 c 0
 560.650390625 601.200195312 557.25 592.700195312 554.799804688 580.5 c 0
 552.849609375 570.650390625 552.349609375 564.650390625 552.349609375 551.25 c 0
 552.349609375 529.5 555 507.400390625 562.049804688 470 c 0
 566.25 447.799804688 587.200195312 343.25 590.75 327 c 0
 594.849609375 308 599.950195312 287.450195312 602.299804688 280.25 c 0
 605.700195312 269.700195312 609.200195312 264 612.200195312 264 c 0
 614.549804688 264 617.150390625 266.650390625 622.349609375 274.5 c 0
 630.700195312 286.950195312 636.150390625 299.700195312 640.450195312 316.799804688 c 0
 643.650390625 329.400390625 644.599609375 336.450195312 646 356.25 c 0
 646.599609375 365.299804688 648 373.450195312 651 385.25 c 0
 656.099609375 405.299804688 663.25 424.75 673 445 c 0
 676.25 451.75 679.650390625 459.299804688 680.650390625 461.75 c 0
 687 478.049804688 691.799804688 498.599609375 693.700195312 517.099609375 c 0
 695.400390625 534 695.200195312 544.950195312 692.799804688 559.599609375 c 0
 690.5 573.5 690.049804688 583.200195312 691 594.5 c 0
 693.650390625 625.099609375 706.450195312 649.200195312 724.799804688 658.400390625 c 0
 733.099609375 662.549804688 743.349609375 662.700195312 752.25 658.75 c 0
 759.75 655.450195312 768.700195312 647.549804688 773.900390625 639.75 c 0
 781.5 628.299804688 787 612.799804688 789.75 595 c 0
 790.849609375 587.75 791.299804688 571.200195312 790.549804688 563.75 c 0
 788.599609375 544.5 782.950195312 529.099609375 774.099609375 518.75 c 0
 770.799804688 514.900390625 768.200195312 509.650390625 765.049804688 500.25 c 0
 757.700195312 478.349609375 749.849609375 440.400390625 744.25 399.599609375 c 0
 742.5 386.950195312 737.650390625 344.5 735.299804688 320.75 c 0
 731.849609375 286.849609375 731.549804688 271.200195312 734.299804688 270.150390625 c 0
 737.349609375 269 741.400390625 275 757.299804688 304.099609375 c 0
 769.599609375 326.599609375 776.5 338 789.150390625 357 c 0
 804.349609375 379.75 818.25 398.25 831 412.75 c 0
 846.450195312 430.299804688 856.450195312 444.950195312 866.049804688 464.099609375 c 0
 872.799804688 477.650390625 875.849609375 485.849609375 878.75 498.75 c 0
 881.950195312 512.900390625 889.400390625 526.950195312 898.5 536 c 0
 905.950195312 543.450195312 912.400390625 546.25 921.5 546.200195312 c 0
 927.599609375 546.200195312 930.599609375 545.25 935.650390625 541.799804688 c 0
 939.75 539 943.049804688 534.849609375 946 528.75 c 0
 950 520.599609375 951.549804688 513 951.549804688 501.599609375 c 0
 951.549804688 488.450195312 948.75 476.900390625 942.700195312 465 c 0
 940.950195312 461.549804688 938 456.75 936.150390625 454.299804688 c 0
 924.900390625 439.549804688 920.900390625 432.950195312 910.900390625 412.700195312 c 0
 867.75 325.400390625 805.5 138.5 784.799804688 34 c 0
 783.599609375 27.7998046875 781.650390625 16.900390625 780.5 9.75 c 0
 773.950195312 -31.2998046875 772.049804688 -41.5 768.400390625 -55.75 c 0
 762.299804688 -79.7998046875 753.450195312 -97.25 742.400390625 -107.299804688 c 0
 722.150390625 -125.599609375 693.349609375 -133 630.5 -136 c 0
 585.099609375 -138.150390625 471.650390625 -137.849609375 421.25 -135.5 c 0
 370.200195312 -133.099609375 335.950195312 -128.700195312 315.349609375 -121.950195312 c 0
 307 -119.25 301.950195312 -116.5 297.900390625 -112.5 c 0
 295 -109.599609375 294.150390625 -108.25 290.849609375 -101.450195312 c 0
 284.599609375 -88.650390625 278.400390625 -70.2001953125 272.75 -47.5 c 0
 267.700195312 -27.2998046875 265.450195312 -16.2001953125 261 10.7001953125 c 0
 255.200195312 45.7998046875 247 80.7998046875 233.200195312 129.5 c 0
 197.299804688 256.099609375 144.5 395.700195312 115.599609375 440.5 c 0
 114.099609375 442.849609375 110.950195312 447.200195312 108.549804688 450.25 c 0
 100.349609375 460.700195312 95.4501953125 470.450195312 92.5 482.200195312 c 0
 87.650390625 501.349609375 89.9501953125 521.450195312 98.400390625 533.849609375 c 0
 104.400390625 542.650390625 112.599609375 546.950195312 122 546.349609375 c 0
 130.349609375 545.799804688 136.150390625 542.900390625 143.299804688 535.799804688 c 0
 148.5 530.549804688 153.349609375 523.549804688 156.950195312 516 c 0
 160.099609375 509.400390625 161.599609375 504.849609375 163.549804688 496.150390625 c 0
 167.25 479.700195312 176.299804688 460.150390625 189.349609375 440.299804688 c 0
 196.25 429.799804688 200.549804688 424.25 211.5 411.75 c 0
 229.700195312 391.049804688 254.400390625 356 272.5 325.25 c 0
 274.75 321.400390625 280 312.099609375 284.099609375 304.5 c 0
 296.75 281.299804688 300 275.950195312 303.650390625 272.150390625 c 0
 307.099609375 268.549804688 308.200195312 269.299804688 309.049804688 275.5 c 0
 309.799804688 281.049804688 308.599609375 300.25 306 324.75 c 0
 299.349609375 386.900390625 297.5 401.75 292.950195312 428.599609375 c 0
 286.450195312 467.299804688 278.400390625 499.200195312 271.900390625 512.25 c 0
 271.049804688 513.900390625 269 516.950195312 267.25 519.099609375 c 0
 259.25 528.950195312 254.200195312 541.599609375 251.700195312 558.25 c 0
 250.349609375 567.25 250.450195312 585.25 251.950195312 595 c 0
 256.25 623.299804688 267 644.400390625 282.5 654.849609375 c 0
 302.049804688 668.049804688 323.099609375 661.75 337.5 638.25 c 0
 345.799804688 624.799804688 350.299804688 607.700195312 350.849609375 587.700195312 c 0
 351.150390625 576.549804688 350.700195312 570.549804688 348.599609375 558.5 c 0
 347.349609375 551.25 347.25 549.799804688 347.25 535.75 c 0
 347.299804688 523.099609375 347.450195312 519.450195312 348.400390625 512.700195312 c 0
 351.849609375 487.200195312 357.799804688 466.900390625 367.5 447.5 c 0
 379.450195312 423.650390625 389.049804688 395.799804688 393.75 371.599609375 c 0
 395 365.099609375 395.349609375 361.349609375 396.5 345.049804688 c 0
 397.75 327.400390625 403 306.5 410.200195312 290.5 c 0
 413.099609375 284.049804688 420.599609375 271.799804688 423.900390625 268 c 0
 426.099609375 265.5 428.25 264 429.700195312 264 c 0
 431.200195312 264 434.049804688 267.150390625 435.700195312 270.700195312 c 0
 441.849609375 283.650390625 448.599609375 312.950195312 468.950195312 415.75 c 0
 483.650390625 490.049804688 485.849609375 502.799804688 488.349609375 527.5 c 0
 489.549804688 539.950195312 489.549804688 563.349609375 488.299804688 572.150390625 c 0
 486 588.599609375 481.900390625 600.049804688 472.950195312 614.799804688 c 0
 452.650390625 648.349609375 455.349609375 660.900390625 490.150390625 694.799804688 c 0
 502.650390625 706.950195312 508.400390625 711.450195312 514.950195312 714.099609375 c 0
527.599609375 669.299804688 m 0
 513.900390625 671.900390625 498.75 666.799804688 492.349609375 657.400390625 c 0
 489.349609375 652.950195312 488.349609375 649.150390625 488.650390625 643 c 0
 488.900390625 637.150390625 490.099609375 633.150390625 493.049804688 628.200195312 c 0
 495.25 624.549804688 500.150390625 619.549804688 503.849609375 617.349609375 c 0
 510.5 613.299804688 519.700195312 611.599609375 526 613.200195312 c 0
 536.950195312 616 548 624.950195312 552.599609375 634.849609375 c 0
 559.349609375 649.25 547.599609375 665.450195312 527.599609375 669.299804688 c 0
310.400390625 626.200195312 m 0
 305.5 628.650390625 300.5 627.450195312 293.700195312 622.25 c 0
 285 615.549804688 280.200195312 607.900390625 277.150390625 595.700195312 c 0
 275.849609375 590.650390625 275.75 589.5 275.75 580.25 c 0
 275.799804688 571.549804688 275.900390625 569.650390625 276.900390625 565.799804688 c 0
 278.299804688 560.299804688 280.849609375 553.75 283.950195312 547.75 c 0
 287 541.849609375 292.099609375 536.5 295.650390625 535.5 c 0
 300.200195312 534.25 304.849609375 535.849609375 310.849609375 540.599609375 c 0
 316.400390625 545 319.849609375 549.200195312 322.799804688 555.25 c 0
 330.599609375 571.299804688 330.799804688 590.650390625 323.299804688 608.150390625 c 0
 318.950195312 618.349609375 314.950195312 623.950195312 310.400390625 626.200195312 c 0
747.900390625 626.200195312 m 0
 743 628.650390625 738 627.450195312 731.200195312 622.25 c 0
 722.5 615.549804688 717.700195312 607.900390625 714.650390625 595.700195312 c 0
 713.349609375 590.650390625 713.25 589.5 713.25 580.25 c 0
 713.299804688 571.549804688 713.400390625 569.650390625 714.400390625 565.799804688 c 0
 715.799804688 560.299804688 718.349609375 553.75 721.450195312 547.75 c 0
 724.5 541.849609375 729.599609375 536.5 733.150390625 535.5 c 0
 737.700195312 534.25 742.349609375 535.849609375 748.349609375 540.599609375 c 0
 753.900390625 545 757.349609375 549.200195312 760.299804688 555.25 c 0
 768.099609375 571.299804688 768.299804688 590.650390625 760.799804688 608.150390625 c 0
 756.450195312 618.349609375 752.450195312 623.950195312 747.900390625 626.200195312 c 0
131.25 507 m 0
 123.349609375 509.700195312 115.049804688 507.900390625 112.400390625 502.849609375 c 0
 109.700195312 497.700195312 111.650390625 490.950195312 118.599609375 481.75 c 0
 125.299804688 472.900390625 132.450195312 466.950195312 136.5 466.799804688 c 0
 140.900390625 466.700195312 144.299804688 472.75 145.5 482.700195312 c 0
 146.900390625 494.450195312 141.650390625 503.450195312 131.25 507 c 0
522.799804688 507.549804688 m 0
 521.950195312 508.049804688 521.150390625 508.5 521 508.450195312 c 0
 514.650390625 507.700195312 506.25 487 498.799804688 453.75 c 0
 495.650390625 439.700195312 493 424.849609375 489.75 402.5 c 0
 474.349609375 296.650390625 465 260.75 448.75 245.549804688 c 0
 443.200195312 240.400390625 437.599609375 238.150390625 429 237.650390625 c 0
 409.549804688 236.599609375 399.049804688 246.599609375 388.950195312 275.900390625 c 0
 382.650390625 294.25 376.25 320.849609375 364.25 379 c 0
 357.75 410.599609375 351.349609375 431.799804688 344.200195312 445.549804688 c 0
 334.200195312 464.799804688 325.849609375 460.200195312 322.75 433.75 c 0
 320.549804688 414.650390625 321.450195312 389.349609375 325.75 350.900390625 c 0
 330.25 310.900390625 331.549804688 294.5 331.599609375 278 c 0
 331.650390625 259.299804688 329.849609375 250.549804688 324.650390625 244.150390625 c 0
 322.400390625 241.349609375 317 238.700195312 312 237.950195312 c 0
 307.450195312 237.25 298.950195312 237.650390625 294.5 238.799804688 c 0
 288.849609375 240.200195312 282.400390625 243.650390625 278.5 247.349609375 c 0
 273.599609375 251.950195312 271.650390625 256 270.700195312 263.400390625 c 0
 269.849609375 270.549804688 268.200195312 275.349609375 263.200195312 285.549804688 c 0
 254.799804688 302.650390625 239.549804688 325.849609375 224.299804688 344.75 c 0
 216.400390625 354.599609375 166.5 414.049804688 166.5 413.650390625 c 0
 166.5 413.450195312 185.25 362.049804688 208.200195312 299.5 c 2
 249.849609375 185.75 l 1
 520.799804688 185.650390625 l 1
 791.75 185.5 l 1
 827.5 283.150390625 l 2
 847.150390625 336.799804688 865.950195312 388.25 869.349609375 397.450195312 c 0
 873.950195312 410.150390625 875.150390625 413.900390625 874.299804688 412.950195312 c 0
 872.549804688 411.099609375 822.900390625 351.650390625 817.150390625 344.5 c 0
 794 315.650390625 773.5 280.950195312 771.5 266.950195312 c 0
 771.200195312 264.900390625 770.75 261.900390625 770.5 260.25 c 0
 768.400390625 246.700195312 752.150390625 236.650390625 734 237.700195312 c 0
 723 238.299804688 717.599609375 241.349609375 714 249.099609375 c 0
 711.349609375 254.799804688 710.450195312 260.25 710.150390625 273.299804688 c 0
 709.75 289.75 710.849609375 305.049804688 715.25 344.75 c 0
 719.400390625 382.200195312 720.25 395.849609375 719.849609375 416 c 0
 719.400390625 438 717.150390625 450.049804688 712.650390625 455.049804688 c 0
 710.450195312 457.5 708.700195312 457.900390625 706.049804688 456.5 c 0
 699.900390625 453.400390625 692.75 438.450195312 685.75 414.049804688 c 0
 682.650390625 403.25 679.950195312 391.400390625 675 367.5 c 0
 660.549804688 297.400390625 652.25 268.400390625 642.099609375 252.5 c 0
 639.5 248.450195312 634.150390625 243.150390625 630.75 241.25 c 0
 626.5 238.900390625 623.049804688 238 617 237.650390625 c 0
 592.950195312 236.349609375 581 252.150390625 569.549804688 300.400390625 c 0
 564.349609375 322.299804688 559.200195312 352.150390625 551.75 403.5 c 0
 547.700195312 431.349609375 544.349609375 448.950195312 539.75 466.75 c 0
 534 489.099609375 527.5 504.700195312 522.799804688 507.549804688 c 0
923.599609375 507.400390625 m 0
 914.200195312 510.549804688 901.950195312 505 897.599609375 495.650390625 c 0
 895.099609375 490.150390625 895.599609375 479.5 898.75 472.599609375 c 0
 900.349609375 469.099609375 901.650390625 467.700195312 903.799804688 467 c 0
 905.25 466.5 905.849609375 466.599609375 908.099609375 467.650390625 c 0
 913.049804688 469.950195312 919.900390625 476.799804688 925.25 484.75 c 0
 928.75 489.950195312 930.049804688 493.049804688 930.349609375 496.799804688 c 0
 930.799804688 501.900390625 928.299804688 505.849609375 923.599609375 507.400390625 c 0
564.25 174 m 0
 544.5 174.549804688 495 174.549804688 475 173.950195312 c 0
 348.849609375 170.400390625 284.450195312 152.849609375 272.700195312 118.75 c 0
 271.450195312 115.200195312 271.299804688 113.900390625 271.099609375 106.650390625 c 0
 270.700195312 90.400390625 273.150390625 81.9501953125 279.400390625 77.9501953125 c 0
 283.450195312 75.349609375 286.349609375 74.75 294.75 74.7998046875 c 0
 306.099609375 74.849609375 310.650390625 75.599609375 354.75 84.7001953125 c 0
 392.849609375 92.5498046875 449.75 98.7001953125 501.75 100.549804688 c 0
 542.200195312 102 600.700195312 98.099609375 653.5 90.4501953125 c 0
 669.099609375 88.2001953125 679.200195312 86.400390625 697.25 82.5498046875 c 0
 726.549804688 76.349609375 736.299804688 74.7998046875 747 74.7998046875 c 0
 756.150390625 74.75 760.049804688 75.7998046875 763.849609375 79.2001953125 c 0
 768.700195312 83.5498046875 770.5 90.2001953125 770.650390625 104.25 c 0
 770.75 113.650390625 770.25 116.5 767.5 122.450195312 c 0
 752.650390625 154.299804688 688.450195312 170.549804688 564.25 174 c 0
538 82.5 m 0
 499.799804688 84.150390625 460.700195312 80.400390625 408.5 70 c 0
 329.25 54.2001953125 304 46.5 292.099609375 34.5 c 0
 283.150390625 25.4501953125 282.650390625 12.2001953125 290.049804688 -23.4501953125 c 0
 299.099609375 -67.2001953125 310.950195312 -86.4501953125 336.25 -98.75 c 0
 356.549804688 -108.599609375 382.849609375 -112.950195312 438 -115.549804688 c 0
 455.5 -116.349609375 548.299804688 -116.700195312 572 -116.049804688 c 0
 647.5 -113.900390625 693.549804688 -108 713.700195312 -97.900390625 c 0
 719.849609375 -94.849609375 722.700195312 -92.349609375 726.200195312 -87.099609375 c 0
 740.349609375 -65.75 753.75 -24.099609375 756.599609375 7.2998046875 c 0
 758.299804688 25.900390625 753.150390625 35.2001953125 736.75 43.25 c 0
 725 49 709.400390625 53.599609375 677.25 60.75 c 0
 612.700195312 75.0498046875 575.650390625 80.849609375 538 82.5 c 0
EndSplineSet
EndChar

StartChar: r
Encoding: 114 114 19
Width: 1000
Flags: H
LayerCount: 2
Fore
SplineSet
250.25 716 m 0
 253.299804688 716.200195312 268.150390625 716.349609375 283.25 716.25 c 0
 304.849609375 716.150390625 312.099609375 715.900390625 316.950195312 715.299804688 c 0
 337.549804688 712.650390625 346.25 707.450195312 350.650390625 695.150390625 c 0
 352.849609375 689.150390625 353.5 683.75 354.049804688 668.25 c 0
 354.700195312 648.849609375 355.950195312 641 359.950195312 631.450195312 c 0
 365.900390625 617.349609375 378.299804688 610.150390625 391.400390625 613.25 c 0
 396.099609375 614.349609375 399.400390625 616.25 403.299804688 620.200195312 c 0
 407.599609375 624.5 410.400390625 629.349609375 412.700195312 636.5 c 0
 415.299804688 644.549804688 416 649.700195312 416.5 665 c 0
 417.200195312 685.75 418.150390625 691.799804688 421.599609375 698.650390625 c 0
 423.400390625 702.25 427.700195312 706.650390625 431.25 708.599609375 c 0
 439.299804688 712.900390625 450.700195312 714.950195312 472.5 716.049804688 c 0
 486.299804688 716.700195312 549.799804688 716.349609375 558.75 715.549804688 c 0
 589.25 712.799804688 599.349609375 706.400390625 602.75 687.849609375 c 0
 603.200195312 685.400390625 603.700195312 677.75 604 668.799804688 c 0
 604.650390625 648.900390625 605.900390625 641.049804688 609.950195312 631.450195312 c 0
 615.900390625 617.349609375 628.299804688 610.150390625 641.400390625 613.25 c 0
 646.099609375 614.349609375 649.400390625 616.25 653.299804688 620.200195312 c 0
 657.599609375 624.5 660.400390625 629.349609375 662.700195312 636.5 c 0
 665.25 644.349609375 666 649.75 666.5 664 c 0
 667.049804688 679.950195312 667.349609375 683 668.549804688 689.25 c 0
 672.200195312 707.650390625 682.799804688 713.950195312 713.650390625 716.049804688 c 0
 726.049804688 716.900390625 769.849609375 716.400390625 777.75 715.299804688 c 0
 799.799804688 712.349609375 807.549804688 705.400390625 810.700195312 685.75 c 0
 812.349609375 675.25 813.049804688 647.099609375 812 633.700195312 c 0
 809.650390625 604.450195312 800.400390625 574.349609375 788.849609375 558.5 c 0
 787.75 557 784.349609375 553.150390625 781.25 550 c 0
 774.849609375 543.400390625 771.950195312 539 768.400390625 530.650390625 c 0
 747.5 481.349609375 745.950195312 363.650390625 764.299804688 225 c 0
 766.799804688 206 768.400390625 195.400390625 774.299804688 158.25 c 0
 788.75 67.5 798.049804688 5.2998046875 811.400390625 -88.849609375 c 2
 818.299804688 -137.5 l 1
 510.400390625 -137.5 l 1
 202.450195312 -137.5 l 1
 202.75 -135.900390625 l 2
 202.900390625 -135 206.849609375 -107.25 211.549804688 -74.25 c 0
 223.150390625 7.7001953125 233.049804688 73.5 246.450195312 157.75 c 0
 254.349609375 207.5 257.599609375 230.5 261 261.5 c 0
 266.599609375 312.900390625 269.099609375 354.5 269.099609375 398.5 c 0
 269.150390625 451 265.299804688 489.150390625 257.150390625 517.200195312 c 0
 252.549804688 533.150390625 247.799804688 541.849609375 239.049804688 550.5 c 0
 232.75 556.75 229.150390625 561.950195312 224.450195312 571.700195312 c 0
 216.700195312 587.849609375 210.849609375 610.400390625 208.950195312 631.900390625 c 0
 208.150390625 641.25 208.650390625 675.200195312 209.700195312 683 c 0
 211.25 693.900390625 213.700195312 700.650390625 217.900390625 705.150390625 c 0
 224.049804688 711.75 232.700195312 714.650390625 250.25 716 c 0
298.75 694.950195312 m 0
 292.25 695.700195312 277.75 696 270.450195312 695.5 c 0
 248.650390625 694.099609375 237.650390625 687.900390625 232.700195312 674.299804688 c 0
 228.799804688 663.599609375 228.099609375 644.700195312 231 628.5 c 0
 235.799804688 601.849609375 247.650390625 577.75 258.849609375 571.849609375 c 0
 280.700195312 560.450195312 347.25 552.849609375 450 549.950195312 c 0
 474.799804688 549.25 546.150390625 549.25 571 549.950195312 c 0
 675.349609375 552.900390625 744 560.950195312 763.25 572.549804688 c 0
 774.049804688 579.049804688 786.25 605.299804688 790.299804688 630.75 c 0
 791.349609375 637.549804688 791.799804688 654.450195312 791.049804688 661 c 0
 788.700195312 681.099609375 780.799804688 690.25 762.650390625 693.950195312 c 0
 748.5 696.849609375 723.349609375 696.25 711.25 692.75 c 0
 700.549804688 689.650390625 693.75 682.950195312 690.549804688 672.25 c 0
 688.700195312 666.150390625 688 659.25 687.5 644 c 0
 686.900390625 623.400390625 685.5 615.349609375 681.25 607.75 c 0
 679.5 604.599609375 675.049804688 600 671.950195312 598.099609375 c 0
 669.049804688 596.349609375 663.599609375 594.450195312 658.349609375 593.450195312 c 0
 648.549804688 591.549804688 630.75 591.150390625 618.25 592.549804688 c 0
 600.549804688 594.549804688 591.200195312 600.900390625 586.799804688 614.049804688 c 0
 584.650390625 620.450195312 584 626.200195312 583.5 642.5 c 0
 583.200195312 650.900390625 582.75 659.799804688 582.450195312 662.25 c 0
 579.900390625 683.400390625 571.5 691.049804688 547.5 694.200195312 c 0
 536.849609375 695.599609375 512.700195312 696.25 494.849609375 695.549804688 c 0
 486.299804688 695.25 477.349609375 694.75 475 694.5 c 0
 457.25 692.400390625 447.549804688 687.599609375 442.799804688 678.549804688 c 0
 439.099609375 671.400390625 438.099609375 665.150390625 437.5 644.75 c 0
 436.900390625 623.400390625 435.549804688 615.450195312 431.25 607.75 c 0
 429.5 604.599609375 425.049804688 600 421.950195312 598.099609375 c 0
 419.049804688 596.349609375 413.599609375 594.450195312 408.349609375 593.450195312 c 0
 398.549804688 591.549804688 380.75 591.150390625 368.25 592.549804688 c 0
 350.549804688 594.549804688 341.200195312 600.900390625 336.799804688 614.049804688 c 0
 334.700195312 620.299804688 334 626.25 333.5 641.5 c 0
 332.950195312 657.849609375 332.400390625 663.799804688 330.75 670.25 c 0
 326.900390625 685.400390625 317.400390625 692.75 298.75 694.950195312 c 0
726 527.599609375 m 2
 726 529 l 1
 510.549804688 529 l 1
 295.099609375 529 l 1
 294.799804688 524.400390625 l 2
 294.400390625 518.299804688 287.650390625 361.200195312 287 341.549804688 c 0
 285.599609375 301.950195312 285.599609375 239.400390625 287 221.75 c 0
 287.900390625 210.099609375 288.950195312 204.849609375 290.400390625 204.049804688 c 0
 300 198.900390625 409.5 195.450195312 539.25 196.200195312 c 0
 619.400390625 196.650390625 668.75 197.900390625 702.25 200.25 c 0
 722.200195312 201.700195312 729.799804688 203 731.25 205.200195312 c 0
 732.200195312 206.650390625 733.299804688 214.099609375 734 224 c 0
 734.900390625 236.150390625 735.200195312 288.950195312 734.549804688 315.25 c 0
 733.849609375 344.650390625 733.700195312 347.849609375 729.5 445.75 c 0
 727.549804688 490 726 526.849609375 726 527.599609375 c 2
577.75 174 m 0
 552 174.549804688 466.049804688 174.549804688 439.25 173.950195312 c 0
 352.349609375 172.049804688 292.799804688 166.700195312 285.299804688 160.099609375 c 0
 281.200195312 156.400390625 272.099609375 124.450195312 263.799804688 84.349609375 c 0
 261.5 73.400390625 245.5 -11.099609375 245.5 -12.150390625 c 0
 245.5 -12.349609375 364.75 -12.5 510.5 -12.5 c 2
 775.5 -12.5 l 1
 775.25 -11.349609375 l 2
 775.099609375 -10.75 771.650390625 7.75 767.5 29.75 c 0
 757.299804688 84.2998046875 755 95.5 749.200195312 118.75 c 0
 742.150390625 146.849609375 737.900390625 159 734.400390625 160.799804688 c 0
 721.5 167.5 667.25 172.049804688 577.75 174 c 0
649.75 -34 m 0
 616.5 -33.4501953125 400.75 -33.5 366.25 -34.0498046875 c 0
 271.549804688 -35.599609375 240.75 -40.599609375 232.599609375 -55.900390625 c 0
 229.950195312 -60.7998046875 229.349609375 -64.5498046875 229.349609375 -75 c 0
 229.349609375 -81.900390625 229.549804688 -85.099609375 230.150390625 -87.650390625 c 0
 235 -107.549804688 256 -112.700195312 343.25 -115.549804688 c 0
 353.450195312 -115.900390625 410.450195312 -116.200195312 485.25 -116.349609375 c 0
 606.450195312 -116.599609375 661.25 -116.25 693.25 -115 c 0
 767.25 -112.150390625 787.25 -106.299804688 790.799804688 -86.5498046875 c 0
 791.700195312 -81.4501953125 791.700195312 -68.099609375 790.799804688 -63.2998046875 c 0
 788.5 -51.4501953125 780.700195312 -45.5 762 -41.2998046875 c 0
 742.5 -37 712.400390625 -35.0498046875 649.75 -34 c 0
EndSplineSet
EndChar

StartChar: t
Encoding: 116 116 20
Width: 1000
Flags: H
LayerCount: 2
Fore
SplineSet
250.25 716 m 0
 253.299804688 716.200195312 268.150390625 716.349609375 283.25 716.25 c 0
 304.849609375 716.150390625 312.099609375 715.900390625 316.950195312 715.299804688 c 0
 337.549804688 712.650390625 346.25 707.450195312 350.650390625 695.150390625 c 0
 352.849609375 689.150390625 353.5 683.75 354.049804688 668.25 c 0
 354.700195312 648.849609375 355.950195312 641 359.950195312 631.450195312 c 0
 365.900390625 617.349609375 378.299804688 610.150390625 391.400390625 613.25 c 0
 396.099609375 614.349609375 399.400390625 616.25 403.299804688 620.200195312 c 0
 407.599609375 624.5 410.400390625 629.349609375 412.700195312 636.5 c 0
 415.299804688 644.549804688 416 649.700195312 416.5 665 c 0
 417.200195312 685.75 418.150390625 691.799804688 421.599609375 698.650390625 c 0
 423.400390625 702.25 427.700195312 706.650390625 431.25 708.599609375 c 0
 439.299804688 712.900390625 450.700195312 714.950195312 472.5 716.049804688 c 0
 486.299804688 716.700195312 549.799804688 716.349609375 558.75 715.549804688 c 0
 589.25 712.799804688 599.349609375 706.400390625 602.75 687.849609375 c 0
 603.200195312 685.400390625 603.700195312 677.75 604 668.799804688 c 0
 604.650390625 648.900390625 605.900390625 641.049804688 609.950195312 631.450195312 c 0
 615.900390625 617.349609375 628.299804688 610.150390625 641.400390625 613.25 c 0
 646.099609375 614.349609375 649.400390625 616.25 653.299804688 620.200195312 c 0
 657.599609375 624.5 660.400390625 629.349609375 662.700195312 636.5 c 0
 665.25 644.349609375 666 649.75 666.5 664 c 0
 667.049804688 679.950195312 667.349609375 683 668.549804688 689.25 c 0
 672.200195312 707.650390625 682.799804688 713.950195312 713.650390625 716.049804688 c 0
 726.049804688 716.900390625 769.849609375 716.400390625 777.75 715.299804688 c 0
 799.799804688 712.349609375 807.549804688 705.400390625 810.700195312 685.75 c 0
 812.349609375 675.25 813.049804688 647.099609375 812 633.700195312 c 0
 810.400390625 613.75 805.450195312 592.5 798.650390625 576.5 c 0
 793.799804688 565.099609375 789.549804688 558.549804688 781.299804688 550 c 0
 774.549804688 543 771.849609375 538.900390625 768.200195312 530.150390625 c 0
 747.5 480.849609375 746 363 764.299804688 225 c 0
 766.799804688 206 768.400390625 195.400390625 774.299804688 158.25 c 0
 788.75 67.5 798.049804688 5.2998046875 811.400390625 -88.849609375 c 2
 818.299804688 -137.5 l 1
 510.400390625 -137.5 l 1
 202.450195312 -137.5 l 1
 202.75 -135.900390625 l 2
 202.900390625 -135 206.849609375 -107.25 211.549804688 -74.25 c 0
 223.150390625 7.7001953125 233.049804688 73.5 246.450195312 157.75 c 0
 254.349609375 207.5 257.599609375 230.5 261 261.5 c 0
 266.599609375 312.900390625 269.099609375 354.5 269.099609375 398.5 c 0
 269.150390625 451 265.299804688 489.150390625 257.150390625 517.200195312 c 0
 252.549804688 533.150390625 247.799804688 541.849609375 239.049804688 550.5 c 0
 232.75 556.75 229.150390625 561.950195312 224.450195312 571.700195312 c 0
 216.700195312 587.849609375 210.849609375 610.400390625 208.950195312 631.900390625 c 0
 208.150390625 641.25 208.650390625 675.200195312 209.700195312 683 c 0
 211.25 693.900390625 213.700195312 700.650390625 217.900390625 705.150390625 c 0
 224.049804688 711.75 232.700195312 714.650390625 250.25 716 c 0
573.75 547 m 0
 558.299804688 547.400390625 483.75 547.549804688 467.25 547.150390625 c 0
 436.900390625 546.5 395.450195312 544.549804688 384.25 543.25 c 0
 374.849609375 542.200195312 371.799804688 541.549804688 372.549804688 540.799804688 c 0
 373.549804688 539.799804688 388.25 538.75 415 537.900390625 c 0
 440.950195312 537.049804688 583.799804688 537.049804688 610.25 537.900390625 c 0
 645.900390625 539.049804688 658.450195312 540.200195312 653.950195312 541.950195312 c 0
 649.400390625 543.650390625 613.599609375 545.900390625 573.75 547 c 0
593 192.5 m 0
 572 193.200195312 486.150390625 193.5 462 193 c 0
 417.549804688 192.049804688 372.549804688 189.799804688 362.549804688 188 c 0
 358.150390625 187.200195312 358.299804688 186.75 363.25 186.049804688 c 0
 368.25 185.299804688 381.75 184.599609375 405.25 183.900390625 c 0
 433.5 183.049804688 591.650390625 183.049804688 620 183.900390625 c 0
 651.5 184.849609375 666.5 185.799804688 667.700195312 187 c 0
 669.5 188.799804688 639.349609375 191 593 192.5 c 0
572.75 -15.5 m 0
 550.900390625 -15.099609375 465.950195312 -15 441.25 -15.349609375 c 0
 385 -16.150390625 327 -19.0498046875 327 -21 c 0
 327 -23.5 394.200195312 -25 508.5 -25 c 0
 625.75 -25 690.900390625 -23.5 686.650390625 -20.849609375 c 0
 683.75 -19.0498046875 632.599609375 -16.650390625 572.75 -15.5 c 0
EndSplineSet
EndChar

StartChar: v
Encoding: 118 118 21
Width: 1000
Flags: H
LayerCount: 2
Fore
SplineSet
505.049804688 758 m 0
 509.349609375 758.599609375 516.349609375 758.099609375 520.950195312 756.950195312 c 0
 543.200195312 751.299804688 559.950195312 726.650390625 558.849609375 701.25 c 0
 558.349609375 689.950195312 554.799804688 681.099609375 547.25 672.299804688 c 0
 542.150390625 666.349609375 540.900390625 663.549804688 540.900390625 658 c 0
 540.950195312 653.400390625 541.900390625 649.650390625 544.450195312 644.349609375 c 0
 550.900390625 630.849609375 565.299804688 614.549804688 591.849609375 590.650390625 c 0
 608.049804688 576 618.599609375 564.599609375 630.549804688 548.650390625 c 0
 673.099609375 492.099609375 708.349609375 405.400390625 722.700195312 322 c 0
 724.700195312 310.599609375 726.549804688 296.75 727.849609375 283.5 c 0
 728.950195312 272.349609375 729.099609375 236.099609375 728.099609375 226.75 c 0
 725.25 200.75 719.549804688 181.900390625 710.150390625 167.849609375 c 0
 706.700195312 162.650390625 703.25 158.950195312 693.5 149.950195312 c 0
 687.099609375 144.049804688 683.25 138.950195312 681.150390625 133.650390625 c 0
 679.900390625 130.599609375 679.799804688 129.599609375 679.799804688 124.25 c 0
 679.799804688 119.099609375 680 117.650390625 681.200195312 114 c 0
 683.200195312 107.950195312 687.099609375 100 692.75 90.5 c 0
 701.599609375 75.599609375 705.049804688 67.7998046875 706 60.349609375 c 0
 707.099609375 51.400390625 704.25 43.849609375 696.150390625 34.349609375 c 0
 689.25 26.2001953125 681 19.4501953125 641.549804688 -10.5 c 0
 616.700195312 -29.349609375 615 -30.75 616.549804688 -30.849609375 c 0
 617.5 -30.9501953125 630.299804688 -31.650390625 645 -32.5 c 0
 737 -37.650390625 748.650390625 -38.349609375 765.25 -39.75 c 0
 782.049804688 -41.150390625 793 -42.5 802.5 -44.2998046875 c 0
 827.700195312 -49 838.299804688 -55.9501953125 842.349609375 -70.5 c 0
 843.650390625 -75.25 843.650390625 -95.2001953125 842.349609375 -100 c 0
 840.450195312 -107 836.75 -112.549804688 831.75 -116 c 0
 817.849609375 -125.549804688 792.299804688 -129.650390625 724 -133.25 c 0
 636.799804688 -137.849609375 604.150390625 -133.599609375 574.150390625 -113.700195312 c 0
 568.549804688 -110 562 -104.900390625 557.25 -100.549804688 c 0
 553.400390625 -97.0498046875 515.25 -61.25 510.950195312 -57.099609375 c 2
 507.099609375 -53.4501953125 l 1
 486.599609375 -76.099609375 l 2
 474.650390625 -89.2998046875 464.650390625 -99.900390625 462.650390625 -101.450195312 c 0
 439 -120.200195312 391.099609375 -133.900390625 332.25 -138.700195312 c 0
 275.5 -143.400390625 222.799804688 -138.25 194.849609375 -125.349609375 c 0
 187 -121.700195312 179.950195312 -116.25 176.700195312 -111.200195312 c 0
 174.849609375 -108.299804688 172.200195312 -100.950195312 170.450195312 -94 c 0
 168.799804688 -87.2001953125 168.75 -75.349609375 170.349609375 -70.25 c 0
 174.450195312 -57.400390625 186.349609375 -48 205.900390625 -42.2998046875 c 0
 217.25 -38.9501953125 229.049804688 -36.7998046875 244.5 -35.2998046875 c 0
 264.849609375 -33.2998046875 275.150390625 -33 351.150390625 -32.5498046875 c 2
 406.099609375 -32.25 l 1
 380.200195312 -12.25 l 2
 336 21.900390625 329.849609375 27.099609375 322.349609375 36.900390625 c 0
 316.950195312 43.900390625 314.75 49.599609375 314.799804688 56.75 c 0
 314.799804688 65.400390625 317.900390625 73.4501953125 327.200195312 89 c 0
 333 98.650390625 338.150390625 109.25 339.799804688 114.75 c 0
 341.599609375 120.900390625 341.700195312 127.75 340.049804688 132.599609375 c 0
 338.25 137.950195312 334.549804688 143.099609375 328.349609375 149 c 0
 316.299804688 160.450195312 313.599609375 163.299804688 310.5 168 c 0
 292.599609375 195.25 287.200195312 243.200195312 295.299804688 303.5 c 0
 307.049804688 391.599609375 344.349609375 487.75 390.450195312 548.849609375 c 0
 403.75 566.5 411.950195312 575.349609375 430.25 591.75 c 0
 459.549804688 618.049804688 475.650390625 637.799804688 479.25 652 c 0
 481.099609375 659.200195312 479.549804688 665.75 474.799804688 670.950195312 c 0
 469.049804688 677.25 465.900390625 682.599609375 463.700195312 689.75 c 0
 462.400390625 694 462.299804688 694.799804688 462.299804688 703.5 c 0
 462.299804688 711.950195312 462.400390625 713.200195312 463.650390625 717.650390625 c 0
 469.549804688 739.450195312 485.799804688 755.349609375 505.049804688 758 c 0
516.5 465.950195312 m 0
 515.25 466.25 512.349609375 466.450195312 510 466.450195312 c 0
 494.349609375 466.400390625 483.700195312 453.450195312 480.25 430.25 c 0
 479.849609375 427.5 479.299804688 419.400390625 479.049804688 412.25 c 0
 478.5 398.049804688 477.700195312 392.200195312 475.450195312 385.25 c 0
 473.450195312 379.25 471.450195312 375.900390625 467.549804688 371.950195312 c 0
 461.200195312 365.599609375 451.5 362.5 437.75 362.5 c 0
 428.900390625 362.5 420.799804688 360.5 412.900390625 356.450195312 c 0
 409.75 354.799804688 407.700195312 353.25 404.5 350 c 0
 398.299804688 343.849609375 396 338.75 396 331.25 c 0
 396 323.75 398.299804688 318.650390625 404.5 312.5 c 0
 407.700195312 309.25 409.75 307.700195312 412.900390625 306.099609375 c 0
 421.049804688 301.849609375 426.25 300.599609375 438.5 300 c 0
 448.349609375 299.5 453.700195312 298.599609375 458.599609375 296.5 c 0
 466.900390625 293.049804688 472.200195312 287 475.450195312 277.25 c 0
 477.700195312 270.299804688 478.5 264.450195312 479.049804688 250.25 c 0
 479.299804688 243.099609375 479.849609375 235 480.25 232.25 c 0
 483.700195312 209 494.450195312 195.950195312 510.200195312 196 c 0
 515.150390625 196.049804688 517.849609375 196.599609375 521.549804688 198.450195312 c 0
 527.5 201.400390625 531.599609375 205.950195312 535.349609375 213.849609375 c 0
 539.450195312 222.450195312 541.200195312 232.349609375 541.700195312 249.75 c 0
 542.049804688 261.549804688 542.650390625 267.049804688 544.299804688 273.5 c 0
 546.700195312 282.900390625 551.200195312 289.900390625 557.700195312 294.049804688 c 0
 563.599609375 297.900390625 569.650390625 299.349609375 582.75 300 c 0
 593 300.5 598.799804688 301.75 605.25 304.700195312 c 0
 631.400390625 316.799804688 631.5 345.349609375 605.450195312 357.75 c 0
 599.25 360.700195312 593.049804688 362 582.75 362.5 c 0
 569.650390625 363.150390625 563.599609375 364.599609375 557.700195312 368.450195312 c 0
 551.200195312 372.599609375 546.700195312 379.599609375 544.299804688 389 c 0
 542.650390625 395.450195312 542.049804688 400.950195312 541.700195312 412.75 c 0
 541.200195312 430.150390625 539.450195312 440.049804688 535.349609375 448.650390625 c 0
 530.700195312 458.349609375 524.400390625 464.150390625 516.5 465.950195312 c 0
547.25 130 m 0
 538.549804688 130.549804688 485.650390625 131.049804688 477 130.700195312 c 0
 434 129 407.450195312 125.150390625 420.900390625 122.599609375 c 0
 424.950195312 121.799804688 432.5 121.099609375 445.25 120.400390625 c 0
 460.650390625 119.5 554.900390625 119.5 570.75 120.400390625 c 0
 583.650390625 121.099609375 594.150390625 122.200195312 596.299804688 123 c 0
 597.650390625 123.549804688 597.700195312 123.599609375 596.799804688 124.25 c 0
 594.299804688 126.099609375 574.349609375 128.450195312 547.25 130 c 0
530.5 26.5 m 0
 523.5 26.75 516.200195312 26.9501953125 514.25 26.900390625 c 0
 512.349609375 26.849609375 508.400390625 26.75 505.5 26.650390625 c 0
 479.299804688 26 449 21.9501953125 449 19.0498046875 c 0
 449 17.349609375 458.849609375 15.900390625 477 15 c 0
 489.799804688 14.349609375 535.900390625 14.349609375 549.25 15 c 0
 565.299804688 15.7998046875 576.75 17.349609375 577.700195312 18.9501953125 c 0
 578.650390625 20.4501953125 572.799804688 22.2998046875 561.900390625 23.9501953125 c 0
 552.400390625 25.349609375 545.049804688 26 530.5 26.5 c 0
EndSplineSet
EndChar

StartChar: w
Encoding: 119 119 22
Width: 1000
Flags: H
LayerCount: 2
Fore
SplineSet
514.950195312 714.099609375 m 0
 518.650390625 715.549804688 524.799804688 715.150390625 529 713.099609375 c 0
 534.700195312 710.349609375 540.900390625 705.150390625 553.799804688 692.25 c 0
 570.950195312 675.150390625 576.900390625 667.400390625 579.799804688 658.25 c 0
 583.700195312 645.950195312 581.049804688 635.650390625 568.5 614.450195312 c 0
 560.650390625 601.200195312 557.25 592.700195312 554.799804688 580.5 c 0
 552.849609375 570.650390625 552.349609375 564.650390625 552.349609375 551.25 c 0
 552.349609375 529.5 555 507.400390625 562.049804688 470 c 0
 566.25 447.799804688 587.200195312 343.25 590.75 327 c 0
 594.849609375 308 599.950195312 287.450195312 602.299804688 280.25 c 0
 605.700195312 269.700195312 609.200195312 264 612.200195312 264 c 0
 614.549804688 264 617.150390625 266.650390625 622.349609375 274.5 c 0
 630.700195312 286.950195312 636.150390625 299.700195312 640.450195312 316.799804688 c 0
 643.650390625 329.400390625 644.599609375 336.450195312 646 356.25 c 0
 646.599609375 365.299804688 648 373.450195312 651 385.25 c 0
 656.099609375 405.299804688 663.25 424.75 673 445 c 0
 676.25 451.75 679.650390625 459.299804688 680.650390625 461.75 c 0
 687 478.049804688 691.799804688 498.599609375 693.700195312 517.099609375 c 0
 695.400390625 534 695.200195312 544.950195312 692.799804688 559.599609375 c 0
 690.5 573.5 690.049804688 583.200195312 691 594.5 c 0
 693.650390625 625.099609375 706.450195312 649.200195312 724.799804688 658.400390625 c 0
 733.099609375 662.549804688 743.349609375 662.700195312 752.25 658.75 c 0
 759.75 655.450195312 768.700195312 647.549804688 773.900390625 639.75 c 0
 781.5 628.299804688 787 612.799804688 789.75 595 c 0
 790.849609375 587.75 791.299804688 571.200195312 790.549804688 563.75 c 0
 788.599609375 544.5 782.950195312 529.099609375 774.099609375 518.75 c 0
 770.799804688 514.900390625 768.200195312 509.650390625 765.049804688 500.25 c 0
 757.700195312 478.349609375 749.849609375 440.400390625 744.25 399.599609375 c 0
 742.5 386.950195312 737.650390625 344.5 735.299804688 320.75 c 0
 731.849609375 286.849609375 731.549804688 271.200195312 734.299804688 270.150390625 c 0
 737.349609375 269 741.400390625 275 757.299804688 304.099609375 c 0
 769.599609375 326.599609375 776.5 338 789.150390625 357 c 0
 804.349609375 379.75 818.25 398.25 831 412.75 c 0
 846.450195312 430.299804688 856.450195312 444.950195312 866.049804688 464.099609375 c 0
 872.799804688 477.650390625 875.849609375 485.849609375 878.75 498.75 c 0
 881.950195312 512.900390625 889.400390625 526.950195312 898.5 536 c 0
 905.950195312 543.450195312 912.400390625 546.25 921.5 546.200195312 c 0
 927.599609375 546.200195312 930.599609375 545.25 935.650390625 541.799804688 c 0
 939.75 539 943.049804688 534.849609375 946 528.75 c 0
 950 520.599609375 951.549804688 513 951.549804688 501.599609375 c 0
 951.549804688 488.450195312 948.75 476.900390625 942.700195312 465 c 0
 940.950195312 461.549804688 938 456.75 936.150390625 454.299804688 c 0
 924.900390625 439.549804688 920.900390625 432.950195312 910.900390625 412.700195312 c 0
 867.75 325.400390625 805.5 138.5 784.799804688 34 c 0
 783.599609375 27.7998046875 781.650390625 16.900390625 780.5 9.75 c 0
 775.599609375 -20.75 774.349609375 -28.2998046875 772.450195312 -37.75 c 0
 763.150390625 -84.25 751.099609375 -105.400390625 726.5 -118.400390625 c 0
 707.049804688 -128.700195312 680.299804688 -133.549804688 630.25 -136 c 0
 585.950195312 -138.150390625 471.400390625 -137.849609375 421.25 -135.5 c 0
 370.200195312 -133.099609375 335.950195312 -128.700195312 315.349609375 -121.950195312 c 0
 307 -119.25 301.950195312 -116.5 297.900390625 -112.5 c 0
 295 -109.599609375 294.150390625 -108.25 290.849609375 -101.450195312 c 0
 284.599609375 -88.650390625 278.400390625 -70.2001953125 272.75 -47.5 c 0
 267.700195312 -27.2998046875 265.450195312 -16.2001953125 261 10.7001953125 c 0
 255.200195312 45.7998046875 247 80.7998046875 233.200195312 129.5 c 0
 197.299804688 256.099609375 144.5 395.700195312 115.599609375 440.5 c 0
 114.099609375 442.849609375 110.950195312 447.200195312 108.549804688 450.25 c 0
 100.349609375 460.700195312 95.4501953125 470.450195312 92.5 482.200195312 c 0
 87.650390625 501.349609375 89.9501953125 521.450195312 98.400390625 533.849609375 c 0
 104.400390625 542.650390625 112.599609375 546.950195312 122 546.349609375 c 0
 130.349609375 545.799804688 136.150390625 542.900390625 143.299804688 535.799804688 c 0
 148.5 530.549804688 153.349609375 523.549804688 156.950195312 516 c 0
 160.099609375 509.400390625 161.599609375 504.849609375 163.549804688 496.150390625 c 0
 167.25 479.700195312 176.299804688 460.150390625 189.349609375 440.299804688 c 0
 196.25 429.799804688 200.549804688 424.25 211.5 411.75 c 0
 229.700195312 391.049804688 254.400390625 356 272.5 325.25 c 0
 274.75 321.400390625 280 312.099609375 284.099609375 304.5 c 0
 296.75 281.299804688 300 275.950195312 303.650390625 272.150390625 c 0
 307.099609375 268.549804688 308.200195312 269.299804688 309.049804688 275.5 c 0
 309.799804688 281.049804688 308.599609375 300.25 306 324.75 c 0
 299.349609375 386.900390625 297.5 401.75 292.950195312 428.599609375 c 0
 286.450195312 467.299804688 278.400390625 499.200195312 271.900390625 512.25 c 0
 271.049804688 513.900390625 269 516.950195312 267.25 519.099609375 c 0
 259.25 528.950195312 254.200195312 541.599609375 251.700195312 558.25 c 0
 250.349609375 567.25 250.450195312 585.25 251.950195312 595 c 0
 256.25 623.299804688 267 644.400390625 282.5 654.849609375 c 0
 302.049804688 668.049804688 323.099609375 661.75 337.5 638.25 c 0
 345.799804688 624.799804688 350.299804688 607.700195312 350.849609375 587.700195312 c 0
 351.150390625 576.549804688 350.700195312 570.549804688 348.599609375 558.5 c 0
 347.349609375 551.25 347.25 549.799804688 347.25 535.75 c 0
 347.299804688 523.099609375 347.450195312 519.450195312 348.400390625 512.700195312 c 0
 351.849609375 487.200195312 357.799804688 466.900390625 367.5 447.5 c 0
 379.450195312 423.650390625 389.049804688 395.799804688 393.75 371.599609375 c 0
 395 365.099609375 395.349609375 361.349609375 396.5 345.049804688 c 0
 397.75 327.400390625 403 306.5 410.200195312 290.5 c 0
 413.099609375 284.049804688 420.599609375 271.799804688 423.900390625 268 c 0
 426.099609375 265.5 428.25 264 429.700195312 264 c 0
 431.200195312 264 434.049804688 267.150390625 435.700195312 270.700195312 c 0
 441.849609375 283.650390625 448.599609375 312.950195312 468.950195312 415.75 c 0
 483.650390625 490.049804688 485.849609375 502.799804688 488.349609375 527.5 c 0
 489.549804688 539.950195312 489.549804688 563.349609375 488.299804688 572.150390625 c 0
 486 588.599609375 481.900390625 600.049804688 472.950195312 614.799804688 c 0
 452.650390625 648.349609375 455.349609375 660.900390625 490.150390625 694.799804688 c 0
 502.650390625 706.950195312 508.400390625 711.450195312 514.950195312 714.099609375 c 0
581.75 190 m 0
 559 190.700195312 501.099609375 191 479.150390625 190.5 c 0
 402.599609375 188.799804688 331.599609375 183.650390625 303.599609375 177.75 c 0
 299.400390625 176.900390625 296.5 175.75 296.5 175.049804688 c 0
 296.5 171.950195312 321.400390625 169.200195312 366.5 167.25 c 0
 451.700195312 163.650390625 600.349609375 163.75 681.25 167.5 c 0
 722.700195312 169.450195312 745 172.049804688 745 175.049804688 c 0
 745 176.400390625 737.450195312 178.25 724 180.200195312 c 0
 693.200195312 184.599609375 641.900390625 188.150390625 581.75 190 c 0
543 108.200195312 m 0
 534.599609375 109 517.900390625 109.5 512 109.200195312 c 0
 479.849609375 107.5 452.25 101.900390625 374 81 c 0
 335.150390625 70.650390625 310.400390625 63.349609375 307.099609375 61.2001953125 c 0
 306.5 60.7998046875 306.099609375 60.2001953125 306.299804688 59.900390625 c 0
 307 58.7998046875 320.5 60.150390625 349.650390625 64.25 c 0
 394.450195312 70.599609375 436.599609375 74.75 485.25 77.599609375 c 0
 499.5 78.4501953125 542.400390625 78.4501953125 556.5 77.599609375 c 0
 605.599609375 74.7001953125 645.25 70.7998046875 690.25 64.5 c 0
 701.799804688 62.900390625 714.5 61.2001953125 718.5 60.75 c 0
 727.400390625 59.75 735.049804688 59.5498046875 735.349609375 60.2998046875 c 0
 735.900390625 61.900390625 717.549804688 67.650390625 675.5 78.9501953125 c 0
 601.299804688 98.900390625 570.650390625 105.650390625 543 108.200195312 c 0
EndSplineSet
EndChar

StartChar: D
Encoding: 68 68 23
Width: 1000
Flags: H
LayerCount: 2
Fore
SplineSet
74.0498046875 724.150390625 m 1
 148.099609375 800 l 1
 158.150390625 800 l 1
 168.150390625 800 l 1
 159.200195312 790.849609375 l 2
 154.299804688 785.849609375 119.099609375 749.849609375 81.0498046875 710.849609375 c 2
 11.900390625 640 l 1
 5.9501953125 640 l 1
 0 640 l 1
 0 644.150390625 l 1
 0 648.299804688 l 1
 74.0498046875 724.150390625 l 1
308.75 799.200195312 m 2
 313.450195312 799.549804688 317.799804688 799.900390625 318.5 799.900390625 c 0
 319.599609375 799.950195312 319.25 799.450195312 315.950195312 796.349609375 c 0
 311.400390625 792.099609375 230 712.900390625 230 712.75 c 0
 230 712.700195312 231.549804688 713.049804688 233.400390625 713.549804688 c 0
 243.099609375 716 262.75 716.799804688 296 716.049804688 c 0
 316.75 715.549804688 320.099609375 715.25 329.150390625 713 c 0
 331.299804688 712.450195312 334.400390625 711.450195312 336.049804688 710.700195312 c 2
 339.099609375 709.299804688 l 1
 384.099609375 754.650390625 l 1
 429.099609375 800 l 1
 439.099609375 800 l 1
 449.099609375 800 l 1
 399.150390625 749.700195312 l 2
 371.700195312 722.049804688 349.299804688 699.150390625 349.349609375 698.799804688 c 0
 349.400390625 698.5 350 696.650390625 350.700195312 694.650390625 c 0
 352.549804688 689.599609375 353.349609375 683.150390625 354 669 c 0
 355.099609375 644.75 357.049804688 635.200195312 363 625.799804688 c 0
 367 619.5 375 613.75 380.650390625 613.150390625 c 2
 382.75 612.950195312 l 1
 398.849609375 629.099609375 l 1
 415 645.25 l 1
 415.450195312 649 l 2
 415.75 651.049804688 416.200195312 658.400390625 416.5 665.25 c 0
 417.349609375 685.75 418.200195312 691.25 421.299804688 697.799804688 c 0
 423.650390625 702.849609375 428.900390625 707.75 434.25 709.950195312 c 0
 442.400390625 713.349609375 454.25 715.150390625 474.25 716 c 2
 486.25 716.5 l 1
 527.900390625 758.25 l 1
 569.549804688 800 l 1
 579.400390625 799.900390625 l 1
 589.25 799.75 l 1
 547.900390625 758.25 l 1
 506.599609375 716.75 l 1
 511.900390625 716.650390625 l 1
 562.099609375 715.5 564.400390625 715.400390625 574 713.5 c 0
 587.799804688 710.849609375 595.5 706.099609375 599.5 697.75 c 0
 600.599609375 695.5 601.5 693.400390625 601.5 693.099609375 c 0
 601.5 692.75 601.650390625 692.5 601.900390625 692.5 c 0
 602.099609375 692.5 626.450195312 716.700195312 656 746.25 c 2
 709.75 800 l 1
 719.75 800 l 1
 729.75 800 l 1
 666.849609375 737.099609375 l 1
 604 674.25 l 1
 604 669.75 l 2
 604 654.200195312 606.099609375 640.75 609.849609375 631.799804688 c 0
 615.099609375 619.25 626.150390625 611.650390625 637.599609375 612.700195312 c 0
 649.150390625 613.75 658 622.200195312 662.700195312 636.650390625 c 0
 665.299804688 644.650390625 665.75 648.400390625 667 673.5 c 0
 667.900390625 691.849609375 670.25 699.450195312 676.900390625 705.549804688 c 0
 680.650390625 709.049804688 685.150390625 711.200195312 692.150390625 713 c 0
 703.349609375 715.799804688 709.450195312 716.200195312 739.150390625 716.25 c 2
 766.049804688 716.299804688 l 1
 807.900390625 758.150390625 l 1
 849.75 800 l 1
 859.75 800 l 1
 869.75 800 l 1
 826.900390625 757.150390625 l 1
 784 714.25 l 1
 787.650390625 713.400390625 l 2
 793 712.099609375 799.049804688 708.950195312 802.25 705.75 c 0
 807.400390625 700.599609375 810.299804688 691.900390625 811.549804688 677.75 c 0
 812.849609375 663.400390625 812.349609375 631.200195312 810.700195312 622.25 c 0
 810.450195312 621.049804688 828.950195312 639.299804688 900.099609375 710.400390625 c 2
 989.75 800 l 1
 994.900390625 800 l 1
 1000 800 l 1
 1000 795.150390625 l 1
 1000 790.25 l 1
 902.549804688 692.75 l 1
 805.099609375 595.25 l 1
 803.75 590.75 l 2
 800.700195312 580.5 795.099609375 568.049804688 790.200195312 560.700195312 c 0
 788.700195312 558.400390625 784.150390625 553.099609375 779.799804688 548.599609375 c 0
 775.099609375 543.700195312 770.900390625 538.75 769 535.900390625 c 0
 758.200195312 519.75 751 495.049804688 747.75 463 c 0
 746.849609375 454.200195312 746.099609375 417.5 746.799804688 417.5 c 0
 747.049804688 417.5 801.799804688 472.049804688 868.5 538.75 c 2
 989.75 660 l 1
 994.849609375 660 l 1
 1000 660 l 1
 1000 655.150390625 l 1
 1000 650.25 l 1
 873.650390625 523.900390625 l 1
 747.299804688 397.549804688 l 1
 747.900390625 389.900390625 l 2
 749.299804688 373.099609375 752.349609375 349.549804688 755.75 329.5 c 0
 757.549804688 318.950195312 762.5 293.950195312 762.849609375 293.5 c 0
 762.950195312 293.400390625 814.049804688 344.299804688 876.400390625 406.650390625 c 2
 989.75 520 l 1
 994.900390625 520 l 1
 1000 520 l 1
 1000 515.150390625 l 1
 1000 510.25 l 1
 883.25 393.5 l 1
 766.549804688 276.75 l 1
 769.049804688 267 l 2
 772.650390625 253 776.099609375 240.400390625 779.799804688 228.049804688 c 0
 783.25 216.549804688 793.25 186.150390625 793.900390625 185.150390625 c 0
 794.200195312 184.700195312 825.450195312 215.700195312 892 282.25 c 2
 989.650390625 380 l 1
 994.799804688 380 l 1
 1000 380 l 1
 1000 375.150390625 l 1
 1000 370.25 l 1
 899.650390625 269.900390625 l 1
 799.349609375 169.599609375 l 1
 803.5 158.900390625 l 2
 805.799804688 153.049804688 809.900390625 142.950195312 812.599609375 136.5 c 0
 818.450195312 122.700195312 834.5 86.4501953125 835 85.849609375 c 0
 835.200195312 85.599609375 869.950195312 120.200195312 912.299804688 162.700195312 c 2
 989.200195312 240 l 1
 994.599609375 240 l 1
 1000 240 l 1
 1000 235.349609375 l 1
 1000 230.75 l 1
 920.700195312 151.099609375 l 1
 841.400390625 71.4501953125 l 1
 848.75 54.849609375 l 2
 858.099609375 33.7998046875 869.700195312 6.650390625 874.75 -6.099609375 c 0
 876.950195312 -11.5498046875 878.849609375 -16 879.049804688 -16 c 0
 879.400390625 -16 982.5 83 994.650390625 94.9501953125 c 2
 1000 100.25 l 1
 1000 91.2001953125 l 1
 1000 82.150390625 l 1
 942.049804688 25.599609375 l 1
 884.099609375 -31 l 1
 886.549804688 -38.400390625 l 2
 892.25 -55.849609375 895 -69 895.349609375 -81.150390625 c 0
 895.650390625 -90.400390625 895.150390625 -94.849609375 893.25 -100.549804688 c 0
 889.150390625 -112.599609375 879.049804688 -121.150390625 862.400390625 -126.650390625 c 0
 846.200195312 -132.049804688 820.400390625 -135.349609375 787.299804688 -136.349609375 c 2
 775.799804688 -136.650390625 l 1
 743.450195312 -168.349609375 l 1
 711.049804688 -200 l 1
 705.549804688 -200 l 1
 700 -200 l 1
 700 -194.5 l 1
 700 -189.049804688 l 1
 726.75 -163.200195312 l 2
 741.450195312 -149 753.5 -137.349609375 753.5 -137.299804688 c 0
 753.5 -137.25 726.400390625 -137.299804688 693.25 -137.400390625 c 2
 633 -137.650390625 l 1
 601.900390625 -168.799804688 l 1
 570.799804688 -200 l 1
 560.799804688 -200 l 1
 550.799804688 -200 l 1
 581.799804688 -168.900390625 l 1
 612.75 -137.75 l 1
 552.75 -137.599609375 l 1
 492.75 -137.450195312 l 1
 461.599609375 -168.75 l 1
 430.5 -200 l 1
 420.599609375 -199.900390625 l 1
 410.75 -199.75 l 1
 441.700195312 -168.599609375 l 1
 472.650390625 -137.5 l 1
 464.799804688 -137.5 l 2
 460.5 -137.5 457 -137.299804688 457 -137.049804688 c 0
 457 -136.849609375 457.450195312 -130.5 458 -122.950195312 c 0
 461.099609375 -80.2998046875 463.549804688 -33.599609375 462.799804688 -29.7998046875 c 2
 462.400390625 -27.849609375 l 1
 376.349609375 -113.900390625 l 1
 290.25 -200 l 1
 280.25 -200 l 1
 270.25 -200 l 1
 365.950195312 -104.299804688 l 1
 461.650390625 -8.599609375 l 1
 461.25 -5.2001953125 l 2
 460.150390625 5.599609375 457.849609375 14.900390625 455.650390625 17.5498046875 c 0
 454.450195312 19 454.099609375 19.099609375 451.950195312 18.900390625 c 0
 445.75 18.2998046875 432.950195312 10 413.75 -5.849609375 c 0
 401.75 -15.75 390.650390625 -26.0498046875 368.5 -47.75 c 0
 357.900390625 -58.150390625 345.75 -69.900390625 341.5 -73.900390625 c 0
 297.650390625 -114.799804688 254 -137.450195312 219 -137.5 c 2
 212.75 -137.5 l 1
 181.5 -168.75 l 1
 150.25 -200 l 1
 140.25 -200 l 1
 130.25 -200 l 1
 162.650390625 -167.599609375 l 1
 195.049804688 -135.200195312 l 1
 190 -133.599609375 l 2
 183.950195312 -131.599609375 174.299804688 -126.900390625 168.5 -123.150390625 c 0
 156.200195312 -115.099609375 144.700195312 -103.150390625 134 -87.2001953125 c 2
 129.599609375 -80.650390625 l 1
 69.9501953125 -140.299804688 l 1
 10.25 -200 l 1
 5.150390625 -200 l 1
 0 -200 l 1
 0 -195.099609375 l 1
 0 -190.25 l 1
 61.2001953125 -129.049804688 l 1
 122.400390625 -67.849609375 l 1
 120.650390625 -64.0498046875 l 2
 111.450195312 -44.150390625 107.349609375 -29.400390625 105.950195312 -10.849609375 c 0
 104.549804688 6.9501953125 107.75 24.7998046875 115.299804688 41.7001953125 c 2
 118 47.75 l 1
 64.150390625 -6.099609375 l 1
 10.25 -60 l 1
 5.099609375 -60 l 1
 0 -60 l 1
 0 -55.099609375 l 1
 0 -50.25 l 1
 76.5498046875 26.25 l 1
 153.049804688 102.75 l 1
 156 108.5 l 1
 174.099609375 144.400390625 200.5 214.25 220.75 279.75 c 0
 223.099609375 287.450195312 225.150390625 294.099609375 225.299804688 294.5 c 0
 225.450195312 294.900390625 177.099609375 246.799804688 117.900390625 187.650390625 c 2
 10.25 80 l 1
 5.099609375 80 l 1
 0 80 l 1
 0 84.900390625 l 1
 0 89.75 l 1
 116.549804688 206.25 l 2
 180.599609375 270.349609375 233.299804688 323.150390625 233.549804688 323.599609375 c 0
 233.799804688 324.099609375 235.599609375 330.200195312 237.5 337.25 c 0
 249.5 381.400390625 257.75 419.700195312 261.75 449.75 c 0
 262.900390625 458.400390625 264.5 473.599609375 264.299804688 473.849609375 c 0
 264.25 473.900390625 207.049804688 416.849609375 137.25 347 c 2
 10.2998046875 220 l 1
 5.150390625 220 l 1
 0 220 l 1
 0 224.900390625 l 1
 0 229.75 l 1
 132.299804688 362 l 1
 264.599609375 494.25 l 1
 264.299804688 499.650390625 l 2
 263.549804688 512.650390625 259.650390625 525.5 253.650390625 534.75 c 0
 252.549804688 536.400390625 247.450195312 542.25 242.25 547.700195312 c 0
 232.5 558.049804688 230.25 561 226.200195312 568.950195312 c 2
 223.799804688 573.700195312 l 1
 117.25 466.849609375 l 1
 10.7001953125 360 l 1
 5.349609375 360 l 1
 0 360 l 1
 0 364.650390625 l 1
 0 369.349609375 l 1
 109.049804688 478.700195312 l 2
 187.25 557.150390625 218.049804688 588.299804688 217.849609375 588.900390625 c 0
 213.349609375 604.25 212 610.099609375 210.099609375 622.25 c 0
 208.799804688 630.549804688 208.75 631.299804688 208.799804688 652.5 c 0
 208.849609375 675.849609375 209.299804688 682.900390625 211.200195312 690.700195312 c 2
 212.400390625 695.599609375 l 1
 209.799804688 693.150390625 l 2
 208.400390625 691.75 163.099609375 647.75 109.150390625 595.349609375 c 2
 11.0498046875 500 l 1
 5.5 500 l 1
 0 500 l 1
 0 505.5 l 1
 0 510.950195312 l 1
 77.400390625 585.599609375 l 2
 119.950195312 626.650390625 186.25 690.150390625 224.75 726.700195312 c 0
 263.25 763.25 296 794.349609375 297.5 795.799804688 c 2
 300.299804688 798.5 l 1
 308.75 799.200195312 l 2
538.75 694.950195312 m 0
 522.200195312 696.150390625 489.450195312 695.950195312 483.75 694.599609375 c 0
 482.400390625 694.299804688 478.700195312 693.799804688 475.549804688 693.5 c 0
 470.450195312 693 464.450195312 692 461.799804688 691.200195312 c 0
 461.200195312 691 461 691.099609375 461.200195312 691.450195312 c 0
 461.400390625 691.700195312 460.299804688 691.549804688 458.75 691 c 0
 450.849609375 688.299804688 445.349609375 683.75 442.349609375 677.5 c 0
 440.25 673.099609375 439.200195312 669.650390625 440.200195312 670.450195312 c 0
 440.700195312 670.900390625 440.75 670.400390625 440.450195312 668.099609375 c 0
 440.200195312 666.549804688 439.700195312 661.549804688 439.25 657 c 0
 438.799804688 652.450195312 438.200195312 648.549804688 437.950195312 648.299804688 c 0
 437.700195312 648 437.5 646.200195312 437.5 644.299804688 c 0
 437.5 638.799804688 436.549804688 626.75 435.75 621.599609375 c 0
 434.400390625 613.400390625 432.200195312 608.150390625 427.799804688 603.200195312 c 0
 421.349609375 595.900390625 412.099609375 592.900390625 393 592.049804688 c 0
 387.650390625 591.799804688 382.799804688 591.549804688 382.25 591.5 c 0
 376.700195312 590.900390625 366.650390625 592.099609375 359.049804688 594.200195312 c 0
 348.650390625 597.099609375 342.549804688 601.799804688 338.75 609.700195312 c 0
 335.099609375 617.299804688 334.349609375 622.099609375 333.5 641.75 c 0
 333.200195312 648.650390625 332.75 656.75 332.450195312 659.75 c 0
 331.650390625 667.599609375 328.799804688 678.200195312 327.549804688 677.849609375 c 0
 327.299804688 677.799804688 326.200195312 679.150390625 325.049804688 680.849609375 c 0
 323.900390625 682.549804688 321.849609375 684.900390625 320.5 686 c 0
 319.099609375 687.150390625 318.099609375 688.25 318.25 688.5 c 0
 318.599609375 689.099609375 314.099609375 691.299804688 309.599609375 692.700195312 c 0
 303.049804688 694.75 295.5 695.5 281.5 695.5 c 0
 263.150390625 695.5 254.5 694.150390625 246.400390625 689.900390625 c 0
 239.650390625 686.400390625 235.75 682 232.950195312 674.799804688 c 0
 229.099609375 664.900390625 228.200195312 646.049804688 230.75 630.049804688 c 0
 232.150390625 621.400390625 236.099609375 606.700195312 236.950195312 607.200195312 c 0
 237.450195312 607.549804688 242.549804688 595.150390625 242.700195312 593.200195312 c 0
 242.950195312 589.900390625 249.150390625 580.450195312 254.150390625 575.650390625 c 0
 258.299804688 571.75 262.349609375 569.75 271.900390625 566.950195312 c 0
 285.75 562.900390625 315.700195312 558 327.75 557.75 c 0
 334.799804688 557.650390625 346.049804688 556.5 345.75 556 c 0
 345.450195312 555.5 348.549804688 555.200195312 365.25 554 c 0
 407.650390625 551.049804688 459.400390625 549.150390625 460.25 550.5 c 0
 460.450195312 550.799804688 464.450195312 551 470.599609375 551 c 0
 479.799804688 551 480.549804688 550.950195312 479.950195312 550.200195312 c 0
 479.349609375 549.450195312 483.049804688 549.400390625 528 549.650390625 c 0
 577.950195312 549.950195312 600.049804688 550.5 601.349609375 551.599609375 c 0
 601.849609375 552 606.549804688 552.200195312 617.400390625 552.299804688 c 0
 625.849609375 552.400390625 638.049804688 552.799804688 644.5 553.25 c 0
 703.599609375 557.25 742.049804688 563 759 570.400390625 c 0
 760.549804688 571.099609375 763.25 573.400390625 767.849609375 578.099609375 c 2
 774.400390625 584.799804688 l 1
 778.200195312 592.549804688 l 2
 784 604.400390625 789 620.599609375 790.5 632.5 c 0
 791.349609375 639.650390625 791.700195312 655.25 791.049804688 660.5 c 0
 789.650390625 671.799804688 786.950195312 678.849609375 782.049804688 684.150390625 c 0
 777.200195312 689.299804688 769.700195312 693 763.75 693.25 c 0
 759.349609375 693.400390625 746.5 694.950195312 744.599609375 695.599609375 c 0
 741.299804688 696.599609375 720.700195312 695.049804688 713 693.200195312 c 0
 707.25 691.799804688 701.650390625 688.75 698 685.049804688 c 0
 690.700195312 677.650390625 688.299804688 668.650390625 687.75 646.25 c 0
 687.349609375 631.450195312 685.950195312 617.900390625 684.549804688 614.75 c 0
 684.299804688 614.200195312 683.349609375 612.25 682.5 610.349609375 c 0
 679.450195312 603.799804688 674.25 598.799804688 667.450195312 595.950195312 c 0
 659.400390625 592.599609375 650.25 591.400390625 634.75 591.75 c 0
 611.5 592.25 602.099609375 594.650390625 594.349609375 601.950195312 c 0
 591.599609375 604.549804688 590.5 606.049804688 588.75 609.700195312 c 0
 585.349609375 616.799804688 584.299804688 622.450195312 583.75 636.75 c 0
 583.349609375 648 582.950195312 653 582.5 652.75 c 0
 582.299804688 652.650390625 582 654.599609375 581.799804688 657.150390625 c 0
 581.599609375 659.700195312 581.25 663.200195312 580.950195312 665 c 0
 580.650390625 666.799804688 580.400390625 669.549804688 580.299804688 671.099609375 c 0
 580.200195312 673.200195312 579.700195312 674.900390625 578.349609375 677.650390625 c 0
 573 688.5 562 693.299804688 538.75 694.950195312 c 0
438.200195312 528.25 m 0
 438.450195312 528.900390625 431.650390625 529 378.849609375 529 c 0
 327.150390625 529 319.049804688 528.900390625 318.200195312 528.25 c 0
 317.450195312 527.700195312 315.25 527.549804688 307.349609375 527.5 c 0
 300.849609375 527.5 297.549804688 527.650390625 297.75 528 c 0
 297.950195312 528.299804688 297.25 528.5 296.049804688 528.5 c 0
 294.150390625 528.5 294.099609375 528.450195312 293.75 526.5 c 0
 293.549804688 525.450195312 293.549804688 524.299804688 293.75 524.049804688 c 0
 294.099609375 523.400390625 291.200195312 502.349609375 290.5 500.5 c 0
 290.200195312 499.799804688 287.400390625 481.25 284.25 459.25 c 0
 276.900390625 407.549804688 275.549804688 399.400390625 269.849609375 371.450195312 c 0
 268.349609375 364.200195312 267.099609375 357.549804688 267.099609375 356.75 c 0
 267.049804688 354.599609375 262.099609375 333.049804688 261.25 331.25 c 0
 260.849609375 330.450195312 259.200195312 324.25 257.549804688 317.5 c 0
 245.75 269.349609375 228.200195312 210.5 212.799804688 167.299804688 c 0
 211.549804688 163.799804688 210.5 160.549804688 210.5 160.150390625 c 0
 210.5 158.75 199.299804688 129.349609375 198.299804688 128 c 0
 197.950195312 127.599609375 196.5 124.349609375 195 120.75 c 0
 184.950195312 96.2998046875 174.5 75.099609375 166.75 63.5 c 0
 162.75 57.5498046875 160.75 55.2001953125 150.5 44.400390625 c 0
 145.950195312 39.650390625 141.150390625 34.099609375 139.849609375 32.150390625 c 0
 125.5 10.5498046875 121.5 -13.2998046875 130.049804688 -26.2001953125 c 0
 132.849609375 -30.400390625 138.049804688 -33.0498046875 143.75 -33.150390625 c 0
 150.75 -33.2998046875 158.650390625 -26.900390625 165.200195312 -15.900390625 c 0
 168.400390625 -10.400390625 170.049804688 -6.349609375 173.799804688 5.650390625 c 0
 179.5 23.900390625 181.400390625 25.5498046875 183.299804688 13.650390625 c 0
 183.799804688 10.400390625 184.150390625 3.5 184.349609375 -7 c 0
 184.650390625 -24.7998046875 184.299804688 -28.349609375 181.299804688 -37.099609375 c 0
 179.349609375 -42.900390625 177.049804688 -46.900390625 173.950195312 -50.0498046875 c 0
 171.549804688 -52.5 168.900390625 -53.650390625 164.25 -54.25 c 0
 156.849609375 -55.2001953125 153 -58.650390625 153 -64.400390625 c 0
 153 -74.4501953125 167.799804688 -92.4501953125 177.849609375 -94.5 c 0
 185.349609375 -96.0498046875 191.900390625 -93.599609375 198.950195312 -86.5498046875 c 0
 203.75 -81.849609375 207.200195312 -76.900390625 212.200195312 -67.75 c 0
 219.650390625 -54.150390625 222.75 -45.599609375 238.349609375 3.75 c 0
 243.700195312 20.7998046875 248.25 34.849609375 248.400390625 35 c 0
 248.799804688 35.400390625 248.25 31.25 243.5 -2.75 c 0
 235.650390625 -59.2001953125 235.599609375 -59.349609375 235.150390625 -77.75 c 0
 234.849609375 -90.599609375 235.099609375 -94.9501953125 236.200195312 -94.0498046875 c 0
 236.700195312 -93.599609375 236.900390625 -94.75 237.200195312 -99.650390625 c 0
 237.349609375 -103.049804688 237.799804688 -107 238.200195312 -108.5 c 0
 238.599609375 -110 238.799804688 -111.400390625 238.650390625 -111.650390625 c 0
 238.200195312 -112.400390625 241 -116 242.299804688 -116.299804688 c 0
 247.049804688 -117.5 267 -101.25 303.450195312 -66.5 c 0
 327.849609375 -43.25 342.700195312 -28.2998046875 397 27.7001953125 c 0
 427.099609375 58.75 453.200195312 83.9501953125 468.5 96.7001953125 c 0
 474.400390625 101.650390625 481.900390625 106.849609375 483.799804688 107.299804688 c 0
 486.849609375 108.099609375 486.400390625 106 480.849609375 93.7001953125 c 0
 477.599609375 86.5 474.900390625 78.400390625 473.75 72.2998046875 c 0
 473.099609375 68.7998046875 472.950195312 65.599609375 473.099609375 56.2998046875 c 0
 473.299804688 45.25 473.349609375 44.5498046875 474.700195312 40.5 c 0
 475.450195312 38.150390625 477.200195312 34.099609375 478.599609375 31.4501953125 c 0
 481.349609375 26.150390625 487.150390625 18 488.150390625 18 c 0
 488.5 18 489.400390625 17.400390625 490.150390625 16.650390625 c 0
 491.900390625 14.7998046875 494.75 13.2998046875 495.75 13.7001953125 c 0
 497 14.150390625 498 17.2001953125 498.950195312 23.4501953125 c 0
 499.450195312 26.650390625 499.950195312 29.599609375 500.150390625 30 c 0
 500.299804688 30.400390625 500.700195312 32.650390625 501 35 c 0
 505.900390625 71.5498046875 535.349609375 141.950195312 548.650390625 149 c 0
 551.200195312 150.349609375 553.25 150.099609375 553.799804688 148.349609375 c 0
 554.299804688 146.849609375 554.099609375 135.549804688 553.5 131.349609375 c 0
 552 120.849609375 546.549804688 100.049804688 539.099609375 76.25 c 0
 537.450195312 71.0498046875 536 66.0498046875 535.849609375 65.2001953125 c 0
 535.400390625 62.900390625 526.049804688 36.4501953125 525.200195312 35.099609375 c 0
 524.5 34 513 3.25 505.900390625 -16.5 c 0
 490.099609375 -60.650390625 479.900390625 -92.7001953125 479.400390625 -99.7001953125 c 0
 479.25 -102.049804688 480.599609375 -103.400390625 484.599609375 -104.900390625 c 0
 488.900390625 -106.5 498.75 -108.549804688 501.599609375 -108.400390625 c 0
 505.049804688 -108.25 519.099609375 -110.049804688 519.799804688 -110.75 c 0
 520.849609375 -111.75 555.75 -114.400390625 582.5 -115.450195312 c 0
 596.450195312 -116.049804688 633.900390625 -116.299804688 634.349609375 -115.799804688 c 0
 634.5 -115.650390625 639.150390625 -115.5 644.599609375 -115.5 c 0
 651.75 -115.5 654.5 -115.650390625 654.5 -116.099609375 c 0
 654.5 -116.799804688 716.599609375 -116.349609375 732.5 -115.5 c 0
 759.099609375 -114.150390625 778.900390625 -111.349609375 783.5 -108.299804688 c 0
 784.450195312 -107.650390625 785.799804688 -106.950195312 786.5 -106.75 c 0
 787.200195312 -106.549804688 789.75 -105.349609375 792.25 -104.099609375 c 0
 799.450195312 -100.400390625 804.150390625 -95.099609375 806.049804688 -88.5 c 0
 806.400390625 -87.25 807.049804688 -85.849609375 807.450195312 -85.2998046875 c 0
 808.75 -83.7998046875 808.450195312 -74.2001953125 806.799804688 -66.400390625 c 0
 805.349609375 -59.349609375 801.349609375 -46.599609375 797 -35.25 c 0
 791.849609375 -21.7998046875 779.349609375 6.9501953125 778.25 7.7998046875 c 0
 777.299804688 8.5 772.549804688 19.150390625 772.049804688 21.75 c 0
 771.799804688 22.849609375 769.349609375 28.900390625 766.549804688 35.2001953125 c 0
 757.599609375 55.4501953125 749.150390625 77.4501953125 742.200195312 98.4501953125 c 0
 740.450195312 103.799804688 738.799804688 108.299804688 738.549804688 108.450195312 c 0
 737.950195312 108.849609375 734.400390625 121.700195312 734.200195312 124.200195312 c 0
 734.150390625 125.349609375 733.400390625 129.400390625 732.549804688 133.25 c 0
 730.599609375 142.349609375 729.650390625 152.200195312 730.5 154.700195312 c 0
 731.900390625 159 736.099609375 155.799804688 743 145.299804688 c 0
 745.150390625 141.950195312 747.349609375 138.799804688 747.849609375 138.25 c 0
 749.049804688 136.950195312 755 126.450195312 755 125.599609375 c 0
 755 125.299804688 758 119 761.700195312 111.599609375 c 0
 769.900390625 95.2001953125 777.599609375 78.5498046875 786.25 58.400390625 c 0
 789.900390625 49.9501953125 792.950195312 43.150390625 793.099609375 43.25 c 0
 793.400390625 43.5498046875 799 29.9501953125 799 28.9501953125 c 0
 799 28.5 801 22.9501953125 803.450195312 16.7001953125 c 0
 811.549804688 -4.150390625 818.849609375 -24.7998046875 823.75 -40.650390625 c 0
 829.200195312 -58.4501953125 833.450195312 -77.2001953125 832.799804688 -80.75 c 0
 832.400390625 -82.7001953125 833.25 -88.900390625 834.549804688 -94.25 c 0
 836.75 -103 842.299804688 -111.549804688 847.950195312 -114.900390625 c 0
 849.950195312 -116.099609375 850.799804688 -116.25 854.5 -116.25 c 0
 859.799804688 -116.25 863.099609375 -115.150390625 866.200195312 -112.400390625 c 0
 868.700195312 -110.25 870.5 -107.5 871.75 -104 c 0
 874 -97.900390625 873.650390625 -82.0498046875 871.049804688 -69.650390625 c 0
 869.200195312 -60.7998046875 865.950195312 -48.9501953125 865.450195312 -49.25 c 0
 864.950195312 -49.599609375 860.200195312 -35.5 860.400390625 -34.150390625 c 0
 860.450195312 -33.5 858.650390625 -28.25 856.349609375 -22.400390625 c 0
 848.849609375 -3.5 840.25 15.2998046875 829.650390625 36 c 0
 822.400390625 50.150390625 821.599609375 51.599609375 821.049804688 51.2998046875 c 0
 820.599609375 51 813.900390625 63.349609375 814.099609375 64.150390625 c 0
 814.599609375 66.5498046875 770.400390625 138.450195312 768.400390625 138.5 c 0
 767.599609375 138.549804688 760.25 149.299804688 760.200195312 150.549804688 c 0
 760.049804688 152.650390625 736.099609375 185.299804688 718.75 207 c 0
 710.650390625 217.150390625 708.5 219.599609375 708.5 218.75 c 0
 708.5 218.200195312 699.900390625 228.650390625 699.5 229.75 c 0
 699.049804688 230.950195312 692.75 238.150390625 682 249.75 c 0
 667.849609375 265 641 290.849609375 639.900390625 290.200195312 c 0
 639.400390625 289.849609375 629.5 298.849609375 629.5 299.700195312 c 0
 629.450195312 300.599609375 601.400390625 324.25 585.299804688 336.950195312 c 0
 575.099609375 345 563.950195312 353 562.950195312 353 c 0
 561.799804688 353 551 360.349609375 551 361.200195312 c 0
 551 362.099609375 539.349609375 368.900390625 530.5 373.200195312 c 0
 515.5 380.450195312 504.450195312 382.849609375 495.599609375 380.75 c 0
 486.900390625 378.700195312 480.799804688 373.049804688 475.900390625 362.5 c 0
 471.599609375 353.299804688 471.049804688 352.5 468.900390625 352.5 c 0
 465.849609375 352.5 460.349609375 362.349609375 455.950195312 375.5 c 0
 454.549804688 379.75 453.200195312 383.549804688 452.950195312 384 c 0
 452.150390625 385.400390625 449 397.5 449 399.150390625 c 0
 449 400.950195312 445.650390625 413.400390625 442.75 422.5 c 0
 435.5 445.049804688 424.650390625 463.549804688 417.200195312 466 c 0
 412.099609375 467.700195312 407.849609375 463.849609375 403.849609375 453.75 c 0
 400.200195312 444.700195312 397.599609375 431.450195312 396.5 417 c 0
 396.25 413.299804688 395.799804688 403.150390625 395.5 394.5 c 0
 394.700195312 370.349609375 393.950195312 361.650390625 391.950195312 355.650390625 c 0
 390.849609375 352.349609375 388.75 350 386.900390625 350 c 0
 385.200195312 350 379.799804688 355.799804688 374.200195312 363.650390625 c 0
 371.25 367.849609375 367 373.049804688 364.799804688 375.299804688 c 0
 358 382.099609375 355.650390625 382.049804688 354.299804688 375 c 0
 353.400390625 370.25 352.150390625 369 348.349609375 369 c 0
 341.299804688 369.049804688 329 377.349609375 313.450195312 392.599609375 c 0
 310.75 395.299804688 308.5 397.700195312 308.5 398 c 0
 308.5 398.25 306.75 400.849609375 304.599609375 403.75 c 0
 295.150390625 416.5 290.450195312 428 291.900390625 434.849609375 c 0
 293.349609375 441.599609375 295.349609375 443.049804688 300.450195312 441.25 c 0
 304.599609375 439.799804688 308.400390625 436.849609375 320.75 425.349609375 c 0
 324.849609375 421.549804688 328.450195312 418.549804688 328.799804688 418.700195312 c 0
 329.099609375 418.799804688 331.099609375 417.599609375 333.25 416 c 0
 335.349609375 414.349609375 337.849609375 412.549804688 338.799804688 412 c 0
 339.75 411.400390625 340.5 410.650390625 340.5 410.25 c 0
 340.5 409.400390625 345.700195312 407.200195312 349.450195312 406.450195312 c 0
 356 405.200195312 360.849609375 406.75 365.75 411.75 c 0
 371.150390625 417.200195312 374.549804688 424.599609375 380.200195312 442.849609375 c 0
 382 448.700195312 383.5 453.700195312 383.5 454.049804688 c 0
 383.5 455.349609375 390.25 468.549804688 393.200195312 473 c 0
 397.099609375 478.849609375 402.75 484.349609375 406.799804688 486.25 c 0
 409.849609375 487.700195312 416.75 488.650390625 417.450195312 487.700195312 c 0
 417.599609375 487.450195312 419.650390625 486.299804688 422 485.150390625 c 0
 434.349609375 479.099609375 446.549804688 465.900390625 458.400390625 445.650390625 c 0
 460.400390625 442.299804688 463.299804688 437.900390625 464.950195312 435.900390625 c 0
 468.700195312 431.25 474.75 425.299804688 475.349609375 425.650390625 c 0
 475.599609375 425.799804688 476.950195312 425.049804688 478.299804688 423.900390625 c 0
 479.650390625 422.799804688 482.150390625 420.900390625 483.849609375 419.650390625 c 0
 485.599609375 418.400390625 486.849609375 417.200195312 486.700195312 416.799804688 c 0
 486.450195312 416.099609375 491.349609375 413.200195312 498.549804688 409.799804688 c 0
 504.700195312 406.849609375 511.049804688 405.25 519.849609375 404.25 c 0
 529.099609375 403.25 532.700195312 402.5 539.5 399.950195312 c 0
 545.900390625 397.549804688 559.299804688 391.049804688 566.700195312 386.799804688 c 0
 569.400390625 385.200195312 572.150390625 383.75 572.799804688 383.450195312 c 0
 574.349609375 382.900390625 584.549804688 376.549804688 585.25 375.799804688 c 0
 585.549804688 375.450195312 588.700195312 373.200195312 592.25 370.75 c 0
 611.200195312 357.799804688 628.349609375 344.299804688 646.450195312 328.150390625 c 0
 649.599609375 325.299804688 652.400390625 323 652.599609375 323 c 0
 653.25 323 663.450195312 313.900390625 663.349609375 313.450195312 c 0
 663.299804688 313.200195312 666.200195312 310.400390625 669.799804688 307.150390625 c 0
 673.349609375 303.900390625 687.5 291.150390625 701.200195312 278.799804688 c 2
 726.099609375 256.349609375 l 1
 727.400390625 257.700195312 l 1
 728.75 259 l 1
 728.900390625 384.900390625 l 2
 729 454.099609375 728.900390625 514.650390625 728.700195312 519.400390625 c 2
 728.400390625 528 l 1
 723.150390625 528 l 2
 719.799804688 528 718.049804688 528.200195312 718.25 528.5 c 0
 718.450195312 528.849609375 698.450195312 529 658.549804688 529 c 0
 619.099609375 529 598.450195312 528.849609375 598.25 528.5 c 0
 598.049804688 528.200195312 594.049804688 528 587.950195312 528 c 0
 581.400390625 528 578.049804688 528.150390625 578.25 528.5 c 0
 578.450195312 528.849609375 558.450195312 529 518.599609375 529 c 0
 465.900390625 529 458.549804688 528.900390625 458 528.25 c 0
 457.5 527.650390625 455.700195312 527.5 447.650390625 527.5 c 0
 439.200195312 527.5 437.950195312 527.599609375 438.200195312 528.25 c 0
312.5 245.549804688 m 0
 314.150390625 246.049804688 316.25 246.299804688 317.75 246.200195312 c 0
 319.150390625 246.099609375 321.950195312 245.950195312 324 245.799804688 c 0
 336.549804688 245.099609375 353.650390625 231.5 361.25 216.25 c 0
 364.849609375 209 365.950195312 201.799804688 364.25 196.200195312 c 0
 362.549804688 190.599609375 354.700195312 182.650390625 347.049804688 178.849609375 c 2
 342.799804688 176.75 l 1
 334 176.75 l 1
 325.150390625 176.75 l 1
 320.450195312 179.099609375 l 2
 314.849609375 181.849609375 310.099609375 185.650390625 306.049804688 190.650390625 c 0
 297.75 200.700195312 294 212.599609375 295.400390625 224.75 c 0
 296.099609375 231.099609375 297.950195312 235.049804688 302.200195312 239.299804688 c 0
 305.450195312 242.549804688 308.099609375 244.150390625 312.5 245.549804688 c 0
918.700195312 -111.099609375 m 2
 988.099609375 -40 l 1
 994.049804688 -40 l 1
 1000 -40 l 1
 1000 -44.150390625 l 1
 1000 -48.2998046875 l 1
 925.950195312 -124.150390625 l 1
 851.900390625 -200 l 1
 841.849609375 -200 l 1
 831.849609375 -200 l 1
 840.549804688 -191.099609375 l 2
 845.349609375 -186.25 880.5 -150.25 918.700195312 -111.099609375 c 2
EndSplineSet
EndChar

